<?xml version="1.0" encoding="UTF-8" standalone="no"?>
<!DOCTYPE svg PUBLIC "-//W3C//DTD SVG 1.1//EN" "http://www.w3.org/Graphics/SVG/1.1/DTD/svg11.dtd">
<svg xmlns="http://www.w3.org/2000/svg" version="1.1" viewBox="0 0 628 748">
<g stroke-width="2.00" fill="none" stroke-linecap="butt">
<path stroke="#dcdcdd" vector-effect="non-scaling-stroke" d="
  M 297.54 721.50
  Q 302.12 725.00 305.81 729.44
  Q 306.86 730.71 307.79 729.75"
/>
<path stroke="#808080" vector-effect="non-scaling-stroke" d="
  M 307.79 729.75
  Q 309.27 734.25 310.71 738.76
  Q 312.01 742.84 315.99 741.14
  A 1.15 1.11 -2.9 0 0 316.62 740.47
  L 320.46 728.75"
/>
<path stroke="#dcdcdd" vector-effect="non-scaling-stroke" d="
  M 320.46 728.75
  Q 321.33 730.36 322.61 728.85
  Q 325.83 725.04 329.75 721.96"
/>
<path stroke="#808080" vector-effect="non-scaling-stroke" d="
  M 329.75 721.96
  Q 341.70 709.59 351.26 695.31
  Q 353.59 691.82 357.94 686.19
  Q 366.38 675.24 374.23 662.13
  Q 378.37 655.21 383.39 647.76
  Q 392.95 633.60 400.45 618.22
  Q 402.23 614.56 404.94 610.85
  Q 411.73 601.57 417.31 590.06
  Q 419.41 585.74 423.26 579.48
  Q 424.59 577.32 425.75 574.71
  Q 426.85 572.23 428.08 569.82
  Q 429.11 567.80 431.58 562.51
  Q 434.22 556.84 438.12 551.88
  Q 440.72 548.57 441.06 547.31
  Q 441.43 545.97 443.50 542.00
  Q 447.63 534.08 452.03 526.29
  Q 459.40 513.22 464.09 498.98
  A 0.80 0.78 -83.9 0 1 464.74 498.44
  Q 469.19 497.98 474.92 498.67
  A 0.52 0.51 12.0 0 1 475.35 499.32
  Q 472.67 508.48 469.11 516.80
  Q 466.74 522.35 460.70 533.28
  Q 452.41 548.29 444.36 563.43
  Q 443.76 564.54 441.00 570.32
  Q 439.25 573.98 437.25 577.00
  Q 433.35 582.89 431.20 587.13
  Q 417.74 613.63 400.53 637.85
  Q 399.45 639.38 398.69 641.58
  Q 397.92 643.83 396.94 645.44
  Q 390.39 656.21 381.72 667.11
  Q 378.00 671.77 375.05 676.05
  Q 371.88 680.64 368.58 685.16
  Q 368.52 685.24 365.14 690.04
  Q 362.22 694.19 358.76 697.90
  Q 353.04 704.03 351.11 706.41
  Q 344.04 715.12 336.54 723.46
  Q 336.52 723.48 328.54 731.63
  Q 324.33 735.92 320.80 740.83
  Q 320.34 741.47 321.13 741.41
  Q 327.77 740.92 334.75 740.95
  Q 373.74 741.09 412.74 741.23
  Q 415.15 741.24 421.74 740.92
  Q 425.66 740.72 430.75 740.75
  Q 455.41 740.89 480.02 740.56
  A 0.43 0.42 -85.2 0 0 480.44 740.20
  Q 483.56 719.00 487.68 697.99
  Q 492.36 674.15 497.10 650.32
  Q 500.70 632.27 505.22 614.43
  Q 507.48 605.54 509.97 594.99
  Q 512.53 584.13 515.50 573.37
  Q 517.90 564.69 520.73 554.06
  Q 525.52 536.05 531.56 518.42
  Q 532.74 514.97 533.91 510.33
  Q 534.94 506.25 536.21 502.24
  Q 549.31 460.95 565.03 420.58
  Q 565.56 419.22 566.24 416.85
  Q 566.94 414.42 567.69 413.19
  Q 572.48 405.28 575.23 396.45
  Q 577.05 390.61 579.46 384.98
  Q 590.74 358.69 603.64 333.16
  Q 606.73 327.03 609.31 323.06
  Q 613.86 316.06 617.06 309.83
  Q 618.15 307.70 619.88 304.97
  Q 621.40 302.56 622.64 300.04
  A 0.69 0.68 36.1 0 0 622.51 299.26
  Q 616.76 293.39 609.98 288.82
  Q 607.05 286.84 604.71 284.38
  Q 601.47 280.97 599.44 279.56
  Q 583.11 268.27 576.50 262.50
  Q 572.62 259.12 568.88 257.22
  Q 564.75 255.12 564.71 255.10
  Q 561.37 253.11 557.50 250.25
  Q 552.27 246.38 545.28 243.70
  Q 545.20 243.67 544.19 243.45
  Q 543.30 243.26 543.19 242.31
  A 1.30 0.95 -80.1 0 0 542.79 241.50
  Q 536.25 236.31 530.19 233.56
  Q 518.49 228.26 514.07 225.92
  Q 503.19 220.15 491.64 215.86
  Q 490.77 215.53 488.16 214.16
  Q 486.55 213.30 484.50 212.75
  Q 478.87 211.23 471.39 208.44
  Q 470.47 208.10 470.97 208.60
  Q 471.06 208.68 471.19 208.75
  Q 481.84 213.75 485.69 217.06
  Q 488.90 219.83 490.74 220.83
  Q 490.98 220.97 491.41 221.51
  L 491.79 222.00"
/>
<path stroke="#ececec" vector-effect="non-scaling-stroke" d="
  M 491.79 222.00
  Q 491.41 222.87 492.19 223.81
  Q 495.64 228.01 498.77 230.00
  Q 503.68 233.11 507.59 237.40
  Q 509.97 240.02 512.65 242.35
  Q 522.67 251.05 531.51 260.95
  Q 531.59 261.04 534.45 264.09
  Q 537.02 266.82 539.00 270.02
  Q 539.33 270.56 539.23 271.09
  A 1.24 0.66 -70.0 0 0 539.35 271.96
  L 561.71 301.27
  Q 563.36 303.43 560.69 303.69
  Q 550.23 304.67 540.56 306.31
  Q 539.42 306.51 536.73 308.39
  Q 536.29 308.70 536.81 308.72
  L 538.75 308.79"
/>
<path stroke="#808080" vector-effect="non-scaling-stroke" d="
  M 538.75 308.79
  Q 528.76 310.21 518.94 312.51
  Q 510.97 314.39 503.00 316.30
  Q 501.42 316.68 490.89 318.64
  Q 481.86 320.32 473.39 324.09
  Q 468.09 326.45 461.92 328.16
  Q 460.88 328.45 461.70 329.15
  Q 470.77 336.89 479.79 343.67
  Q 504.17 362.01 526.53 382.76
  Q 527.80 383.94 529.83 385.31
  Q 531.58 386.49 533.18 387.86
  A 0.79 0.78 28.0 0 1 533.44 388.68
  Q 532.94 390.49 531.31 393.81
  Q 528.47 399.60 525.53 405.34
  Q 522.49 411.26 520.17 417.05
  Q 514.74 430.61 509.12 444.10
  Q 509.09 444.19 508.47 445.92
  Q 507.85 447.66 506.61 449.01
  Q 506.01 449.66 506.90 449.59
  Q 510.57 449.32 513.75 448.52
  Q 522.15 446.40 530.65 444.73
  Q 535.28 443.82 539.92 444.56
  A 0.59 0.59 14.2 0 1 540.39 445.34
  L 523.75 493.25
  Q 522.88 495.75 522.00 495.75
  Q 491.26 495.79 460.53 495.46
  Q 458.19 495.43 456.97 494.30
  Q 455.61 493.04 454.68 491.00
  A 1.03 1.03 48.6 0 1 454.72 490.08
  Q 464.82 471.88 480.95 459.50
  Q 485.34 456.13 489.56 452.56
  Q 491.55 450.88 495.70 451.37
  A 0.70 0.68 15.9 0 0 496.41 450.99
  Q 496.94 449.88 497.23 448.68
  Q 497.75 446.60 498.02 445.88
  Q 507.89 420.09 519.45 394.36
  A 1.51 1.50 -59.6 0 0 518.98 392.54
  Q 508.98 384.94 499.69 377.06
  Q 488.40 367.50 467.99 352.17
  Q 467.93 352.12 452.90 340.38
  Q 444.89 334.12 436.04 328.40
  Q 435.62 328.12 436.09 327.92
  Q 456.10 319.61 476.00 312.25
  Q 482.47 309.86 490.93 307.87
  Q 499.87 305.77 505.91 304.04
  Q 516.14 301.11 521.00 300.50
  Q 533.30 298.96 545.51 296.83
  Q 546.00 296.75 545.64 296.39
  Q 539.70 290.45 535.13 283.40
  Q 534.13 281.85 531.44 279.06
  Q 525.61 273.01 519.75 267.00
  Q 518.32 265.54 517.83 264.05
  A 1.66 1.35 -86.6 0 0 517.28 263.28
  Q 515.70 262.12 514.54 260.59
  Q 513.17 258.79 511.99 257.84
  Q 508.60 255.13 504.44 250.81
  Q 495.74 241.79 484.28 232.37
  Q 482.11 230.58 475.98 225.91
  Q 471.80 222.71 467.72 219.38
  Q 461.06 213.93 455.14 209.90
  Q 444.58 202.71 434.23 195.24
  A 1.02 0.90 20.4 0 1 433.81 194.45
  L 434.56 169.97
  A 1.51 1.48 0.5 0 0 433.03 168.44
  L 423.18 168.58
  A 0.55 0.50 88.3 0 1 422.67 168.05
  Q 422.25 152.06 422.57 136.06
  Q 423.04 112.32 422.50 106.75
  Q 420.91 90.34 415.28 74.86
  Q 413.69 70.50 409.31 63.69
  Q 402.06 52.41 396.69 44.81
  Q 395.71 43.43 394.24 42.23
  Q 392.78 41.04 391.80 39.74
  Q 388.65 35.56 384.03 33.02
  Q 382.60 32.23 381.45 31.08
  Q 372.95 22.56 361.94 17.81
  Q 357.31 15.82 346.39 11.99
  Q 346.28 11.96 342.17 10.39
  Q 338.51 8.99 335.00 8.50
  Q 328.47 7.59 320.00 7.25
  Q 315.56 7.07 314.00 7.19
  Q 313.50 7.23 313.04 7.08
  Q 311.79 6.66 310.56 6.86
  Q 307.95 7.28 307.88 7.28
  Q 300.41 7.50 292.99 8.44
  Q 290.92 8.71 285.94 10.44
  Q 279.93 12.53 273.99 14.80
  Q 273.87 14.84 269.36 16.48
  Q 256.56 21.14 246.86 30.76
  Q 245.13 32.48 243.00 33.65
  Q 240.90 34.81 239.18 36.39
  Q 238.98 36.57 236.21 39.97
  Q 235.16 41.26 233.87 42.33
  Q 232.35 43.59 231.58 44.63
  Q 226.12 51.99 221.30 59.79
  Q 221.22 59.92 217.82 64.89
  Q 215.43 68.39 213.69 72.94
  Q 208.48 86.50 206.38 100.06
  Q 205.25 107.34 205.24 120.00
  Q 205.22 143.90 205.31 168.07
  A 0.51 0.49 -0.6 0 1 204.80 168.57
  L 194.36 168.51
  A 0.93 0.91 89.1 0 0 193.45 169.47
  L 194.29 193.38
  Q 194.35 195.05 192.96 196.00
  Q 181.82 203.59 170.96 211.22
  Q 166.19 214.58 159.04 220.38
  Q 153.19 225.13 147.10 229.56
  Q 144.95 231.11 140.56 235.06
  Q 126.63 247.59 118.44 255.92
  Q 118.06 256.29 116.23 257.69
  Q 115.23 258.45 114.19 259.69
  Q 107.58 267.54 97.15 278.73
  Q 94.48 281.60 90.58 286.88
  Q 86.73 292.09 82.10 296.65
  Q 81.75 297.00 82.25 297.06
  Q 102.34 299.66 108.81 300.94
  Q 118.52 302.86 141.00 308.99
  Q 149.70 311.36 164.31 316.94
  Q 178.06 322.18 191.73 327.63
  Q 192.19 327.81 191.79 328.10
  Q 173.51 341.46 155.68 355.43
  Q 132.01 373.97 108.47 393.11
  A 0.50 0.49 -31.8 0 0 108.33 393.69
  Q 117.02 413.92 125.74 434.35
  Q 125.75 434.38 126.60 437.11
  Q 127.24 439.18 129.19 441.06
  Q 130.39 442.22 130.69 444.50
  Q 130.76 445.02 131.05 445.40
  Q 135.10 450.82 137.06 455.44
  Q 138.94 459.85 140.39 462.88
  Q 141.58 465.37 144.79 469.69
  Q 148.73 475.02 151.43 481.14
  Q 153.95 486.87 159.06 491.69
  Q 160.34 492.89 160.94 494.96
  Q 161.08 495.44 161.41 495.81
  Q 164.35 499.12 165.89 504.66
  Q 166.09 505.39 166.37 506.09
  Q 172.11 520.45 179.99 533.93
  Q 182.48 538.19 184.81 542.55
  Q 184.84 542.60 186.63 546.41
  Q 188.34 550.04 191.81 554.44
  Q 194.48 557.81 197.53 564.73
  Q 201.19 573.02 205.72 580.85
  Q 208.18 585.09 212.50 594.00
  Q 216.62 602.49 224.93 613.32
  Q 225.67 614.28 227.81 618.94
  Q 232.18 628.43 240.40 641.15
  Q 240.82 641.79 243.48 646.36
  Q 245.01 649.00 246.96 651.36
  Q 249.46 654.37 250.74 656.73
  Q 257.65 669.45 266.30 681.03
  Q 271.15 687.53 275.52 694.02
  Q 283.24 705.49 291.81 714.94
  Q 296.19 719.76 297.54 721.50"
/>
<path stroke="#6d6e6e" vector-effect="non-scaling-stroke" d="
  M 538.75 308.79
  Q 554.41 306.81 570.16 306.19
  A 0.49 0.49 75.8 0 0 570.58 305.48
  Q 568.55 301.21 565.70 297.53
  Q 561.09 291.59 556.73 285.47
  Q 552.31 279.26 547.48 273.67
  Q 543.29 268.82 539.25 263.84
  Q 535.13 258.78 530.68 254.68
  Q 525.81 250.18 520.98 245.66
  Q 520.91 245.59 514.99 239.41
  Q 511.58 235.85 506.81 232.44
  Q 499.38 227.11 491.79 222.00"
/>
<path stroke="#5e5e5e" vector-effect="non-scaling-stroke" d="
  M 329.75 721.96
  Q 331.38 718.88 332.86 715.74
  Q 334.41 712.46 336.00 709.51
  Q 340.70 700.77 344.37 691.55
  Q 348.60 680.95 349.53 678.69
  Q 352.18 672.28 354.52 665.75
  Q 355.57 662.81 357.82 658.72
  Q 360.49 653.87 362.03 648.55
  Q 363.60 643.09 363.63 643.00
  Q 372.34 615.70 378.19 592.69
  Q 380.02 585.49 381.55 580.15
  Q 383.94 571.82 384.94 567.62
  Q 388.79 551.32 392.53 535.00
  Q 394.63 525.82 396.33 515.38
  Q 401.00 486.76 406.56 458.30
  Q 408.85 446.58 410.08 438.63
  Q 415.71 402.22 417.75 370.75
  Q 421.57 311.89 422.00 301.00
  Q 422.88 278.55 423.71 189.50"
/>
<path stroke="#808080" vector-effect="non-scaling-stroke" d="
  M 423.71 189.50
  L 424.44 181.31
  A 0.50 0.46 2.1 0 0 423.94 180.81
  Q 343.59 180.72 312.50 180.50
  Q 310.72 180.49 309.49 180.57
  Q 307.32 180.73 306.51 180.70
  Q 294.88 180.35 283.25 180.51
  Q 266.46 180.75 263.24 180.75
  Q 233.62 180.75 203.98 180.75
  A 0.56 0.53 87.1 0 0 203.45 181.36
  L 204.54 192.75"
/>
<path stroke="#5e5e5e" vector-effect="non-scaling-stroke" d="
  M 204.54 192.75
  Q 204.20 197.73 204.25 200.25
  Q 205.07 240.50 205.61 280.75
  Q 205.94 306.03 207.69 331.25
  Q 208.96 349.62 210.19 367.99
  Q 212.45 401.96 217.47 435.61
  Q 218.66 443.62 220.92 455.31
  Q 226.67 485.15 231.64 515.13
  Q 233.45 526.05 235.39 534.77
  Q 240.10 555.86 245.48 576.78
  Q 245.98 578.72 247.27 582.64
  Q 248.22 585.56 248.93 588.55
  Q 250.95 597.17 250.98 597.26
  Q 257.69 622.02 265.44 646.48
  Q 265.57 646.90 266.41 650.45
  Q 266.91 652.58 267.94 654.31
  Q 271.99 661.16 274.44 668.09
  Q 275.99 672.45 276.00 672.50
  Q 285.39 697.43 297.67 721.07
  Q 297.87 721.44 297.54 721.50"
/>
<path stroke="#dcdcdd" vector-effect="non-scaling-stroke" d="
  M 423.71 189.50
  Q 423.31 191.81 422.69 193.19
  Q 418.97 201.44 417.76 210.32
  Q 416.30 220.94 416.27 221.12
  Q 415.51 226.00 414.50 234.00
  Q 408.64 280.63 396.25 362.75
  Q 393.69 379.72 386.68 404.73
  Q 386.64 404.85 385.91 407.79
  Q 385.21 410.56 384.19 412.19
  Q 382.81 414.37 382.53 416.49
  Q 382.04 420.04 381.93 420.43
  Q 379.65 428.19 377.73 436.05
  Q 377.03 438.89 376.21 441.53
  Q 375.36 444.25 374.54 446.96
  Q 374.39 447.46 371.75 455.03
  Q 369.97 460.10 369.25 465.50
  Q 369.11 466.58 367.71 467.75
  Q 367.30 468.09 367.13 468.54
  Q 365.04 474.16 363.00 482.75
  Q 357.63 505.41 352.26 528.07
  Q 352.07 528.89 351.31 530.71
  Q 350.76 532.03 350.58 533.45
  Q 350.14 536.95 350.12 537.01
  Q 344.64 562.68 340.20 588.55
  Q 338.93 595.95 334.94 602.94
  Q 334.50 603.70 333.79 603.75"
/>
<path stroke="#808080" vector-effect="non-scaling-stroke" d="
  M 333.79 603.75
  Q 333.59 584.34 332.25 560.25
  Q 330.34 526.00 329.18 485.01
  Q 329.18 484.92 329.06 476.12
  Q 328.85 460.22 325.51 444.65
  Q 322.68 431.44 319.82 418.23
  Q 318.92 414.03 318.51 409.83
  A 0.35 0.34 87.0 0 1 318.85 409.44
  L 355.79 409.26
  A 0.90 0.89 -4.4 0 0 356.68 408.23
  Q 353.05 383.77 347.67 360.54
  Q 345.07 349.32 343.63 342.39
  Q 340.52 327.46 339.50 324.25
  Q 338.38 320.73 338.31 318.30
  A 1.54 1.28 -31.1 0 1 338.62 317.41
  Q 341.03 314.24 341.44 313.44
  Q 343.04 310.33 344.88 308.21
  Q 347.80 304.85 348.19 303.96
  Q 349.26 301.53 349.50 298.25
  Q 350.04 290.94 349.77 285.53
  Q 349.57 281.48 347.83 277.92
  Q 344.89 271.93 340.39 266.87
  Q 334.77 260.54 326.06 258.19
  Q 320.60 256.71 315.35 256.67
  Q 309.71 256.62 304.66 257.50
  Q 296.09 259.00 289.65 264.91
  Q 287.56 266.83 284.84 270.54
  Q 282.65 273.54 280.56 276.60
  Q 278.52 279.60 278.51 283.25
  Q 278.50 285.70 278.16 288.11
  Q 277.82 290.60 278.03 292.92
  Q 278.25 295.33 278.50 299.50
  Q 278.66 302.20 280.18 304.82
  Q 280.33 305.07 283.22 308.31
  Q 285.00 310.30 286.53 313.67
  Q 287.18 315.10 288.52 315.92
  Q 289.86 316.74 289.66 318.64
  Q 289.49 320.17 289.48 320.37
  Q 289.37 322.32 288.66 324.11
  Q 287.65 326.61 287.44 327.67
  Q 282.94 350.24 281.25 357.00
  Q 274.85 382.57 271.38 408.70
  A 0.45 0.43 4.5 0 0 271.82 409.19
  L 308.95 409.51
  A 0.55 0.54 3.4 0 1 309.49 410.11
  Q 309.04 414.37 308.10 418.67
  Q 304.94 433.08 302.07 447.55
  Q 300.27 456.69 299.76 463.18
  Q 299.20 470.16 299.00 479.00
  Q 298.76 489.59 297.06 535.57
  Q 297.02 536.73 296.70 538.90
  Q 296.45 540.56 296.44 542.25
  Q 296.40 546.16 296.40 546.25
  Q 294.92 575.11 293.96 604.00"
/>
<path stroke="#dcdcdd" vector-effect="non-scaling-stroke" d="
  M 293.96 604.00
  Q 292.57 602.60 292.06 601.44
  Q 287.77 591.58 286.18 581.02
  Q 284.40 569.15 284.38 569.04
  Q 278.28 537.05 273.50 518.25
  Q 268.91 500.23 264.94 482.06
  Q 263.31 474.58 261.19 469.31
  Q 260.70 468.11 259.35 466.62
  A 1.76 1.58 21.6 0 1 258.92 465.76
  Q 257.89 459.61 254.50 450.25
  Q 251.24 441.25 246.39 421.12
  Q 245.35 416.81 242.90 409.59
  Q 241.13 404.35 239.50 398.00
  Q 233.98 376.43 231.24 358.21
  Q 224.41 312.76 217.94 267.26
  Q 214.96 246.30 212.54 225.28
  Q 212.33 223.49 211.60 220.29
  Q 211.03 217.80 210.80 215.25
  Q 209.79 204.26 205.70 194.03
  Q 205.66 193.94 205.53 193.33
  Q 205.38 192.65 204.54 192.75"
/>
<path stroke="#5e5e5e" vector-effect="non-scaling-stroke" d="
  M 320.46 728.75
  Q 321.87 723.02 323.69 717.41
  Q 324.68 714.32 327.13 709.97
  Q 330.85 703.34 332.44 696.94
  Q 333.64 692.08 334.67 688.60
  Q 336.35 682.95 336.72 680.26
  Q 337.90 671.75 336.91 663.21
  Q 336.30 657.91 336.39 654.25
  Q 336.99 628.91 333.79 603.75"
/>
<path stroke="#5e5e5e" vector-effect="non-scaling-stroke" d="
  M 293.96 604.00
  L 291.71 628.00"
/>
<path stroke="#8f908f" vector-effect="non-scaling-stroke" d="
  M 291.71 628.00
  Q 291.52 633.73 290.61 639.37
  Q 289.75 644.78 289.74 648.71
  Q 289.74 657.84 289.75 666.97
  Q 289.75 668.63 290.11 670.48
  Q 290.46 672.23 290.71 674.00"
/>
<path stroke="#5e5e5e" vector-effect="non-scaling-stroke" d="
  M 290.71 674.00
  Q 291.15 681.61 292.06 684.44
  Q 294.08 690.69 295.75 697.04
  Q 297.42 703.38 300.19 708.56
  Q 305.66 718.81 307.79 729.75"
/>
<path stroke="#333332" vector-effect="non-scaling-stroke" d="
  M 290.71 674.00
  Q 290.53 669.94 291.05 665.95
  Q 291.77 660.51 291.76 657.99
  Q 291.75 653.83 291.64 649.67
  Q 291.54 646.20 291.82 641.35
  Q 292.20 634.68 291.71 628.00"
/>
<path stroke="#808080" vector-effect="non-scaling-stroke" d="
  M 157.25 208.25
  Q 135.36 215.04 114.99 225.53
  Q 106.80 229.75 98.40 233.50
  Q 92.50 236.14 85.94 240.94
  Q 84.89 241.70 84.56 242.69
  A 1.11 0.87 -86.5 0 1 83.97 243.35
  Q 75.99 246.14 69.21 251.21
  Q 65.81 253.75 62.09 255.73
  Q 57.06 258.41 54.88 259.98
  Q 49.35 263.96 44.12 268.31
  Q 41.14 270.78 36.32 273.94
  Q 28.68 278.96 21.46 286.47
  Q 20.87 287.09 20.14 287.54
  Q 12.04 292.63 5.66 298.96
  A 1.07 1.06 -37.1 0 0 5.48 300.23
  Q 9.80 308.09 14.39 316.02
  Q 14.43 316.09 19.78 324.86
  Q 23.07 330.25 25.81 335.94
  Q 31.03 346.73 31.07 346.81
  Q 38.07 360.70 44.10 375.04
  Q 44.13 375.12 48.66 385.34
  Q 51.21 391.09 53.10 397.11
  Q 54.76 402.37 55.84 404.72
  Q 57.53 408.41 59.62 411.90
  Q 61.42 414.91 62.00 417.50
  Q 62.80 421.09 63.72 423.40
  Q 80.56 465.58 93.82 509.02
  Q 94.08 509.89 94.74 513.17
  Q 95.13 515.11 95.94 517.31
  Q 102.48 535.11 107.48 555.39
  Q 107.50 555.44 108.76 559.52
  Q 109.31 561.30 109.75 563.75
  Q 110.45 567.63 113.18 576.35
  Q 115.29 583.06 116.63 588.92
  Q 121.04 608.17 125.91 627.32
  Q 128.51 637.55 130.50 647.91
  Q 133.76 664.84 134.31 667.53
  Q 141.76 703.41 147.57 739.93
  A 0.98 0.98 -4.7 0 0 148.55 740.76
  Q 180.22 740.52 210.99 741.06
  Q 221.47 741.24 231.00 741.17
  Q 268.97 740.90 306.93 741.18
  Q 307.44 741.19 307.14 740.78
  Q 302.64 734.74 295.44 727.81
  Q 289.85 722.44 283.15 713.84
  Q 277.07 706.04 270.31 698.84
  Q 265.44 693.65 262.26 689.19
  Q 255.80 680.13 249.54 670.95
  Q 249.04 670.21 248.01 669.54
  Q 246.94 668.84 246.50 668.00
  Q 244.69 664.56 243.44 663.06
  Q 236.29 654.49 230.68 644.87
  Q 230.28 644.18 229.45 641.42
  Q 228.94 639.72 227.56 637.69
  Q 222.89 630.80 217.92 624.15
  Q 216.11 621.73 214.67 618.94
  Q 212.85 615.41 211.69 613.56
  Q 203.96 601.24 197.43 588.26
  Q 194.58 582.61 193.56 581.19
  Q 189.41 575.41 186.31 569.05
  Q 181.55 559.29 180.68 557.72
  Q 171.00 540.22 161.46 522.64
  Q 159.58 519.18 158.00 514.39
  Q 156.08 508.55 154.31 505.94
  Q 150.05 499.63 146.21 493.05
  Q 144.76 490.56 142.95 488.34
  Q 140.63 485.48 139.56 483.76
  Q 136.77 479.27 133.94 474.81
  Q 131.80 471.46 131.29 469.30
  Q 131.16 468.79 130.87 468.43
  Q 127.16 463.90 125.56 458.29
  Q 125.17 456.91 124.26 455.60
  Q 123.38 454.32 122.74 452.91
  Q 122.00 451.30 120.64 449.48
  Q 119.13 447.46 118.68 444.97
  Q 118.14 441.91 117.62 440.71
  Q 113.29 430.66 109.10 420.56
  Q 102.56 404.79 94.49 389.56
  A 1.37 1.36 58.3 0 1 94.90 387.82
  Q 99.56 384.48 104.08 380.31
  Q 123.86 362.03 145.46 345.98
  Q 151.26 341.68 155.88 337.81
  Q 160.91 333.61 166.08 329.34
  Q 167.32 328.32 165.76 327.94
  Q 161.55 326.91 157.36 325.08
  Q 148.21 321.08 138.48 319.10
  Q 132.16 317.81 132.04 317.79
  Q 112.18 313.38 92.25 309.29"
/>
<path stroke="#ececec" vector-effect="non-scaling-stroke" d="
  M 92.25 309.29
  Q 95.97 309.04 92.28 308.71
  Q 92.07 308.69 91.89 308.57
  Q 89.28 306.82 86.24 306.35
  Q 83.06 305.86 82.92 305.83
  Q 76.42 304.47 69.79 304.09
  Q 67.57 303.96 66.40 303.19
  Q 64.87 302.18 63.92 300.50
  Q 63.70 300.11 63.26 299.80
  Q 62.23 299.05 61.96 297.75"
/>
<path stroke="#808080" vector-effect="non-scaling-stroke" d="
  M 61.96 297.75
  Q 66.77 291.59 71.38 285.28
  Q 76.08 278.85 81.04 273.03
  Q 84.69 268.76 88.27 264.42
  Q 92.40 259.39 95.79 256.09
  Q 100.17 251.82 104.80 247.80
  Q 108.26 244.79 111.27 241.36
  Q 114.73 237.44 116.82 235.73
  Q 119.91 233.21 123.23 230.99
  Q 133.42 224.16 143.06 216.56
  Q 146.14 214.14 157.25 208.25"
/>
<path stroke="#dcdcdd" vector-effect="non-scaling-stroke" d="
  M 157.25 208.25
  L 161.89 206.12
  A 0.48 0.41 -22.2 0 0 162.16 205.60
  Q 162.05 205.28 161.60 205.54
  Q 159.40 206.86 157.25 208.25"
/>
<path stroke="#6d6e6e" vector-effect="non-scaling-stroke" d="
  M 61.96 297.75
  Q 59.21 301.43 57.46 305.62
  A 0.44 0.44 -78.2 0 0 57.85 306.22
  Q 75.45 306.98 92.25 309.29"
/>
<path stroke="#b1b2b1" vector-effect="non-scaling-stroke" d="
  M 233.4581 639.3682
  A 1.06 0.85 14.1 0 0 232.6371 638.2856
  A 1.06 0.85 14.1 0 0 231.4019 638.8518
  A 1.06 0.85 14.1 0 0 232.2229 639.9344
  A 1.06 0.85 14.1 0 0 233.4581 639.3682"
/>
<path stroke="#b1b2b1" vector-effect="non-scaling-stroke" d="
  M 396.5090 639.0760
  A 0.97 0.81 -2.6 0 0 395.5033 638.3108
  A 0.97 0.81 -2.6 0 0 394.5710 639.1640
  A 0.97 0.81 -2.6 0 0 395.5767 639.9292
  A 0.97 0.81 -2.6 0 0 396.5090 639.0760"
/>
<path stroke="#808080" vector-effect="non-scaling-stroke" d="
  M 250.70 169.31
  L 377.19 169.19
  A 0.51 0.50 -90.0 0 0 377.69 168.68
  Q 377.87 120.01 377.75 111.25
  Q 377.51 94.06 368.89 79.51
  Q 363.88 71.07 355.78 64.61
  Q 342.20 53.77 325.00 49.91
  Q 318.03 48.34 312.39 48.63
  Q 306.39 48.93 299.75 50.75
  Q 280.83 55.94 267.74 68.63
  Q 260.49 75.65 256.32 84.86
  Q 251.65 95.19 250.54 106.52
  Q 250.25 109.52 250.25 126.51
  Q 250.25 147.65 250.25 168.86
  A 0.45 0.45 45.0 0 0 250.70 169.31"
/>
<path stroke="#ececec" vector-effect="non-scaling-stroke" d="
  M 274.80 480.69
  Q 274.47 478.17 274.44 480.75
  Q 274.43 481.71 274.76 480.93
  Q 274.81 480.82 274.80 480.69"
/>
<path stroke="#bababb" vector-effect="non-scaling-stroke" d="
  M 257.7386 568.3890
  A 0.82 0.82 0.0 0 0 257.4758 567.2596
  L 249.7331 562.4402
  A 0.82 0.82 0.0 0 0 248.6037 562.7030
  L 248.5614 562.7710
  A 0.82 0.82 0.0 0 0 248.8242 563.9004
  L 256.5669 568.7198
  A 0.82 0.82 0.0 0 0 257.6963 568.4570
  L 257.7386 568.3890"
/>
<path stroke="#bababb" vector-effect="non-scaling-stroke" d="
  M 269.34 618.93
  Q 270.36 618.04 270.56 616.48
  Q 271.62 608.13 270.51 599.81
  A 1.63 1.23 -78.4 0 0 270.10 598.95
  Q 268.77 597.66 268.07 599.57
  Q 267.18 601.99 267.53 604.53
  Q 268.44 611.23 268.24 618.41
  Q 268.20 619.92 269.34 618.93"
/>
</g>
<path fill="#fefefe" d="
  M 0.00 0.00
  L 628.00 0.00
  L 628.00 748.00
  L 0.00 748.00
  L 0.00 0.00
  Z
  M 297.54 721.50
  Q 302.12 725.00 305.81 729.44
  Q 306.86 730.71 307.79 729.75
  Q 309.27 734.25 310.71 738.76
  Q 312.01 742.84 315.99 741.14
  A 1.15 1.11 -2.9 0 0 316.62 740.47
  L 320.46 728.75
  Q 321.33 730.36 322.61 728.85
  Q 325.83 725.04 329.75 721.96
  Q 341.70 709.59 351.26 695.31
  Q 353.59 691.82 357.94 686.19
  Q 366.38 675.24 374.23 662.13
  Q 378.37 655.21 383.39 647.76
  Q 392.95 633.60 400.45 618.22
  Q 402.23 614.56 404.94 610.85
  Q 411.73 601.57 417.31 590.06
  Q 419.41 585.74 423.26 579.48
  Q 424.59 577.32 425.75 574.71
  Q 426.85 572.23 428.08 569.82
  Q 429.11 567.80 431.58 562.51
  Q 434.22 556.84 438.12 551.88
  Q 440.72 548.57 441.06 547.31
  Q 441.43 545.97 443.50 542.00
  Q 447.63 534.08 452.03 526.29
  Q 459.40 513.22 464.09 498.98
  A 0.80 0.78 -83.9 0 1 464.74 498.44
  Q 469.19 497.98 474.92 498.67
  A 0.52 0.51 12.0 0 1 475.35 499.32
  Q 472.67 508.48 469.11 516.80
  Q 466.74 522.35 460.70 533.28
  Q 452.41 548.29 444.36 563.43
  Q 443.76 564.54 441.00 570.32
  Q 439.25 573.98 437.25 577.00
  Q 433.35 582.89 431.20 587.13
  Q 417.74 613.63 400.53 637.85
  Q 399.45 639.38 398.69 641.58
  Q 397.92 643.83 396.94 645.44
  Q 390.39 656.21 381.72 667.11
  Q 378.00 671.77 375.05 676.05
  Q 371.88 680.64 368.58 685.16
  Q 368.52 685.24 365.14 690.04
  Q 362.22 694.19 358.76 697.90
  Q 353.04 704.03 351.11 706.41
  Q 344.04 715.12 336.54 723.46
  Q 336.52 723.48 328.54 731.63
  Q 324.33 735.92 320.80 740.83
  Q 320.34 741.47 321.13 741.41
  Q 327.77 740.92 334.75 740.95
  Q 373.74 741.09 412.74 741.23
  Q 415.15 741.24 421.74 740.92
  Q 425.66 740.72 430.75 740.75
  Q 455.41 740.89 480.02 740.56
  A 0.43 0.42 -85.2 0 0 480.44 740.20
  Q 483.56 719.00 487.68 697.99
  Q 492.36 674.15 497.10 650.32
  Q 500.70 632.27 505.22 614.43
  Q 507.48 605.54 509.97 594.99
  Q 512.53 584.13 515.50 573.37
  Q 517.90 564.69 520.73 554.06
  Q 525.52 536.05 531.56 518.42
  Q 532.74 514.97 533.91 510.33
  Q 534.94 506.25 536.21 502.24
  Q 549.31 460.95 565.03 420.58
  Q 565.56 419.22 566.24 416.85
  Q 566.94 414.42 567.69 413.19
  Q 572.48 405.28 575.23 396.45
  Q 577.05 390.61 579.46 384.98
  Q 590.74 358.69 603.64 333.16
  Q 606.73 327.03 609.31 323.06
  Q 613.86 316.06 617.06 309.83
  Q 618.15 307.70 619.88 304.97
  Q 621.40 302.56 622.64 300.04
  A 0.69 0.68 36.1 0 0 622.51 299.26
  Q 616.76 293.39 609.98 288.82
  Q 607.05 286.84 604.71 284.38
  Q 601.47 280.97 599.44 279.56
  Q 583.11 268.27 576.50 262.50
  Q 572.62 259.12 568.88 257.22
  Q 564.75 255.12 564.71 255.10
  Q 561.37 253.11 557.50 250.25
  Q 552.27 246.38 545.28 243.70
  Q 545.20 243.67 544.19 243.45
  Q 543.30 243.26 543.19 242.31
  A 1.30 0.95 -80.1 0 0 542.79 241.50
  Q 536.25 236.31 530.19 233.56
  Q 518.49 228.26 514.07 225.92
  Q 503.19 220.15 491.64 215.86
  Q 490.77 215.53 488.16 214.16
  Q 486.55 213.30 484.50 212.75
  Q 478.87 211.23 471.39 208.44
  Q 470.47 208.10 470.97 208.60
  Q 471.06 208.68 471.19 208.75
  Q 481.84 213.75 485.69 217.06
  Q 488.90 219.83 490.74 220.83
  Q 490.98 220.97 491.41 221.51
  L 491.79 222.00
  Q 491.41 222.87 492.19 223.81
  Q 495.64 228.01 498.77 230.00
  Q 503.68 233.11 507.59 237.40
  Q 509.97 240.02 512.65 242.35
  Q 522.67 251.05 531.51 260.95
  Q 531.59 261.04 534.45 264.09
  Q 537.02 266.82 539.00 270.02
  Q 539.33 270.56 539.23 271.09
  A 1.24 0.66 -70.0 0 0 539.35 271.96
  L 561.71 301.27
  Q 563.36 303.43 560.69 303.69
  Q 550.23 304.67 540.56 306.31
  Q 539.42 306.51 536.73 308.39
  Q 536.29 308.70 536.81 308.72
  L 538.75 308.79
  Q 528.76 310.21 518.94 312.51
  Q 510.97 314.39 503.00 316.30
  Q 501.42 316.68 490.89 318.64
  Q 481.86 320.32 473.39 324.09
  Q 468.09 326.45 461.92 328.16
  Q 460.88 328.45 461.70 329.15
  Q 470.77 336.89 479.79 343.67
  Q 504.17 362.01 526.53 382.76
  Q 527.80 383.94 529.83 385.31
  Q 531.58 386.49 533.18 387.86
  A 0.79 0.78 28.0 0 1 533.44 388.68
  Q 532.94 390.49 531.31 393.81
  Q 528.47 399.60 525.53 405.34
  Q 522.49 411.26 520.17 417.05
  Q 514.74 430.61 509.12 444.10
  Q 509.09 444.19 508.47 445.92
  Q 507.85 447.66 506.61 449.01
  Q 506.01 449.66 506.90 449.59
  Q 510.57 449.32 513.75 448.52
  Q 522.15 446.40 530.65 444.73
  Q 535.28 443.82 539.92 444.56
  A 0.59 0.59 14.2 0 1 540.39 445.34
  L 523.75 493.25
  Q 522.88 495.75 522.00 495.75
  Q 491.26 495.79 460.53 495.46
  Q 458.19 495.43 456.97 494.30
  Q 455.61 493.04 454.68 491.00
  A 1.03 1.03 48.6 0 1 454.72 490.08
  Q 464.82 471.88 480.95 459.50
  Q 485.34 456.13 489.56 452.56
  Q 491.55 450.88 495.70 451.37
  A 0.70 0.68 15.9 0 0 496.41 450.99
  Q 496.94 449.88 497.23 448.68
  Q 497.75 446.60 498.02 445.88
  Q 507.89 420.09 519.45 394.36
  A 1.51 1.50 -59.6 0 0 518.98 392.54
  Q 508.98 384.94 499.69 377.06
  Q 488.40 367.50 467.99 352.17
  Q 467.93 352.12 452.90 340.38
  Q 444.89 334.12 436.04 328.40
  Q 435.62 328.12 436.09 327.92
  Q 456.10 319.61 476.00 312.25
  Q 482.47 309.86 490.93 307.87
  Q 499.87 305.77 505.91 304.04
  Q 516.14 301.11 521.00 300.50
  Q 533.30 298.96 545.51 296.83
  Q 546.00 296.75 545.64 296.39
  Q 539.70 290.45 535.13 283.40
  Q 534.13 281.85 531.44 279.06
  Q 525.61 273.01 519.75 267.00
  Q 518.32 265.54 517.83 264.05
  A 1.66 1.35 -86.6 0 0 517.28 263.28
  Q 515.70 262.12 514.54 260.59
  Q 513.17 258.79 511.99 257.84
  Q 508.60 255.13 504.44 250.81
  Q 495.74 241.79 484.28 232.37
  Q 482.11 230.58 475.98 225.91
  Q 471.80 222.71 467.72 219.38
  Q 461.06 213.93 455.14 209.90
  Q 444.58 202.71 434.23 195.24
  A 1.02 0.90 20.4 0 1 433.81 194.45
  L 434.56 169.97
  A 1.51 1.48 0.5 0 0 433.03 168.44
  L 423.18 168.58
  A 0.55 0.50 88.3 0 1 422.67 168.05
  Q 422.25 152.06 422.57 136.06
  Q 423.04 112.32 422.50 106.75
  Q 420.91 90.34 415.28 74.86
  Q 413.69 70.50 409.31 63.69
  Q 402.06 52.41 396.69 44.81
  Q 395.71 43.43 394.24 42.23
  Q 392.78 41.04 391.80 39.74
  Q 388.65 35.56 384.03 33.02
  Q 382.60 32.23 381.45 31.08
  Q 372.95 22.56 361.94 17.81
  Q 357.31 15.82 346.39 11.99
  Q 346.28 11.96 342.17 10.39
  Q 338.51 8.99 335.00 8.50
  Q 328.47 7.59 320.00 7.25
  Q 315.56 7.07 314.00 7.19
  Q 313.50 7.23 313.04 7.08
  Q 311.79 6.66 310.56 6.86
  Q 307.95 7.28 307.88 7.28
  Q 300.41 7.50 292.99 8.44
  Q 290.92 8.71 285.94 10.44
  Q 279.93 12.53 273.99 14.80
  Q 273.87 14.84 269.36 16.48
  Q 256.56 21.14 246.86 30.76
  Q 245.13 32.48 243.00 33.65
  Q 240.90 34.81 239.18 36.39
  Q 238.98 36.57 236.21 39.97
  Q 235.16 41.26 233.87 42.33
  Q 232.35 43.59 231.58 44.63
  Q 226.12 51.99 221.30 59.79
  Q 221.22 59.92 217.82 64.89
  Q 215.43 68.39 213.69 72.94
  Q 208.48 86.50 206.38 100.06
  Q 205.25 107.34 205.24 120.00
  Q 205.22 143.90 205.31 168.07
  A 0.51 0.49 -0.6 0 1 204.80 168.57
  L 194.36 168.51
  A 0.93 0.91 89.1 0 0 193.45 169.47
  L 194.29 193.38
  Q 194.35 195.05 192.96 196.00
  Q 181.82 203.59 170.96 211.22
  Q 166.19 214.58 159.04 220.38
  Q 153.19 225.13 147.10 229.56
  Q 144.95 231.11 140.56 235.06
  Q 126.63 247.59 118.44 255.92
  Q 118.06 256.29 116.23 257.69
  Q 115.23 258.45 114.19 259.69
  Q 107.58 267.54 97.15 278.73
  Q 94.48 281.60 90.58 286.88
  Q 86.73 292.09 82.10 296.65
  Q 81.75 297.00 82.25 297.06
  Q 102.34 299.66 108.81 300.94
  Q 118.52 302.86 141.00 308.99
  Q 149.70 311.36 164.31 316.94
  Q 178.06 322.18 191.73 327.63
  Q 192.19 327.81 191.79 328.10
  Q 173.51 341.46 155.68 355.43
  Q 132.01 373.97 108.47 393.11
  A 0.50 0.49 -31.8 0 0 108.33 393.69
  Q 117.02 413.92 125.74 434.35
  Q 125.75 434.38 126.60 437.11
  Q 127.24 439.18 129.19 441.06
  Q 130.39 442.22 130.69 444.50
  Q 130.76 445.02 131.05 445.40
  Q 135.10 450.82 137.06 455.44
  Q 138.94 459.85 140.39 462.88
  Q 141.58 465.37 144.79 469.69
  Q 148.73 475.02 151.43 481.14
  Q 153.95 486.87 159.06 491.69
  Q 160.34 492.89 160.94 494.96
  Q 161.08 495.44 161.41 495.81
  Q 164.35 499.12 165.89 504.66
  Q 166.09 505.39 166.37 506.09
  Q 172.11 520.45 179.99 533.93
  Q 182.48 538.19 184.81 542.55
  Q 184.84 542.60 186.63 546.41
  Q 188.34 550.04 191.81 554.44
  Q 194.48 557.81 197.53 564.73
  Q 201.19 573.02 205.72 580.85
  Q 208.18 585.09 212.50 594.00
  Q 216.62 602.49 224.93 613.32
  Q 225.67 614.28 227.81 618.94
  Q 232.18 628.43 240.40 641.15
  Q 240.82 641.79 243.48 646.36
  Q 245.01 649.00 246.96 651.36
  Q 249.46 654.37 250.74 656.73
  Q 257.65 669.45 266.30 681.03
  Q 271.15 687.53 275.52 694.02
  Q 283.24 705.49 291.81 714.94
  Q 296.19 719.76 297.54 721.50
  Z
  M 157.25 208.25
  Q 135.36 215.04 114.99 225.53
  Q 106.80 229.75 98.40 233.50
  Q 92.50 236.14 85.94 240.94
  Q 84.89 241.70 84.56 242.69
  A 1.11 0.87 -86.5 0 1 83.97 243.35
  Q 75.99 246.14 69.21 251.21
  Q 65.81 253.75 62.09 255.73
  Q 57.06 258.41 54.88 259.98
  Q 49.35 263.96 44.12 268.31
  Q 41.14 270.78 36.32 273.94
  Q 28.68 278.96 21.46 286.47
  Q 20.87 287.09 20.14 287.54
  Q 12.04 292.63 5.66 298.96
  A 1.07 1.06 -37.1 0 0 5.48 300.23
  Q 9.80 308.09 14.39 316.02
  Q 14.43 316.09 19.78 324.86
  Q 23.07 330.25 25.81 335.94
  Q 31.03 346.73 31.07 346.81
  Q 38.07 360.70 44.10 375.04
  Q 44.13 375.12 48.66 385.34
  Q 51.21 391.09 53.10 397.11
  Q 54.76 402.37 55.84 404.72
  Q 57.53 408.41 59.62 411.90
  Q 61.42 414.91 62.00 417.50
  Q 62.80 421.09 63.72 423.40
  Q 80.56 465.58 93.82 509.02
  Q 94.08 509.89 94.74 513.17
  Q 95.13 515.11 95.94 517.31
  Q 102.48 535.11 107.48 555.39
  Q 107.50 555.44 108.76 559.52
  Q 109.31 561.30 109.75 563.75
  Q 110.45 567.63 113.18 576.35
  Q 115.29 583.06 116.63 588.92
  Q 121.04 608.17 125.91 627.32
  Q 128.51 637.55 130.50 647.91
  Q 133.76 664.84 134.31 667.53
  Q 141.76 703.41 147.57 739.93
  A 0.98 0.98 -4.7 0 0 148.55 740.76
  Q 180.22 740.52 210.99 741.06
  Q 221.47 741.24 231.00 741.17
  Q 268.97 740.90 306.93 741.18
  Q 307.44 741.19 307.14 740.78
  Q 302.64 734.74 295.44 727.81
  Q 289.85 722.44 283.15 713.84
  Q 277.07 706.04 270.31 698.84
  Q 265.44 693.65 262.26 689.19
  Q 255.80 680.13 249.54 670.95
  Q 249.04 670.21 248.01 669.54
  Q 246.94 668.84 246.50 668.00
  Q 244.69 664.56 243.44 663.06
  Q 236.29 654.49 230.68 644.87
  Q 230.28 644.18 229.45 641.42
  Q 228.94 639.72 227.56 637.69
  Q 222.89 630.80 217.92 624.15
  Q 216.11 621.73 214.67 618.94
  Q 212.85 615.41 211.69 613.56
  Q 203.96 601.24 197.43 588.26
  Q 194.58 582.61 193.56 581.19
  Q 189.41 575.41 186.31 569.05
  Q 181.55 559.29 180.68 557.72
  Q 171.00 540.22 161.46 522.64
  Q 159.58 519.18 158.00 514.39
  Q 156.08 508.55 154.31 505.94
  Q 150.05 499.63 146.21 493.05
  Q 144.76 490.56 142.95 488.34
  Q 140.63 485.48 139.56 483.76
  Q 136.77 479.27 133.94 474.81
  Q 131.80 471.46 131.29 469.30
  Q 131.16 468.79 130.87 468.43
  Q 127.16 463.90 125.56 458.29
  Q 125.17 456.91 124.26 455.60
  Q 123.38 454.32 122.74 452.91
  Q 122.00 451.30 120.64 449.48
  Q 119.13 447.46 118.68 444.97
  Q 118.14 441.91 117.62 440.71
  Q 113.29 430.66 109.10 420.56
  Q 102.56 404.79 94.49 389.56
  A 1.37 1.36 58.3 0 1 94.90 387.82
  Q 99.56 384.48 104.08 380.31
  Q 123.86 362.03 145.46 345.98
  Q 151.26 341.68 155.88 337.81
  Q 160.91 333.61 166.08 329.34
  Q 167.32 328.32 165.76 327.94
  Q 161.55 326.91 157.36 325.08
  Q 148.21 321.08 138.48 319.10
  Q 132.16 317.81 132.04 317.79
  Q 112.18 313.38 92.25 309.29
  Q 95.97 309.04 92.28 308.71
  Q 92.07 308.69 91.89 308.57
  Q 89.28 306.82 86.24 306.35
  Q 83.06 305.86 82.92 305.83
  Q 76.42 304.47 69.79 304.09
  Q 67.57 303.96 66.40 303.19
  Q 64.87 302.18 63.92 300.50
  Q 63.70 300.11 63.26 299.80
  Q 62.23 299.05 61.96 297.75
  Q 66.77 291.59 71.38 285.28
  Q 76.08 278.85 81.04 273.03
  Q 84.69 268.76 88.27 264.42
  Q 92.40 259.39 95.79 256.09
  Q 100.17 251.82 104.80 247.80
  Q 108.26 244.79 111.27 241.36
  Q 114.73 237.44 116.82 235.73
  Q 119.91 233.21 123.23 230.99
  Q 133.42 224.16 143.06 216.56
  Q 146.14 214.14 157.25 208.25
  L 161.89 206.12
  A 0.48 0.41 -22.2 0 0 162.16 205.60
  Q 162.05 205.28 161.60 205.54
  Q 159.40 206.86 157.25 208.25
  Z
  M 233.4581 639.3682
  A 1.06 0.85 14.1 0 0 232.6371 638.2856
  A 1.06 0.85 14.1 0 0 231.4019 638.8518
  A 1.06 0.85 14.1 0 0 232.2229 639.9344
  A 1.06 0.85 14.1 0 0 233.4581 639.3682
  Z
  M 396.5090 639.0760
  A 0.97 0.81 -2.6 0 0 395.5033 638.3108
  A 0.97 0.81 -2.6 0 0 394.5710 639.1640
  A 0.97 0.81 -2.6 0 0 395.5767 639.9292
  A 0.97 0.81 -2.6 0 0 396.5090 639.0760
  Z"
/>
<path fill="#010101" d="
  M 538.75 308.79
  Q 554.41 306.81 570.16 306.19
  A 0.49 0.49 75.8 0 0 570.58 305.48
  Q 568.55 301.21 565.70 297.53
  Q 561.09 291.59 556.73 285.47
  Q 552.31 279.26 547.48 273.67
  Q 543.29 268.82 539.25 263.84
  Q 535.13 258.78 530.68 254.68
  Q 525.81 250.18 520.98 245.66
  Q 520.91 245.59 514.99 239.41
  Q 511.58 235.85 506.81 232.44
  Q 499.38 227.11 491.79 222.00
  L 491.41 221.51
  Q 490.98 220.97 490.74 220.83
  Q 488.90 219.83 485.69 217.06
  Q 481.84 213.75 471.19 208.75
  Q 471.06 208.68 470.97 208.60
  Q 470.47 208.10 471.39 208.44
  Q 478.87 211.23 484.50 212.75
  Q 486.55 213.30 488.16 214.16
  Q 490.77 215.53 491.64 215.86
  Q 503.19 220.15 514.07 225.92
  Q 518.49 228.26 530.19 233.56
  Q 536.25 236.31 542.79 241.50
  A 1.30 0.95 -80.1 0 1 543.19 242.31
  Q 543.30 243.26 544.19 243.45
  Q 545.20 243.67 545.28 243.70
  Q 552.27 246.38 557.50 250.25
  Q 561.37 253.11 564.71 255.10
  Q 564.75 255.12 568.88 257.22
  Q 572.62 259.12 576.50 262.50
  Q 583.11 268.27 599.44 279.56
  Q 601.47 280.97 604.71 284.38
  Q 607.05 286.84 609.98 288.82
  Q 616.76 293.39 622.51 299.26
  A 0.69 0.68 36.1 0 1 622.64 300.04
  Q 621.40 302.56 619.88 304.97
  Q 618.15 307.70 617.06 309.83
  Q 613.86 316.06 609.31 323.06
  Q 606.73 327.03 603.64 333.16
  Q 590.74 358.69 579.46 384.98
  Q 577.05 390.61 575.23 396.45
  Q 572.48 405.28 567.69 413.19
  Q 566.94 414.42 566.24 416.85
  Q 565.56 419.22 565.03 420.58
  Q 549.31 460.95 536.21 502.24
  Q 534.94 506.25 533.91 510.33
  Q 532.74 514.97 531.56 518.42
  Q 525.52 536.05 520.73 554.06
  Q 517.90 564.69 515.50 573.37
  Q 512.53 584.13 509.97 594.99
  Q 507.48 605.54 505.22 614.43
  Q 500.70 632.27 497.10 650.32
  Q 492.36 674.15 487.68 697.99
  Q 483.56 719.00 480.44 740.20
  A 0.43 0.42 -85.2 0 1 480.02 740.56
  Q 455.41 740.89 430.75 740.75
  Q 425.66 740.72 421.74 740.92
  Q 415.15 741.24 412.74 741.23
  Q 373.74 741.09 334.75 740.95
  Q 327.77 740.92 321.13 741.41
  Q 320.34 741.47 320.80 740.83
  Q 324.33 735.92 328.54 731.63
  Q 336.52 723.48 336.54 723.46
  Q 344.04 715.12 351.11 706.41
  Q 353.04 704.03 358.76 697.90
  Q 362.22 694.19 365.14 690.04
  Q 368.52 685.24 368.58 685.16
  Q 371.88 680.64 375.05 676.05
  Q 378.00 671.77 381.72 667.11
  Q 390.39 656.21 396.94 645.44
  Q 397.92 643.83 398.69 641.58
  Q 399.45 639.38 400.53 637.85
  Q 417.74 613.63 431.20 587.13
  Q 433.35 582.89 437.25 577.00
  Q 439.25 573.98 441.00 570.32
  Q 443.76 564.54 444.36 563.43
  Q 452.41 548.29 460.70 533.28
  Q 466.74 522.35 469.11 516.80
  Q 472.67 508.48 475.35 499.32
  A 0.52 0.51 12.0 0 0 474.92 498.67
  Q 469.19 497.98 464.74 498.44
  A 0.80 0.78 -83.9 0 0 464.09 498.98
  Q 459.40 513.22 452.03 526.29
  Q 447.63 534.08 443.50 542.00
  Q 441.43 545.97 441.06 547.31
  Q 440.72 548.57 438.12 551.88
  Q 434.22 556.84 431.58 562.51
  Q 429.11 567.80 428.08 569.82
  Q 426.85 572.23 425.75 574.71
  Q 424.59 577.32 423.26 579.48
  Q 419.41 585.74 417.31 590.06
  Q 411.73 601.57 404.94 610.85
  Q 402.23 614.56 400.45 618.22
  Q 392.95 633.60 383.39 647.76
  Q 378.37 655.21 374.23 662.13
  Q 366.38 675.24 357.94 686.19
  Q 353.59 691.82 351.26 695.31
  Q 341.70 709.59 329.75 721.96
  Q 331.38 718.88 332.86 715.74
  Q 334.41 712.46 336.00 709.51
  Q 340.70 700.77 344.37 691.55
  Q 348.60 680.95 349.53 678.69
  Q 352.18 672.28 354.52 665.75
  Q 355.57 662.81 357.82 658.72
  Q 360.49 653.87 362.03 648.55
  Q 363.60 643.09 363.63 643.00
  Q 372.34 615.70 378.19 592.69
  Q 380.02 585.49 381.55 580.15
  Q 383.94 571.82 384.94 567.62
  Q 388.79 551.32 392.53 535.00
  Q 394.63 525.82 396.33 515.38
  Q 401.00 486.76 406.56 458.30
  Q 408.85 446.58 410.08 438.63
  Q 415.71 402.22 417.75 370.75
  Q 421.57 311.89 422.00 301.00
  Q 422.88 278.55 423.71 189.50
  L 424.44 181.31
  A 0.50 0.46 2.1 0 0 423.94 180.81
  Q 343.59 180.72 312.50 180.50
  Q 310.72 180.49 309.49 180.57
  Q 307.32 180.73 306.51 180.70
  Q 294.88 180.35 283.25 180.51
  Q 266.46 180.75 263.24 180.75
  Q 233.62 180.75 203.98 180.75
  A 0.56 0.53 87.1 0 0 203.45 181.36
  L 204.54 192.75
  Q 204.20 197.73 204.25 200.25
  Q 205.07 240.50 205.61 280.75
  Q 205.94 306.03 207.69 331.25
  Q 208.96 349.62 210.19 367.99
  Q 212.45 401.96 217.47 435.61
  Q 218.66 443.62 220.92 455.31
  Q 226.67 485.15 231.64 515.13
  Q 233.45 526.05 235.39 534.77
  Q 240.10 555.86 245.48 576.78
  Q 245.98 578.72 247.27 582.64
  Q 248.22 585.56 248.93 588.55
  Q 250.95 597.17 250.98 597.26
  Q 257.69 622.02 265.44 646.48
  Q 265.57 646.90 266.41 650.45
  Q 266.91 652.58 267.94 654.31
  Q 271.99 661.16 274.44 668.09
  Q 275.99 672.45 276.00 672.50
  Q 285.39 697.43 297.67 721.07
  Q 297.87 721.44 297.54 721.50
  Q 296.19 719.76 291.81 714.94
  Q 283.24 705.49 275.52 694.02
  Q 271.15 687.53 266.30 681.03
  Q 257.65 669.45 250.74 656.73
  Q 249.46 654.37 246.96 651.36
  Q 245.01 649.00 243.48 646.36
  Q 240.82 641.79 240.40 641.15
  Q 232.18 628.43 227.81 618.94
  Q 225.67 614.28 224.93 613.32
  Q 216.62 602.49 212.50 594.00
  Q 208.18 585.09 205.72 580.85
  Q 201.19 573.02 197.53 564.73
  Q 194.48 557.81 191.81 554.44
  Q 188.34 550.04 186.63 546.41
  Q 184.84 542.60 184.81 542.55
  Q 182.48 538.19 179.99 533.93
  Q 172.11 520.45 166.37 506.09
  Q 166.09 505.39 165.89 504.66
  Q 164.35 499.12 161.41 495.81
  Q 161.08 495.44 160.94 494.96
  Q 160.34 492.89 159.06 491.69
  Q 153.95 486.87 151.43 481.14
  Q 148.73 475.02 144.79 469.69
  Q 141.58 465.37 140.39 462.88
  Q 138.94 459.85 137.06 455.44
  Q 135.10 450.82 131.05 445.40
  Q 130.76 445.02 130.69 444.50
  Q 130.39 442.22 129.19 441.06
  Q 127.24 439.18 126.60 437.11
  Q 125.75 434.38 125.74 434.35
  Q 117.02 413.92 108.33 393.69
  A 0.50 0.49 -31.8 0 1 108.47 393.11
  Q 132.01 373.97 155.68 355.43
  Q 173.51 341.46 191.79 328.10
  Q 192.19 327.81 191.73 327.63
  Q 178.06 322.18 164.31 316.94
  Q 149.70 311.36 141.00 308.99
  Q 118.52 302.86 108.81 300.94
  Q 102.34 299.66 82.25 297.06
  Q 81.75 297.00 82.10 296.65
  Q 86.73 292.09 90.58 286.88
  Q 94.48 281.60 97.15 278.73
  Q 107.58 267.54 114.19 259.69
  Q 115.23 258.45 116.23 257.69
  Q 118.06 256.29 118.44 255.92
  Q 126.63 247.59 140.56 235.06
  Q 144.95 231.11 147.10 229.56
  Q 153.19 225.13 159.04 220.38
  Q 166.19 214.58 170.96 211.22
  Q 181.82 203.59 192.96 196.00
  Q 194.35 195.05 194.29 193.38
  L 193.45 169.47
  A 0.93 0.91 89.1 0 1 194.36 168.51
  L 204.80 168.57
  A 0.51 0.49 -0.6 0 0 205.31 168.07
  Q 205.22 143.90 205.24 120.00
  Q 205.25 107.34 206.38 100.06
  Q 208.48 86.50 213.69 72.94
  Q 215.43 68.39 217.82 64.89
  Q 221.22 59.92 221.30 59.79
  Q 226.12 51.99 231.58 44.63
  Q 232.35 43.59 233.87 42.33
  Q 235.16 41.26 236.21 39.97
  Q 238.98 36.57 239.18 36.39
  Q 240.90 34.81 243.00 33.65
  Q 245.13 32.48 246.86 30.76
  Q 256.56 21.14 269.36 16.48
  Q 273.87 14.84 273.99 14.80
  Q 279.93 12.53 285.94 10.44
  Q 290.92 8.71 292.99 8.44
  Q 300.41 7.50 307.88 7.28
  Q 307.95 7.28 310.56 6.86
  Q 311.79 6.66 313.04 7.08
  Q 313.50 7.23 314.00 7.19
  Q 315.56 7.07 320.00 7.25
  Q 328.47 7.59 335.00 8.50
  Q 338.51 8.99 342.17 10.39
  Q 346.28 11.96 346.39 11.99
  Q 357.31 15.82 361.94 17.81
  Q 372.95 22.56 381.45 31.08
  Q 382.60 32.23 384.03 33.02
  Q 388.65 35.56 391.80 39.74
  Q 392.78 41.04 394.24 42.23
  Q 395.71 43.43 396.69 44.81
  Q 402.06 52.41 409.31 63.69
  Q 413.69 70.50 415.28 74.86
  Q 420.91 90.34 422.50 106.75
  Q 423.04 112.32 422.57 136.06
  Q 422.25 152.06 422.67 168.05
  A 0.55 0.50 88.3 0 0 423.18 168.58
  L 433.03 168.44
  A 1.51 1.48 0.5 0 1 434.56 169.97
  L 433.81 194.45
  A 1.02 0.90 20.4 0 0 434.23 195.24
  Q 444.58 202.71 455.14 209.90
  Q 461.06 213.93 467.72 219.38
  Q 471.80 222.71 475.98 225.91
  Q 482.11 230.58 484.28 232.37
  Q 495.74 241.79 504.44 250.81
  Q 508.60 255.13 511.99 257.84
  Q 513.17 258.79 514.54 260.59
  Q 515.70 262.12 517.28 263.28
  A 1.66 1.35 -86.6 0 1 517.83 264.05
  Q 518.32 265.54 519.75 267.00
  Q 525.61 273.01 531.44 279.06
  Q 534.13 281.85 535.13 283.40
  Q 539.70 290.45 545.64 296.39
  Q 546.00 296.75 545.51 296.83
  Q 533.30 298.96 521.00 300.50
  Q 516.14 301.11 505.91 304.04
  Q 499.87 305.77 490.93 307.87
  Q 482.47 309.86 476.00 312.25
  Q 456.10 319.61 436.09 327.92
  Q 435.62 328.12 436.04 328.40
  Q 444.89 334.12 452.90 340.38
  Q 467.93 352.12 467.99 352.17
  Q 488.40 367.50 499.69 377.06
  Q 508.98 384.94 518.98 392.54
  A 1.51 1.50 -59.6 0 1 519.45 394.36
  Q 507.89 420.09 498.02 445.88
  Q 497.75 446.60 497.23 448.68
  Q 496.94 449.88 496.41 450.99
  A 0.70 0.68 15.9 0 1 495.70 451.37
  Q 491.55 450.88 489.56 452.56
  Q 485.34 456.13 480.95 459.50
  Q 464.82 471.88 454.72 490.08
  A 1.03 1.03 47.4 0 0 454.68 491.00
  Q 455.61 493.04 456.97 494.30
  Q 458.19 495.43 460.53 495.46
  Q 491.26 495.79 522.00 495.75
  Q 522.88 495.75 523.75 493.25
  L 540.39 445.34
  A 0.59 0.59 14.2 0 0 539.92 444.56
  Q 535.28 443.82 530.65 444.73
  Q 522.15 446.40 513.75 448.52
  Q 510.57 449.32 506.90 449.59
  Q 506.01 449.66 506.61 449.01
  Q 507.85 447.66 508.47 445.92
  Q 509.09 444.19 509.12 444.10
  Q 514.74 430.61 520.17 417.05
  Q 522.49 411.26 525.53 405.34
  Q 528.47 399.60 531.31 393.81
  Q 532.94 390.49 533.44 388.68
  A 0.79 0.78 28.0 0 0 533.18 387.86
  Q 531.58 386.49 529.83 385.31
  Q 527.80 383.94 526.53 382.76
  Q 504.17 362.01 479.79 343.67
  Q 470.77 336.89 461.70 329.15
  Q 460.88 328.45 461.92 328.16
  Q 468.09 326.45 473.39 324.09
  Q 481.86 320.32 490.89 318.64
  Q 501.42 316.68 503.00 316.30
  Q 510.97 314.39 518.94 312.51
  Q 528.76 310.21 538.75 308.79
  Z
  M 250.70 169.31
  L 377.19 169.19
  A 0.51 0.50 -90.0 0 0 377.69 168.68
  Q 377.87 120.01 377.75 111.25
  Q 377.51 94.06 368.89 79.51
  Q 363.88 71.07 355.78 64.61
  Q 342.20 53.77 325.00 49.91
  Q 318.03 48.34 312.39 48.63
  Q 306.39 48.93 299.75 50.75
  Q 280.83 55.94 267.74 68.63
  Q 260.49 75.65 256.32 84.86
  Q 251.65 95.19 250.54 106.52
  Q 250.25 109.52 250.25 126.51
  Q 250.25 147.65 250.25 168.86
  A 0.45 0.45 45.0 0 0 250.70 169.31
  Z"
/>
<path fill="#fefefe" d="
  M 250.70 169.31
  A 0.45 0.45 45.0 0 1 250.25 168.86
  Q 250.25 147.65 250.25 126.51
  Q 250.25 109.52 250.54 106.52
  Q 251.65 95.19 256.32 84.86
  Q 260.49 75.65 267.74 68.63
  Q 280.83 55.94 299.75 50.75
  Q 306.39 48.93 312.39 48.63
  Q 318.03 48.34 325.00 49.91
  Q 342.20 53.77 355.78 64.61
  Q 363.88 71.07 368.89 79.51
  Q 377.51 94.06 377.75 111.25
  Q 377.87 120.01 377.69 168.68
  A 0.51 0.50 -90.0 0 1 377.19 169.19
  L 250.70 169.31
  Z"
/>
<path fill="#fefefe" d="
  M 423.71 189.50
  Q 423.31 191.81 422.69 193.19
  Q 418.97 201.44 417.76 210.32
  Q 416.30 220.94 416.27 221.12
  Q 415.51 226.00 414.50 234.00
  Q 408.64 280.63 396.25 362.75
  Q 393.69 379.72 386.68 404.73
  Q 386.64 404.85 385.91 407.79
  Q 385.21 410.56 384.19 412.19
  Q 382.81 414.37 382.53 416.49
  Q 382.04 420.04 381.93 420.43
  Q 379.65 428.19 377.73 436.05
  Q 377.03 438.89 376.21 441.53
  Q 375.36 444.25 374.54 446.96
  Q 374.39 447.46 371.75 455.03
  Q 369.97 460.10 369.25 465.50
  Q 369.11 466.58 367.71 467.75
  Q 367.30 468.09 367.13 468.54
  Q 365.04 474.16 363.00 482.75
  Q 357.63 505.41 352.26 528.07
  Q 352.07 528.89 351.31 530.71
  Q 350.76 532.03 350.58 533.45
  Q 350.14 536.95 350.12 537.01
  Q 344.64 562.68 340.20 588.55
  Q 338.93 595.95 334.94 602.94
  Q 334.50 603.70 333.79 603.75
  Q 333.59 584.34 332.25 560.25
  Q 330.34 526.00 329.18 485.01
  Q 329.18 484.92 329.06 476.12
  Q 328.85 460.22 325.51 444.65
  Q 322.68 431.44 319.82 418.23
  Q 318.92 414.03 318.51 409.83
  A 0.35 0.34 87.0 0 1 318.85 409.44
  L 355.79 409.26
  A 0.90 0.89 -4.4 0 0 356.68 408.23
  Q 353.05 383.77 347.67 360.54
  Q 345.07 349.32 343.63 342.39
  Q 340.52 327.46 339.50 324.25
  Q 338.38 320.73 338.31 318.30
  A 1.54 1.28 -31.1 0 1 338.62 317.41
  Q 341.03 314.24 341.44 313.44
  Q 343.04 310.33 344.88 308.21
  Q 347.80 304.85 348.19 303.96
  Q 349.26 301.53 349.50 298.25
  Q 350.04 290.94 349.77 285.53
  Q 349.57 281.48 347.83 277.92
  Q 344.89 271.93 340.39 266.87
  Q 334.77 260.54 326.06 258.19
  Q 320.60 256.71 315.35 256.67
  Q 309.71 256.62 304.66 257.50
  Q 296.09 259.00 289.65 264.91
  Q 287.56 266.83 284.84 270.54
  Q 282.65 273.54 280.56 276.60
  Q 278.52 279.60 278.51 283.25
  Q 278.50 285.70 278.16 288.11
  Q 277.82 290.60 278.03 292.92
  Q 278.25 295.33 278.50 299.50
  Q 278.66 302.20 280.18 304.82
  Q 280.33 305.07 283.22 308.31
  Q 285.00 310.30 286.53 313.67
  Q 287.18 315.10 288.52 315.92
  Q 289.86 316.74 289.66 318.64
  Q 289.49 320.17 289.48 320.37
  Q 289.37 322.32 288.66 324.11
  Q 287.65 326.61 287.44 327.67
  Q 282.94 350.24 281.25 357.00
  Q 274.85 382.57 271.38 408.70
  A 0.45 0.43 4.5 0 0 271.82 409.19
  L 308.95 409.51
  A 0.55 0.54 3.4 0 1 309.49 410.11
  Q 309.04 414.37 308.10 418.67
  Q 304.94 433.08 302.07 447.55
  Q 300.27 456.69 299.76 463.18
  Q 299.20 470.16 299.00 479.00
  Q 298.76 489.59 297.06 535.57
  Q 297.02 536.73 296.70 538.90
  Q 296.45 540.56 296.44 542.25
  Q 296.40 546.16 296.40 546.25
  Q 294.92 575.11 293.96 604.00
  Q 292.57 602.60 292.06 601.44
  Q 287.77 591.58 286.18 581.02
  Q 284.40 569.15 284.38 569.04
  Q 278.28 537.05 273.50 518.25
  Q 268.91 500.23 264.94 482.06
  Q 263.31 474.58 261.19 469.31
  Q 260.70 468.11 259.35 466.62
  A 1.76 1.58 21.6 0 1 258.92 465.76
  Q 257.89 459.61 254.50 450.25
  Q 251.24 441.25 246.39 421.12
  Q 245.35 416.81 242.90 409.59
  Q 241.13 404.35 239.50 398.00
  Q 233.98 376.43 231.24 358.21
  Q 224.41 312.76 217.94 267.26
  Q 214.96 246.30 212.54 225.28
  Q 212.33 223.49 211.60 220.29
  Q 211.03 217.80 210.80 215.25
  Q 209.79 204.26 205.70 194.03
  Q 205.66 193.94 205.53 193.33
  Q 205.38 192.65 204.54 192.75
  L 203.45 181.36
  A 0.56 0.53 87.1 0 1 203.98 180.75
  Q 233.62 180.75 263.24 180.75
  Q 266.46 180.75 283.25 180.51
  Q 294.88 180.35 306.51 180.70
  Q 307.32 180.73 309.49 180.57
  Q 310.72 180.49 312.50 180.50
  Q 343.59 180.72 423.94 180.81
  A 0.50 0.46 2.1 0 1 424.44 181.31
  L 423.71 189.50
  Z
  M 274.80 480.69
  Q 274.47 478.17 274.44 480.75
  Q 274.43 481.71 274.76 480.93
  Q 274.81 480.82 274.80 480.69
  Z"
/>
<path fill="#bababb" d="
  M 423.71 189.50
  Q 422.88 278.55 422.00 301.00
  Q 421.57 311.89 417.75 370.75
  Q 415.71 402.22 410.08 438.63
  Q 408.85 446.58 406.56 458.30
  Q 401.00 486.76 396.33 515.38
  Q 394.63 525.82 392.53 535.00
  Q 388.79 551.32 384.94 567.62
  Q 383.94 571.82 381.55 580.15
  Q 380.02 585.49 378.19 592.69
  Q 372.34 615.70 363.63 643.00
  Q 363.60 643.09 362.03 648.55
  Q 360.49 653.87 357.82 658.72
  Q 355.57 662.81 354.52 665.75
  Q 352.18 672.28 349.53 678.69
  Q 348.60 680.95 344.37 691.55
  Q 340.70 700.77 336.00 709.51
  Q 334.41 712.46 332.86 715.74
  Q 331.38 718.88 329.75 721.96
  Q 325.83 725.04 322.61 728.85
  Q 321.33 730.36 320.46 728.75
  Q 321.87 723.02 323.69 717.41
  Q 324.68 714.32 327.13 709.97
  Q 330.85 703.34 332.44 696.94
  Q 333.64 692.08 334.67 688.60
  Q 336.35 682.95 336.72 680.26
  Q 337.90 671.75 336.91 663.21
  Q 336.30 657.91 336.39 654.25
  Q 336.99 628.91 333.79 603.75
  Q 334.50 603.70 334.94 602.94
  Q 338.93 595.95 340.20 588.55
  Q 344.64 562.68 350.12 537.01
  Q 350.14 536.95 350.58 533.45
  Q 350.76 532.03 351.31 530.71
  Q 352.07 528.89 352.26 528.07
  Q 357.63 505.41 363.00 482.75
  Q 365.04 474.16 367.13 468.54
  Q 367.30 468.09 367.71 467.75
  Q 369.11 466.58 369.25 465.50
  Q 369.97 460.10 371.75 455.03
  Q 374.39 447.46 374.54 446.96
  Q 375.36 444.25 376.21 441.53
  Q 377.03 438.89 377.73 436.05
  Q 379.65 428.19 381.93 420.43
  Q 382.04 420.04 382.53 416.49
  Q 382.81 414.37 384.19 412.19
  Q 385.21 410.56 385.91 407.79
  Q 386.64 404.85 386.68 404.73
  Q 393.69 379.72 396.25 362.75
  Q 408.64 280.63 414.50 234.00
  Q 415.51 226.00 416.27 221.12
  Q 416.30 220.94 417.76 210.32
  Q 418.97 201.44 422.69 193.19
  Q 423.31 191.81 423.71 189.50
  Z"
/>
<path fill="#bababb" d="
  M 204.54 192.75
  Q 205.38 192.65 205.53 193.33
  Q 205.66 193.94 205.70 194.03
  Q 209.79 204.26 210.80 215.25
  Q 211.03 217.80 211.60 220.29
  Q 212.33 223.49 212.54 225.28
  Q 214.96 246.30 217.94 267.26
  Q 224.41 312.76 231.24 358.21
  Q 233.98 376.43 239.50 398.00
  Q 241.13 404.35 242.90 409.59
  Q 245.35 416.81 246.39 421.12
  Q 251.24 441.25 254.50 450.25
  Q 257.89 459.61 258.92 465.76
  A 1.76 1.58 21.6 0 0 259.35 466.62
  Q 260.70 468.11 261.19 469.31
  Q 263.31 474.58 264.94 482.06
  Q 268.91 500.23 273.50 518.25
  Q 278.28 537.05 284.38 569.04
  Q 284.40 569.15 286.18 581.02
  Q 287.77 591.58 292.06 601.44
  Q 292.57 602.60 293.96 604.00
  L 291.71 628.00
  Q 291.52 633.73 290.61 639.37
  Q 289.75 644.78 289.74 648.71
  Q 289.74 657.84 289.75 666.97
  Q 289.75 668.63 290.11 670.48
  Q 290.46 672.23 290.71 674.00
  Q 291.15 681.61 292.06 684.44
  Q 294.08 690.69 295.75 697.04
  Q 297.42 703.38 300.19 708.56
  Q 305.66 718.81 307.79 729.75
  Q 306.86 730.71 305.81 729.44
  Q 302.12 725.00 297.54 721.50
  Q 297.87 721.44 297.67 721.07
  Q 285.39 697.43 276.00 672.50
  Q 275.99 672.45 274.44 668.09
  Q 271.99 661.16 267.94 654.31
  Q 266.91 652.58 266.41 650.45
  Q 265.57 646.90 265.44 646.48
  Q 257.69 622.02 250.98 597.26
  Q 250.95 597.17 248.93 588.55
  Q 248.22 585.56 247.27 582.64
  Q 245.98 578.72 245.48 576.78
  Q 240.10 555.86 235.39 534.77
  Q 233.45 526.05 231.64 515.13
  Q 226.67 485.15 220.92 455.31
  Q 218.66 443.62 217.47 435.61
  Q 212.45 401.96 210.19 367.99
  Q 208.96 349.62 207.69 331.25
  Q 205.94 306.03 205.61 280.75
  Q 205.07 240.50 204.25 200.25
  Q 204.20 197.73 204.54 192.75
  Z
  M 257.7386 568.3890
  A 0.82 0.82 0.0 0 0 257.4758 567.2596
  L 249.7331 562.4402
  A 0.82 0.82 0.0 0 0 248.6037 562.7030
  L 248.5614 562.7710
  A 0.82 0.82 0.0 0 0 248.8242 563.9004
  L 256.5669 568.7198
  A 0.82 0.82 0.0 0 0 257.6963 568.4570
  L 257.7386 568.3890
  Z
  M 269.34 618.93
  Q 270.36 618.04 270.56 616.48
  Q 271.62 608.13 270.51 599.81
  A 1.63 1.23 -78.4 0 0 270.10 598.95
  Q 268.77 597.66 268.07 599.57
  Q 267.18 601.99 267.53 604.53
  Q 268.44 611.23 268.24 618.41
  Q 268.20 619.92 269.34 618.93
  Z"
/>
<path fill="#bababb" d="
  M 157.25 208.25
  Q 159.40 206.86 161.60 205.54
  Q 162.05 205.28 162.16 205.60
  A 0.48 0.41 -22.2 0 1 161.89 206.12
  L 157.25 208.25
  Z"
/>
<path fill="#010101" d="
  M 157.25 208.25
  Q 146.14 214.14 143.06 216.56
  Q 133.42 224.16 123.23 230.99
  Q 119.91 233.21 116.82 235.73
  Q 114.73 237.44 111.27 241.36
  Q 108.26 244.79 104.80 247.80
  Q 100.17 251.82 95.79 256.09
  Q 92.40 259.39 88.27 264.42
  Q 84.69 268.76 81.04 273.03
  Q 76.08 278.85 71.38 285.28
  Q 66.77 291.59 61.96 297.75
  Q 59.21 301.43 57.46 305.62
  A 0.44 0.44 -78.2 0 0 57.85 306.22
  Q 75.45 306.98 92.25 309.29
  Q 112.18 313.38 132.04 317.79
  Q 132.16 317.81 138.48 319.10
  Q 148.21 321.08 157.36 325.08
  Q 161.55 326.91 165.76 327.94
  Q 167.32 328.32 166.08 329.34
  Q 160.91 333.61 155.88 337.81
  Q 151.26 341.68 145.46 345.98
  Q 123.86 362.03 104.08 380.31
  Q 99.56 384.48 94.90 387.82
  A 1.37 1.36 58.3 0 0 94.49 389.56
  Q 102.56 404.79 109.10 420.56
  Q 113.29 430.66 117.62 440.71
  Q 118.14 441.91 118.68 444.97
  Q 119.13 447.46 120.64 449.48
  Q 122.00 451.30 122.74 452.91
  Q 123.38 454.32 124.26 455.60
  Q 125.17 456.91 125.56 458.29
  Q 127.16 463.90 130.87 468.43
  Q 131.16 468.79 131.29 469.30
  Q 131.80 471.46 133.94 474.81
  Q 136.77 479.27 139.56 483.76
  Q 140.63 485.48 142.95 488.34
  Q 144.76 490.56 146.21 493.05
  Q 150.05 499.63 154.31 505.94
  Q 156.08 508.55 158.00 514.39
  Q 159.58 519.18 161.46 522.64
  Q 171.00 540.22 180.68 557.72
  Q 181.55 559.29 186.31 569.05
  Q 189.41 575.41 193.56 581.19
  Q 194.58 582.61 197.43 588.26
  Q 203.96 601.24 211.69 613.56
  Q 212.85 615.41 214.67 618.94
  Q 216.11 621.73 217.92 624.15
  Q 222.89 630.80 227.56 637.69
  Q 228.94 639.72 229.45 641.42
  Q 230.28 644.18 230.68 644.87
  Q 236.29 654.49 243.44 663.06
  Q 244.69 664.56 246.50 668.00
  Q 246.94 668.84 248.01 669.54
  Q 249.04 670.21 249.54 670.95
  Q 255.80 680.13 262.26 689.19
  Q 265.44 693.65 270.31 698.84
  Q 277.07 706.04 283.15 713.84
  Q 289.85 722.44 295.44 727.81
  Q 302.64 734.74 307.14 740.78
  Q 307.44 741.19 306.93 741.18
  Q 268.97 740.90 231.00 741.17
  Q 221.47 741.24 210.99 741.06
  Q 180.22 740.52 148.55 740.76
  A 0.98 0.98 -4.7 0 1 147.57 739.93
  Q 141.76 703.41 134.31 667.53
  Q 133.76 664.84 130.50 647.91
  Q 128.51 637.55 125.91 627.32
  Q 121.04 608.17 116.63 588.92
  Q 115.29 583.06 113.18 576.35
  Q 110.45 567.63 109.75 563.75
  Q 109.31 561.30 108.76 559.52
  Q 107.50 555.44 107.48 555.39
  Q 102.48 535.11 95.94 517.31
  Q 95.13 515.11 94.74 513.17
  Q 94.08 509.89 93.82 509.02
  Q 80.56 465.58 63.72 423.40
  Q 62.80 421.09 62.00 417.50
  Q 61.42 414.91 59.62 411.90
  Q 57.53 408.41 55.84 404.72
  Q 54.76 402.37 53.10 397.11
  Q 51.21 391.09 48.66 385.34
  Q 44.13 375.12 44.10 375.04
  Q 38.07 360.70 31.07 346.81
  Q 31.03 346.73 25.81 335.94
  Q 23.07 330.25 19.78 324.86
  Q 14.43 316.09 14.39 316.02
  Q 9.80 308.09 5.48 300.23
  A 1.07 1.06 -37.1 0 1 5.66 298.96
  Q 12.04 292.63 20.14 287.54
  Q 20.87 287.09 21.46 286.47
  Q 28.68 278.96 36.32 273.94
  Q 41.14 270.78 44.12 268.31
  Q 49.35 263.96 54.88 259.98
  Q 57.06 258.41 62.09 255.73
  Q 65.81 253.75 69.21 251.21
  Q 75.99 246.14 83.97 243.35
  A 1.11 0.87 -86.5 0 0 84.56 242.69
  Q 84.89 241.70 85.94 240.94
  Q 92.50 236.14 98.40 233.50
  Q 106.80 229.75 114.99 225.53
  Q 135.36 215.04 157.25 208.25
  Z"
/>
<path fill="#d9dada" d="
  M 491.79 222.00
  Q 499.38 227.11 506.81 232.44
  Q 511.58 235.85 514.99 239.41
  Q 520.91 245.59 520.98 245.66
  Q 525.81 250.18 530.68 254.68
  Q 535.13 258.78 539.25 263.84
  Q 543.29 268.82 547.48 273.67
  Q 552.31 279.26 556.73 285.47
  Q 561.09 291.59 565.70 297.53
  Q 568.55 301.21 570.58 305.48
  A 0.49 0.49 75.8 0 1 570.16 306.19
  Q 554.41 306.81 538.75 308.79
  L 536.81 308.72
  Q 536.29 308.70 536.73 308.39
  Q 539.42 306.51 540.56 306.31
  Q 550.23 304.67 560.69 303.69
  Q 563.36 303.43 561.71 301.27
  L 539.35 271.96
  A 1.24 0.66 -70.0 0 1 539.23 271.09
  Q 539.33 270.56 539.00 270.02
  Q 537.02 266.82 534.45 264.09
  Q 531.59 261.04 531.51 260.95
  Q 522.67 251.05 512.65 242.35
  Q 509.97 240.02 507.59 237.40
  Q 503.68 233.11 498.77 230.00
  Q 495.64 228.01 492.19 223.81
  Q 491.41 222.87 491.79 222.00
  Z"
/>
<path fill="#010101" d="
  M 333.79 603.75
  Q 336.99 628.91 336.39 654.25
  Q 336.30 657.91 336.91 663.21
  Q 337.90 671.75 336.72 680.26
  Q 336.35 682.95 334.67 688.60
  Q 333.64 692.08 332.44 696.94
  Q 330.85 703.34 327.13 709.97
  Q 324.68 714.32 323.69 717.41
  Q 321.87 723.02 320.46 728.75
  L 316.62 740.47
  A 1.15 1.11 -2.9 0 1 315.99 741.14
  Q 312.01 742.84 310.71 738.76
  Q 309.27 734.25 307.79 729.75
  Q 305.66 718.81 300.19 708.56
  Q 297.42 703.38 295.75 697.04
  Q 294.08 690.69 292.06 684.44
  Q 291.15 681.61 290.71 674.00
  Q 290.53 669.94 291.05 665.95
  Q 291.77 660.51 291.76 657.99
  Q 291.75 653.83 291.64 649.67
  Q 291.54 646.20 291.82 641.35
  Q 292.20 634.68 291.71 628.00
  L 293.96 604.00
  Q 294.92 575.11 296.40 546.25
  Q 296.40 546.16 296.44 542.25
  Q 296.45 540.56 296.70 538.90
  Q 297.02 536.73 297.06 535.57
  Q 298.76 489.59 299.00 479.00
  Q 299.20 470.16 299.76 463.18
  Q 300.27 456.69 302.07 447.55
  Q 304.94 433.08 308.10 418.67
  Q 309.04 414.37 309.49 410.11
  A 0.55 0.54 3.4 0 0 308.95 409.51
  L 271.82 409.19
  A 0.45 0.43 4.5 0 1 271.38 408.70
  Q 274.85 382.57 281.25 357.00
  Q 282.94 350.24 287.44 327.67
  Q 287.65 326.61 288.66 324.11
  Q 289.37 322.32 289.48 320.37
  Q 289.49 320.17 289.66 318.64
  Q 289.86 316.74 288.52 315.92
  Q 287.18 315.10 286.53 313.67
  Q 285.00 310.30 283.22 308.31
  Q 280.33 305.07 280.18 304.82
  Q 278.66 302.20 278.50 299.50
  Q 278.25 295.33 278.03 292.92
  Q 277.82 290.60 278.16 288.11
  Q 278.50 285.70 278.51 283.25
  Q 278.52 279.60 280.56 276.60
  Q 282.65 273.54 284.84 270.54
  Q 287.56 266.83 289.65 264.91
  Q 296.09 259.00 304.66 257.50
  Q 309.71 256.62 315.35 256.67
  Q 320.60 256.71 326.06 258.19
  Q 334.77 260.54 340.39 266.87
  Q 344.89 271.93 347.83 277.92
  Q 349.57 281.48 349.77 285.53
  Q 350.04 290.94 349.50 298.25
  Q 349.26 301.53 348.19 303.96
  Q 347.80 304.85 344.88 308.21
  Q 343.04 310.33 341.44 313.44
  Q 341.03 314.24 338.62 317.41
  A 1.54 1.28 -31.1 0 0 338.31 318.30
  Q 338.38 320.73 339.50 324.25
  Q 340.52 327.46 343.63 342.39
  Q 345.07 349.32 347.67 360.54
  Q 353.05 383.77 356.68 408.23
  A 0.90 0.89 -4.4 0 1 355.79 409.26
  L 318.85 409.44
  A 0.35 0.34 87.0 0 0 318.51 409.83
  Q 318.92 414.03 319.82 418.23
  Q 322.68 431.44 325.51 444.65
  Q 328.85 460.22 329.06 476.12
  Q 329.18 484.92 329.18 485.01
  Q 330.34 526.00 332.25 560.25
  Q 333.59 584.34 333.79 603.75
  Z"
/>
<path fill="#d9dada" d="
  M 61.96 297.75
  Q 62.23 299.05 63.26 299.80
  Q 63.70 300.11 63.92 300.50
  Q 64.87 302.18 66.40 303.19
  Q 67.57 303.96 69.79 304.09
  Q 76.42 304.47 82.92 305.83
  Q 83.06 305.86 86.24 306.35
  Q 89.28 306.82 91.89 308.57
  Q 92.07 308.69 92.28 308.71
  Q 95.97 309.04 92.25 309.29
  Q 75.45 306.98 57.85 306.22
  A 0.44 0.44 -78.2 0 1 57.46 305.62
  Q 59.21 301.43 61.96 297.75
  Z"
/>
<path fill="#d9dada" d="
  M 274.76 480.93
  Q 274.43 481.71 274.44 480.75
  Q 274.47 478.17 274.80 480.69
  Q 274.81 480.82 274.76 480.93
  Z"
/>
<path fill="#bababb" d="
  M 257.6963 568.4570
  A 0.82 0.82 0.0 0 1 256.5669 568.7198
  L 248.8242 563.9004
  A 0.82 0.82 0.0 0 1 248.5614 562.7710
  L 248.6037 562.7030
  A 0.82 0.82 0.0 0 1 249.7331 562.4402
  L 257.4758 567.2596
  A 0.82 0.82 0.0 0 1 257.7386 568.3890
  L 257.6963 568.4570
  Z"
/>
<path fill="#bababb" d="
  M 269.34 618.93
  Q 268.20 619.92 268.24 618.41
  Q 268.44 611.23 267.53 604.53
  Q 267.18 601.99 268.07 599.57
  Q 268.77 597.66 270.10 598.95
  A 1.63 1.23 -78.4 0 1 270.51 599.81
  Q 271.62 608.13 270.56 616.48
  Q 270.36 618.04 269.34 618.93
  Z"
/>
<path fill="#646563" d="
  M 291.71 628.00
  Q 292.20 634.68 291.82 641.35
  Q 291.54 646.20 291.64 649.67
  Q 291.75 653.83 291.76 657.99
  Q 291.77 660.51 291.05 665.95
  Q 290.53 669.94 290.71 674.00
  Q 290.46 672.23 290.11 670.48
  Q 289.75 668.63 289.75 666.97
  Q 289.74 657.84 289.74 648.71
  Q 289.75 644.78 290.61 639.37
  Q 291.52 633.73 291.71 628.00
  Z"
/>
<path fill="#646563" d="
  M 233.4581 639.3682
  A 1.06 0.85 14.1 0 1 232.2229 639.9344
  A 1.06 0.85 14.1 0 1 231.4019 638.8518
  A 1.06 0.85 14.1 0 1 232.6371 638.2856
  A 1.06 0.85 14.1 0 1 233.4581 639.3682
  Z"
/>
<path fill="#646563" d="
  M 396.5090 639.0760
  A 0.97 0.81 -2.6 0 1 395.5767 639.9292
  A 0.97 0.81 -2.6 0 1 394.5710 639.1640
  A 0.97 0.81 -2.6 0 1 395.5033 638.3108
  A 0.97 0.81 -2.6 0 1 396.5090 639.0760
  Z"
/>
</svg>
