<?xml version="1.0" encoding="UTF-8" standalone="no"?>
<!DOCTYPE svg PUBLIC "-//W3C//DTD SVG 1.1//EN" "http://www.w3.org/Graphics/SVG/1.1/DTD/svg11.dtd">
<svg xmlns="http://www.w3.org/2000/svg" version="1.1" viewBox="0 0 628 965">
<g stroke-width="2.00" fill="none" stroke-linecap="butt">
<path stroke="#ffffff" vector-effect="non-scaling-stroke" d="
  M 628.00 297.06
  L 627.62 295.48
  Q 627.50 294.98 627.49 295.50
  Q 627.09 315.87 627.01 336.25
  Q 626.99 339.91 628.00 337.31"
/>
<path stroke="#dddddd" vector-effect="non-scaling-stroke" d="
  M 298.00 721.71
  Q 302.34 725.38 306.11 729.65
  Q 307.09 730.76 307.79 729.75"
/>
<path stroke="#808080" vector-effect="non-scaling-stroke" d="
  M 307.79 729.75
  Q 309.91 736.99 311.25 739.75
  Q 312.71 742.77 315.99 741.17
  A 1.25 1.22 87.2 0 0 316.61 740.47
  L 320.21 730.00"
/>
<path stroke="#dddddd" vector-effect="non-scaling-stroke" d="
  M 320.21 730.00
  Q 321.24 730.03 321.98 729.23
  Q 325.63 725.33 329.75 721.96"
/>
<path stroke="#808080" vector-effect="non-scaling-stroke" d="
  M 329.75 721.96
  Q 341.70 709.59 351.26 695.31
  Q 353.59 691.82 357.94 686.19
  Q 366.38 675.24 374.23 662.13
  Q 378.37 655.21 383.39 647.76
  Q 392.95 633.60 400.45 618.22
  Q 402.23 614.56 404.94 610.85
  Q 411.73 601.57 417.31 590.06
  Q 419.41 585.74 423.26 579.48
  Q 424.59 577.32 425.75 574.71
  Q 426.85 572.23 428.08 569.82
  Q 429.11 567.80 431.58 562.51
  Q 434.22 556.84 438.12 551.88
  Q 440.72 548.57 441.06 547.31
  Q 441.43 545.97 443.50 542.00
  Q 447.63 534.08 452.03 526.29
  Q 459.40 513.22 464.09 498.98
  A 0.80 0.78 -83.9 0 1 464.74 498.44
  Q 469.19 497.98 474.92 498.67
  A 0.52 0.51 12.0 0 1 475.35 499.32
  Q 472.67 508.48 469.11 516.80
  Q 466.74 522.35 460.70 533.28
  Q 452.41 548.29 444.36 563.43
  Q 443.76 564.54 441.00 570.32
  Q 439.25 573.98 437.25 577.00
  Q 433.35 582.89 431.20 587.13
  Q 417.74 613.63 400.53 637.85
  Q 399.45 639.38 398.69 641.58
  Q 397.92 643.83 396.94 645.44
  Q 390.39 656.21 381.72 667.11
  Q 378.00 671.77 375.05 676.05
  Q 371.88 680.64 368.58 685.16
  Q 368.48 685.29 365.15 690.03
  Q 362.36 694.00 359.08 697.56
  Q 351.32 705.96 350.92 706.43
  Q 346.01 712.29 341.15 718.18
  Q 335.91 724.53 328.31 731.81
  Q 324.37 735.59 321.02 740.82
  Q 320.75 741.25 321.25 741.24
  Q 346.88 740.79 372.51 741.10
  Q 383.70 741.24 392.49 741.16
  Q 436.09 740.78 479.70 740.69
  A 0.59 0.57 -85.3 0 0 480.27 740.19
  Q 487.23 698.24 495.92 656.62
  Q 495.93 656.59 497.96 646.35
  Q 500.00 636.03 504.25 618.75
  Q 516.03 570.87 522.19 548.94
  Q 526.14 534.85 529.61 524.38
  Q 532.33 516.14 534.67 507.82
  Q 536.90 499.90 539.75 491.25
  Q 551.69 455.02 564.49 421.96
  Q 565.17 420.21 565.86 418.00
  Q 566.86 414.82 567.31 414.06
  Q 571.29 407.35 573.95 400.06
  Q 578.08 388.74 578.09 388.71
  Q 588.73 362.81 601.37 337.82
  Q 605.20 330.23 611.02 320.33
  Q 616.67 310.71 622.37 300.78
  A 1.76 1.75 36.1 0 0 622.03 298.61
  Q 615.38 292.54 608.46 287.80
  Q 606.45 286.42 604.25 284.00
  Q 601.21 280.64 596.69 277.55
  Q 584.90 269.48 573.89 260.37
  Q 571.64 258.51 568.97 257.32
  Q 563.77 254.98 559.23 251.53
  Q 552.92 246.73 545.57 243.81
  Q 545.49 243.78 544.27 243.52
  Q 543.35 243.33 543.21 242.32
  A 1.39 0.98 -82.1 0 0 542.79 241.50
  Q 535.20 235.55 530.75 233.75
  Q 524.67 231.29 511.50 224.50
  Q 502.78 220.00 483.75 212.50
  Q 481.71 211.70 471.30 208.58
  Q 470.82 208.44 471.26 208.65
  Q 482.39 214.00 491.79 222.00"
/>
<path stroke="#eceded" vector-effect="non-scaling-stroke" d="
  M 491.79 222.00
  Q 491.41 222.87 492.19 223.81
  Q 495.64 228.01 498.77 230.00
  Q 503.68 233.11 507.59 237.40
  Q 509.97 240.02 512.65 242.35
  Q 522.67 251.05 531.51 260.95
  Q 531.59 261.04 534.45 264.09
  Q 537.02 266.82 539.00 270.02
  Q 539.33 270.56 539.23 271.09
  A 1.24 0.66 -70.0 0 0 539.35 271.96
  L 561.71 301.27
  Q 563.36 303.43 560.69 303.69
  Q 550.23 304.67 540.56 306.31
  Q 539.42 306.51 536.73 308.39
  Q 536.29 308.70 536.81 308.72
  L 538.75 308.79"
/>
<path stroke="#808080" vector-effect="non-scaling-stroke" d="
  M 538.75 308.79
  Q 528.76 310.21 518.94 312.51
  Q 510.97 314.39 503.00 316.30
  Q 501.42 316.68 490.89 318.64
  Q 481.86 320.32 473.39 324.09
  Q 468.09 326.45 461.92 328.16
  Q 460.88 328.45 461.70 329.15
  Q 470.77 336.89 479.79 343.67
  Q 504.17 362.01 526.53 382.76
  Q 527.80 383.94 529.83 385.31
  Q 531.58 386.49 533.18 387.86
  A 0.79 0.78 28.0 0 1 533.44 388.68
  Q 532.94 390.49 531.31 393.81
  Q 528.47 399.60 525.53 405.34
  Q 522.49 411.26 520.17 417.05
  Q 514.74 430.61 509.12 444.10
  Q 509.09 444.19 508.47 445.92
  Q 507.85 447.66 506.61 449.01
  Q 506.01 449.66 506.90 449.59
  Q 510.57 449.32 513.75 448.52
  Q 522.15 446.40 530.65 444.73
  Q 535.28 443.82 539.92 444.56
  A 0.59 0.59 14.2 0 1 540.39 445.34
  L 523.75 493.25
  Q 522.88 495.75 522.00 495.75
  Q 491.26 495.79 460.53 495.46
  Q 458.19 495.43 456.97 494.30
  Q 455.61 493.04 454.68 491.00
  A 1.03 1.03 48.6 0 1 454.72 490.08
  Q 464.82 471.88 480.95 459.50
  Q 485.34 456.13 489.56 452.56
  Q 491.55 450.88 495.70 451.37
  A 0.70 0.68 15.9 0 0 496.41 450.99
  Q 496.94 449.88 497.23 448.68
  Q 497.75 446.60 498.02 445.88
  Q 507.89 420.09 519.45 394.36
  A 1.51 1.50 -59.6 0 0 518.98 392.54
  Q 508.98 384.94 499.69 377.06
  Q 488.40 367.50 467.99 352.17
  Q 467.93 352.12 452.90 340.38
  Q 444.89 334.12 436.04 328.40
  Q 435.62 328.12 436.09 327.92
  Q 456.10 319.61 476.00 312.25
  Q 482.47 309.86 490.93 307.87
  Q 499.87 305.77 505.91 304.04
  Q 516.14 301.11 521.00 300.50
  Q 533.30 298.96 545.51 296.83
  Q 546.00 296.75 545.64 296.39
  Q 539.70 290.45 535.13 283.40
  Q 534.13 281.85 531.44 279.06
  Q 525.61 273.01 519.75 267.00
  Q 518.32 265.54 517.83 264.05
  A 1.66 1.35 -86.6 0 0 517.28 263.28
  Q 515.70 262.12 514.54 260.59
  Q 513.17 258.79 511.99 257.84
  Q 508.60 255.13 504.44 250.81
  Q 495.74 241.79 484.28 232.37
  Q 482.11 230.58 475.98 225.91
  Q 471.80 222.71 467.72 219.38
  Q 461.06 213.93 455.14 209.90
  Q 444.58 202.71 434.23 195.24
  A 1.02 0.90 20.4 0 1 433.81 194.45
  L 434.56 169.97
  A 1.51 1.48 0.5 0 0 433.03 168.44
  L 423.18 168.58
  A 0.54 0.50 88.3 0 1 422.67 168.06
  Q 422.29 152.87 422.50 143.00
  Q 422.80 128.48 422.69 116.50
  Q 422.57 104.73 421.12 96.61
  Q 419.14 85.52 415.28 74.86
  Q 413.69 70.50 409.31 63.69
  Q 403.17 54.14 396.64 44.85
  Q 395.63 43.42 394.31 42.31
  Q 392.81 41.06 391.94 39.93
  Q 389.00 36.11 384.99 33.49
  Q 381.91 31.48 380.10 29.77
  Q 372.64 22.72 365.25 19.25
  Q 356.47 15.13 342.84 10.73
  Q 336.18 8.58 329.91 7.95
  Q 313.03 6.24 296.14 8.07
  Q 291.06 8.63 285.61 10.51
  Q 269.44 16.11 263.06 19.06
  Q 255.31 22.66 247.54 30.10
  Q 245.81 31.76 242.86 33.64
  Q 239.08 36.05 236.30 39.60
  Q 235.06 41.19 233.42 42.65
  Q 231.74 44.15 230.56 45.81
  Q 228.47 48.77 217.61 65.13
  Q 215.07 68.94 212.44 76.44
  Q 206.17 94.25 205.30 111.50
  Q 205.25 112.49 205.25 131.50
  Q 205.25 149.59 205.25 167.99
  A 0.51 0.51 -0.0 0 1 204.74 168.50
  L 194.39 168.50
  A 0.94 0.94 88.8 0 0 193.45 169.48
  L 194.29 193.38
  Q 194.35 195.05 192.96 196.00
  Q 181.82 203.59 170.96 211.22
  Q 166.19 214.58 159.04 220.38
  Q 153.19 225.13 147.10 229.56
  Q 144.95 231.11 140.56 235.06
  Q 126.63 247.59 118.44 255.92
  Q 118.06 256.29 116.23 257.69
  Q 115.23 258.45 114.19 259.69
  Q 107.54 267.59 97.02 278.87
  Q 94.48 281.60 90.71 286.73
  Q 86.80 292.07 82.02 296.61
  Q 81.77 296.85 82.12 296.90
  Q 91.03 298.30 99.69 299.53
  Q 109.13 300.87 117.14 302.86
  Q 129.10 305.82 140.99 309.02
  Q 149.70 311.36 164.31 316.94
  Q 178.06 322.18 191.73 327.63
  Q 192.19 327.81 191.79 328.10
  Q 173.51 341.46 155.68 355.43
  Q 132.01 373.97 108.47 393.11
  A 0.50 0.49 -31.8 0 0 108.33 393.69
  Q 117.07 414.05 125.85 434.60
  Q 126.16 435.34 126.46 436.86
  Q 126.73 438.27 127.44 439.06
  Q 129.50 441.36 130.45 443.71
  Q 131.44 446.11 132.34 447.32
  Q 135.40 451.40 137.06 455.44
  Q 138.81 459.69 140.37 462.90
  Q 141.56 465.33 144.79 469.69
  Q 148.73 475.02 151.43 481.14
  Q 153.95 486.87 159.06 491.69
  Q 160.34 492.89 160.94 494.96
  Q 161.08 495.44 161.41 495.81
  Q 164.35 499.12 165.89 504.66
  Q 166.09 505.39 166.37 506.09
  Q 172.11 520.45 179.99 533.93
  Q 182.48 538.19 184.81 542.55
  Q 184.84 542.60 186.63 546.41
  Q 188.34 550.04 191.81 554.44
  Q 194.48 557.81 197.53 564.73
  Q 201.19 573.02 205.72 580.85
  Q 208.18 585.09 212.50 594.00
  Q 216.62 602.49 224.93 613.32
  Q 225.67 614.28 227.81 618.94
  Q 232.18 628.43 240.40 641.15
  Q 240.82 641.79 243.48 646.36
  Q 245.01 649.00 246.96 651.36
  Q 249.46 654.37 250.74 656.73
  Q 257.60 669.35 266.17 680.85
  Q 271.16 687.56 275.66 694.17
  Q 285.65 708.86 298.00 721.71"
/>
<path stroke="#6d6e6e" vector-effect="non-scaling-stroke" d="
  M 538.75 308.79
  Q 554.41 306.81 570.16 306.19
  A 0.49 0.49 75.8 0 0 570.58 305.48
  Q 568.58 301.30 565.77 297.69
  Q 561.11 291.67 556.71 285.45
  Q 552.41 279.35 547.74 273.96
  Q 543.40 268.96 539.23 263.83
  Q 535.12 258.78 530.71 254.70
  Q 525.82 250.20 520.98 245.66
  Q 520.91 245.59 514.99 239.41
  Q 511.58 235.85 506.81 232.44
  Q 499.38 227.11 491.79 222.00"
/>
<path stroke="#5e5e5e" vector-effect="non-scaling-stroke" d="
  M 329.75 721.96
  Q 331.78 718.04 333.68 714.07
  Q 334.40 712.56 337.70 706.21
  Q 340.38 701.07 343.31 693.81
  Q 352.64 670.77 354.54 665.14
  Q 355.51 662.25 357.44 659.19
  Q 360.43 654.43 362.01 648.79
  Q 363.68 642.85 363.70 642.77
  Q 372.37 615.61 378.19 592.69
  Q 380.02 585.49 381.55 580.15
  Q 383.94 571.82 384.94 567.62
  Q 388.79 551.32 392.53 535.00
  Q 394.63 525.82 396.33 515.38
  Q 401.00 486.76 406.56 458.30
  Q 408.85 446.58 410.08 438.63
  Q 415.71 402.22 417.75 370.75
  Q 421.57 311.89 422.00 301.00
  Q 422.88 278.55 423.71 189.50"
/>
<path stroke="#808080" vector-effect="non-scaling-stroke" d="
  M 423.71 189.50
  L 424.51 181.32
  A 0.55 0.52 2.4 0 0 423.96 180.75
  L 204.07 180.81
  A 0.47 0.45 -2.2 0 0 203.60 181.30
  L 204.54 192.75"
/>
<path stroke="#5e5e5e" vector-effect="non-scaling-stroke" d="
  M 204.54 192.75
  Q 204.20 197.73 204.25 200.25
  Q 205.07 240.50 205.61 280.75
  Q 205.94 306.03 207.69 331.25
  Q 208.96 349.62 210.19 367.99
  Q 212.45 401.96 217.47 435.61
  Q 218.66 443.62 220.92 455.31
  Q 226.67 485.15 231.64 515.13
  Q 233.45 526.05 235.39 534.77
  Q 240.10 555.86 245.48 576.78
  Q 245.98 578.72 247.27 582.64
  Q 248.22 585.56 248.93 588.55
  Q 250.95 597.17 250.98 597.26
  Q 257.69 622.02 265.44 646.48
  Q 265.56 646.86 266.41 650.46
  Q 266.91 652.58 267.94 654.31
  Q 272.01 661.22 274.52 668.30
  Q 276.58 674.10 276.60 674.16
  Q 285.95 698.54 298.00 721.71"
/>
<path stroke="#5e5e5e" vector-effect="non-scaling-stroke" d="
  M 293.96 604.00
  L 291.71 628.00"
/>
<path stroke="#8f908f" vector-effect="non-scaling-stroke" d="
  M 291.71 628.00
  Q 291.52 633.73 290.61 639.37
  Q 289.75 644.78 289.74 648.71
  Q 289.74 657.84 289.75 666.97
  Q 289.75 668.63 290.11 670.48
  Q 290.46 672.23 290.71 674.00"
/>
<path stroke="#5e5e5e" vector-effect="non-scaling-stroke" d="
  M 290.71 674.00
  Q 291.15 681.61 292.06 684.44
  Q 294.08 690.69 295.75 697.04
  Q 297.42 703.38 300.19 708.56
  Q 305.66 718.81 307.79 729.75"
/>
<path stroke="#5e5e5e" vector-effect="non-scaling-stroke" d="
  M 320.21 730.00
  Q 321.98 722.09 324.71 714.44
  Q 325.00 713.61 327.44 709.44
  Q 330.97 703.38 332.94 694.49
  Q 333.53 691.82 334.42 689.22
  Q 338.80 676.41 336.61 662.08
  Q 336.23 659.59 336.32 657.07
  Q 337.29 631.27 333.79 603.75"
/>
<path stroke="#dcdcdd" vector-effect="non-scaling-stroke" d="
  M 423.71 189.50
  Q 423.31 191.81 422.69 193.19
  Q 418.97 201.44 417.76 210.32
  Q 416.30 220.94 416.27 221.12
  Q 415.51 226.00 414.50 234.00
  Q 408.64 280.63 396.25 362.75
  Q 393.69 379.72 386.68 404.73
  Q 386.64 404.85 385.91 407.79
  Q 385.21 410.56 384.19 412.19
  Q 382.81 414.37 382.53 416.49
  Q 382.04 420.04 381.93 420.43
  Q 379.65 428.19 377.73 436.05
  Q 377.03 438.89 376.21 441.53
  Q 375.36 444.25 374.54 446.96
  Q 374.39 447.46 371.75 455.03
  Q 369.97 460.10 369.25 465.50
  Q 369.11 466.58 367.71 467.75
  Q 367.30 468.09 367.13 468.54
  Q 365.04 474.16 363.00 482.75
  Q 357.63 505.41 352.26 528.07
  Q 352.07 528.89 351.31 530.71
  Q 350.76 532.03 350.58 533.45
  Q 350.14 536.95 350.12 537.01
  Q 344.64 562.68 340.20 588.55
  Q 338.93 595.95 334.94 602.94
  Q 334.50 603.70 333.79 603.75"
/>
<path stroke="#808080" vector-effect="non-scaling-stroke" d="
  M 333.79 603.75
  Q 333.59 584.34 332.25 560.25
  Q 330.34 526.00 329.18 485.01
  Q 329.18 484.92 329.06 476.12
  Q 328.85 460.22 325.51 444.65
  Q 322.68 431.44 319.82 418.23
  Q 318.92 414.03 318.51 409.83
  A 0.35 0.34 87.0 0 1 318.85 409.44
  L 355.72 409.26
  A 1.06 1.05 -4.7 0 0 356.76 408.05
  Q 353.05 383.95 347.66 360.55
  Q 345.13 349.60 343.63 342.39
  Q 340.52 327.46 339.50 324.25
  Q 338.38 320.73 338.31 318.30
  A 1.54 1.28 -31.1 0 1 338.62 317.41
  Q 341.03 314.24 341.44 313.44
  Q 343.04 310.33 344.88 308.21
  Q 347.80 304.85 348.19 303.96
  Q 349.26 301.53 349.50 298.25
  Q 350.04 290.94 349.77 285.53
  Q 349.57 281.48 347.83 277.92
  Q 344.89 271.93 340.39 266.87
  Q 334.77 260.54 326.06 258.19
  Q 320.60 256.71 315.35 256.67
  Q 309.71 256.62 304.66 257.50
  Q 296.09 259.00 289.65 264.91
  Q 287.56 266.83 284.84 270.54
  Q 282.65 273.54 280.56 276.60
  Q 278.52 279.60 278.51 283.25
  Q 278.50 285.70 278.16 288.11
  Q 277.82 290.60 278.03 292.92
  Q 278.25 295.33 278.50 299.50
  Q 278.66 302.20 280.18 304.82
  Q 280.33 305.07 283.22 308.31
  Q 285.00 310.30 286.53 313.67
  Q 287.18 315.10 288.52 315.92
  Q 289.86 316.74 289.66 318.64
  Q 289.49 320.17 289.48 320.37
  Q 289.37 322.32 288.66 324.11
  Q 287.65 326.61 287.44 327.67
  Q 282.94 350.24 281.25 357.00
  Q 274.85 382.57 271.38 408.70
  A 0.44 0.43 3.9 0 0 271.82 409.19
  L 308.95 409.51
  A 0.55 0.54 3.4 0 1 309.49 410.11
  Q 309.04 414.37 308.10 418.67
  Q 304.94 433.08 302.07 447.55
  Q 300.27 456.69 299.76 463.18
  Q 299.20 470.16 299.00 479.00
  Q 298.76 489.59 297.06 535.57
  Q 297.02 536.73 296.70 538.90
  Q 296.45 540.56 296.44 542.25
  Q 296.40 546.16 296.40 546.25
  Q 294.92 575.11 293.96 604.00"
/>
<path stroke="#dcdcdd" vector-effect="non-scaling-stroke" d="
  M 293.96 604.00
  Q 292.57 602.60 292.06 601.44
  Q 287.77 591.58 286.18 581.02
  Q 284.40 569.15 284.38 569.04
  Q 278.28 537.05 273.50 518.25
  Q 268.91 500.23 264.94 482.06
  Q 263.31 474.58 261.19 469.31
  Q 260.70 468.11 259.35 466.62
  A 1.76 1.58 21.6 0 1 258.92 465.76
  Q 257.89 459.61 254.50 450.25
  Q 251.24 441.25 246.39 421.12
  Q 245.35 416.81 242.90 409.59
  Q 241.13 404.35 239.50 398.00
  Q 233.98 376.43 231.24 358.21
  Q 224.41 312.76 217.94 267.26
  Q 214.96 246.30 212.54 225.28
  Q 212.33 223.49 211.60 220.29
  Q 211.03 217.80 210.80 215.25
  Q 209.79 204.26 205.70 194.03
  Q 205.66 193.94 205.53 193.33
  Q 205.38 192.65 204.54 192.75"
/>
<path stroke="#333332" vector-effect="non-scaling-stroke" d="
  M 290.71 674.00
  Q 290.53 669.94 291.05 665.95
  Q 291.77 660.51 291.76 657.99
  Q 291.75 653.83 291.64 649.67
  Q 291.54 646.20 291.82 641.35
  Q 292.20 634.68 291.71 628.00"
/>
<path stroke="#eceded" vector-effect="non-scaling-stroke" d="
  M 92.25 309.29
  Q 95.97 309.04 92.28 308.71
  Q 92.07 308.69 91.89 308.57
  Q 89.28 306.82 86.24 306.35
  Q 83.06 305.86 82.92 305.83
  Q 76.42 304.47 69.79 304.09
  Q 67.57 303.96 66.40 303.19
  Q 64.87 302.18 63.92 300.50
  Q 63.70 300.11 63.26 299.80
  Q 62.23 299.05 61.96 297.75"
/>
<path stroke="#808080" vector-effect="non-scaling-stroke" d="
  M 61.96 297.75
  Q 66.77 291.59 71.38 285.28
  Q 76.08 278.85 81.04 273.03
  Q 84.69 268.76 88.27 264.42
  Q 92.40 259.39 95.79 256.09
  Q 100.17 251.82 104.80 247.80
  Q 108.29 244.75 111.34 241.29
  Q 114.73 237.43 116.72 235.78
  Q 119.70 233.31 122.91 231.14
  Q 132.92 224.36 142.61 217.13
  Q 149.23 212.18 156.76 208.77
  A 0.70 0.62 -0.1 0 0 157.05 208.51
  Q 157.30 208.04 156.64 208.42
  Q 156.49 208.50 156.35 208.55
  Q 146.63 211.48 130.00 218.50
  Q 121.58 222.06 116.09 224.85
  Q 108.13 228.90 106.88 229.47
  Q 102.20 231.62 97.50 233.75
  Q 91.98 236.25 85.46 241.26
  A 1.70 0.98 -88.0 0 0 84.96 242.06
  Q 84.57 243.32 82.94 243.69
  Q 80.63 244.20 75.89 246.86
  Q 73.93 247.97 69.44 251.10
  Q 65.67 253.74 61.63 255.96
  Q 56.57 258.75 53.84 260.76
  Q 48.72 264.54 43.77 268.55
  Q 40.72 271.03 35.17 274.72
  Q 28.96 278.85 23.66 284.11
  Q 20.94 286.80 17.92 288.87
  Q 11.48 293.29 5.99 298.64
  A 1.69 1.68 53.5 0 0 5.69 300.65
  Q 11.56 311.25 17.82 321.48
  Q 22.14 328.57 28.75 342.25
  Q 40.47 366.53 44.86 376.65
  Q 44.89 376.71 45.65 378.77
  Q 46.33 380.64 48.06 383.69
  Q 50.05 387.19 53.12 397.22
  Q 54.46 401.59 55.78 404.64
  Q 58.10 410.01 59.31 411.69
  Q 61.32 414.46 61.94 417.31
  Q 62.71 420.86 63.72 423.40
  Q 79.20 462.19 91.69 502.05
  Q 92.82 505.66 94.08 510.53
  Q 95.67 516.74 96.50 519.00
  Q 101.68 533.13 105.44 547.68
  Q 106.46 551.66 107.90 556.64
  Q 109.18 561.12 110.28 565.65
  Q 111.42 570.39 113.26 576.21
  Q 114.92 581.45 116.14 586.82
  Q 119.11 599.81 122.47 612.69
  Q 127.20 630.79 130.71 649.16
  Q 133.28 662.62 134.56 668.79
  Q 141.84 703.96 147.62 740.01
  A 0.90 0.89 -4.5 0 0 148.51 740.76
  Q 182.98 740.58 216.51 741.08
  Q 226.64 741.24 236.51 741.15
  Q 271.60 740.86 306.69 741.18
  Q 307.19 741.19 306.92 740.75
  Q 304.32 736.55 300.06 732.44
  Q 289.30 722.05 279.30 709.15
  Q 276.73 705.84 274.28 703.20
  Q 271.64 700.35 269.01 697.49
  Q 265.04 693.17 261.69 688.43
  Q 255.93 680.26 250.28 672.01
  Q 249.52 670.89 247.87 669.30
  Q 246.53 668.01 245.51 666.46
  Q 242.88 662.47 242.46 661.94
  Q 235.90 653.74 230.55 644.69
  Q 229.41 642.75 229.27 640.49
  A 1.74 1.59 -67.2 0 0 228.95 639.59
  Q 224.98 634.20 221.24 628.64
  Q 220.55 627.61 217.93 624.13
  Q 216.25 621.89 214.88 619.44
  Q 211.26 612.97 211.18 612.84
  Q 203.81 600.83 197.58 588.18
  Q 196.04 585.06 192.56 579.94
  Q 189.10 574.83 186.02 568.46
  Q 181.73 559.58 180.11 556.66
  Q 170.33 538.97 160.65 521.21
  Q 159.32 518.77 157.99 514.61
  Q 156.38 509.53 153.51 504.97
  Q 149.78 499.06 146.17 493.07
  Q 144.44 490.20 142.35 487.59
  Q 139.80 484.40 138.50 482.18
  Q 137.29 480.11 136.09 478.05
  Q 136.03 477.94 133.44 474.34
  Q 132.01 472.35 131.54 469.96
  Q 131.43 469.41 131.11 468.96
  Q 127.12 463.36 125.59 458.30
  Q 125.16 456.89 124.26 455.60
  Q 123.37 454.32 122.73 452.90
  Q 122.00 451.30 120.64 449.49
  Q 119.11 447.46 118.67 444.95
  Q 118.15 441.94 117.62 440.72
  Q 114.12 432.54 110.76 424.30
  Q 106.86 414.75 103.66 408.02
  Q 99.10 398.44 94.34 388.98
  A 0.73 0.72 -32.3 0 1 94.55 388.07
  Q 96.94 386.29 99.31 384.49
  Q 101.58 382.78 103.86 380.65
  Q 123.38 362.47 144.75 346.48
  Q 155.93 338.12 166.45 328.92
  A 0.43 0.43 -56.0 0 0 166.31 328.19
  Q 164.15 327.45 161.95 326.83
  Q 159.67 326.19 157.66 325.34
  Q 150.65 322.34 143.33 320.19
  Q 140.23 319.28 134.56 318.29
  Q 130.13 317.52 125.75 316.50
  Q 109.07 312.58 92.25 309.29"
/>
<path stroke="#6d6e6e" vector-effect="non-scaling-stroke" d="
  M 61.96 297.75
  Q 59.21 301.43 57.46 305.62
  A 0.44 0.44 -78.2 0 0 57.85 306.22
  Q 75.45 306.98 92.25 309.29"
/>
<path stroke="#b2b2b1" vector-effect="non-scaling-stroke" d="
  M 233.4581 639.3682
  A 1.06 0.85 14.1 0 0 232.6371 638.2856
  A 1.06 0.85 14.1 0 0 231.4019 638.8518
  A 1.06 0.85 14.1 0 0 232.2229 639.9344
  A 1.06 0.85 14.1 0 0 233.4581 639.3682"
/>
<path stroke="#b2b2b1" vector-effect="non-scaling-stroke" d="
  M 396.5090 639.0760
  A 0.97 0.81 -2.6 0 0 395.5033 638.3108
  A 0.97 0.81 -2.6 0 0 394.5710 639.1640
  A 0.97 0.81 -2.6 0 0 395.5767 639.9292
  A 0.97 0.81 -2.6 0 0 396.5090 639.0760"
/>
<path stroke="#808080" vector-effect="non-scaling-stroke" d="
  M 192.91 890.23
  Q 193.33 890.19 193.18 890.69
  Q 191.33 896.79 191.56 903.09
  Q 191.69 906.51 192.82 908.18
  Q 194.85 911.18 199.06 909.06
  Q 205.09 906.04 209.39 898.91
  Q 210.01 897.89 209.41 897.57
  A 0.67 0.51 -58.3 0 0 208.66 897.86
  Q 207.00 900.38 204.79 902.37
  Q 202.94 904.04 201.19 904.19
  Q 198.02 904.48 198.06 900.19
  Q 198.14 892.07 200.52 882.19
  Q 205.39 861.96 212.75 842.50
  Q 221.85 818.43 234.10 799.88
  Q 239.73 791.37 247.26 784.51
  Q 251.90 780.30 257.69 777.94
  Q 263.60 775.53 268.50 776.75
  Q 272.30 777.70 272.71 782.01
  A 1.24 0.66 -87.1 0 0 273.10 782.85
  Q 273.61 783.16 274.00 782.25
  Q 274.80 780.39 275.07 776.74
  Q 275.54 770.32 269.25 770.00
  Q 263.95 769.73 258.31 773.06
  Q 250.88 777.43 244.90 783.66
  Q 238.04 790.80 232.59 799.08
  Q 212.73 829.26 200.78 863.90
  A 1.00 1.00 21.9 0 1 199.42 864.48
  Q 195.10 862.50 189.75 863.52
  Q 183.84 864.65 179.15 868.43
  Q 164.16 880.53 164.38 899.56
  Q 164.42 903.20 165.54 905.25
  Q 167.08 908.08 170.21 909.22
  Q 172.19 909.94 174.25 909.08
  Q 176.21 908.26 177.91 906.90
  Q 186.49 899.97 192.36 890.63
  A 0.89 0.57 -68.8 0 1 192.91 890.23"
/>
<path stroke="#808080" vector-effect="non-scaling-stroke" d="
  M 245.73 890.34
  Q 245.98 890.67 245.80 891.27
  Q 243.98 897.37 244.45 903.61
  Q 244.71 907.01 246.05 908.57
  Q 248.28 911.14 252.31 908.81
  Q 258.33 905.35 262.24 898.97
  Q 262.90 897.89 262.27 897.49
  A 0.62 0.48 -56.6 0 0 261.53 897.74
  Q 258.58 902.17 256.44 903.44
  Q 253.53 905.16 251.94 903.39
  Q 250.95 902.28 250.92 899.86
  Q 250.85 894.98 252.19 888.69
  Q 256.82 866.97 263.42 848.31
  Q 267.15 837.78 270.66 829.67
  Q 278.27 812.10 289.38 796.40
  Q 294.66 788.93 302.69 782.44
  Q 309.70 776.76 318.16 776.48
  Q 321.14 776.38 322.70 777.23
  Q 324.98 778.48 325.41 781.48
  Q 325.78 784.02 326.71 782.29
  Q 327.36 781.09 327.58 779.74
  Q 328.35 775.17 326.98 772.65
  Q 325.75 770.38 322.03 770.05
  Q 318.83 769.77 316.06 770.81
  Q 307.81 773.92 300.64 780.89
  Q 296.19 785.23 292.19 789.97
  Q 288.66 794.16 284.85 799.96
  Q 265.03 830.13 253.44 864.42
  A 0.47 0.47 -69.9 0 1 252.82 864.71
  Q 245.61 861.88 238.81 864.64
  Q 227.58 869.21 221.87 879.90
  Q 216.41 890.11 217.49 901.73
  Q 218.08 908.06 224.49 909.64
  A 2.85 2.80 -51.6 0 0 226.47 909.39
  Q 232.68 906.11 236.57 901.82
  Q 241.34 896.55 245.05 890.49
  A 0.47 0.37 -50.6 0 1 245.73 890.34"
/>
<path stroke="#808080" vector-effect="non-scaling-stroke" d="
  M 514.44 909.31
  Q 517.19 910.74 520.40 908.70
  Q 527.14 904.43 531.25 897.57
  Q 532.08 896.18 530.86 896.68
  Q 530.58 896.79 530.35 897.08
  Q 527.49 900.71 525.06 902.56
  Q 522.19 904.76 519.21 902.73
  A 1.49 1.42 -82.3 0 1 518.66 901.97
  Q 517.61 898.51 518.25 893.75
  Q 520.33 878.22 523.70 866.78
  Q 529.24 847.92 537.53 830.17
  Q 542.72 819.07 546.66 812.37
  Q 554.87 798.45 566.56 787.06
  Q 573.99 779.83 584.43 780.12
  Q 589.73 780.26 591.00 785.27
  Q 591.56 787.44 592.31 785.33
  Q 593.79 781.19 592.52 776.82
  Q 591.32 772.72 587.00 772.81
  Q 580.47 772.95 575.03 776.52
  Q 567.77 781.28 562.04 787.79
  Q 554.45 796.41 548.44 806.19
  Q 535.89 826.58 526.46 848.59
  Q 517.73 868.98 513.00 890.65
  Q 511.07 899.47 511.75 904.75
  Q 512.19 908.15 514.44 909.31"
/>
<path stroke="#808080" vector-effect="non-scaling-stroke" d="
  M 39.29 905.12
  Q 48.60 909.37 60.00 909.75
  Q 75.37 910.27 89.93 905.02
  A 3.11 3.09 -86.1 0 0 91.63 903.53
  Q 98.12 891.03 100.85 877.88
  Q 100.95 877.39 100.93 876.98
  Q 100.82 875.16 99.82 876.66
  Q 99.58 877.01 99.44 877.52
  Q 96.41 888.32 89.56 896.31
  Q 83.03 903.93 73.85 906.12
  Q 65.64 908.09 56.11 906.27
  Q 47.74 904.68 40.89 899.64
  Q 34.93 895.25 30.72 888.36
  Q 26.58 881.59 25.00 874.00
  Q 21.23 855.92 26.08 838.27
  Q 28.81 828.32 34.12 820.04
  Q 51.39 793.08 86.50 793.85
  Q 98.87 794.12 109.01 800.99
  Q 112.28 803.21 112.74 806.71
  Q 112.97 808.47 112.09 811.19
  Q 111.38 813.37 110.50 815.50
  Q 110.17 816.29 110.70 816.43
  A 0.91 0.61 -61.7 0 0 111.48 816.02
  Q 116.51 808.87 117.92 800.24
  A 1.64 1.48 -55.2 0 0 117.80 799.29
  Q 116.14 795.69 111.94 794.31
  Q 103.47 791.55 95.04 790.99
  Q 86.85 790.46 77.97 791.43
  Q 62.90 793.09 49.62 801.07
  Q 33.39 810.83 24.06 827.31
  Q 13.70 845.61 14.33 866.75
  Q 14.78 882.05 23.62 893.03
  Q 29.93 900.86 39.29 905.12"
/>
<path stroke="#808080" vector-effect="non-scaling-stroke" d="
  M 446.46 802.62
  Q 447.83 802.98 446.51 803.49
  Q 435.46 807.85 428.31 817.31
  Q 418.18 830.73 412.20 849.48
  Q 410.26 855.55 408.18 861.56
  Q 403.24 875.87 394.31 888.06
  Q 385.30 900.36 369.81 903.31
  Q 360.67 905.05 352.12 903.72
  Q 345.09 902.62 341.05 899.72
  Q 335.97 896.06 334.02 889.49
  Q 331.18 879.97 337.22 872.47
  Q 337.81 871.73 337.42 871.16
  A 0.59 0.49 -34.7 0 0 336.66 871.09
  Q 328.99 876.41 327.36 884.83
  Q 325.95 892.14 329.07 898.36
  Q 332.40 904.98 340.20 907.89
  Q 344.81 909.61 349.75 909.77
  Q 374.36 910.57 391.75 895.63
  Q 398.55 889.78 404.78 880.53
  Q 413.34 867.83 418.04 853.01
  Q 421.91 840.85 426.83 829.07
  Q 431.55 817.79 439.81 810.56
  Q 444.17 806.76 450.31 805.27
  Q 452.81 804.67 455.66 805.40
  Q 459.11 806.28 462.52 807.35
  A 1.08 1.00 35.1 0 0 463.41 807.23
  Q 466.10 805.38 467.19 802.40
  A 0.92 0.92 -71.9 0 0 466.58 801.19
  Q 453.75 797.61 440.74 794.78
  Q 425.14 791.37 409.21 791.03
  Q 400.72 790.84 397.79 790.95
  Q 392.07 791.17 386.44 792.45
  Q 355.16 799.56 352.50 831.75
  Q 352.39 833.14 352.94 837.75
  A 1.41 0.97 -81.5 0 0 353.36 838.61
  Q 353.93 839.07 354.25 838.51
  Q 354.44 838.19 354.39 837.57
  Q 352.77 818.48 365.37 806.85
  Q 371.38 801.31 379.71 798.39
  Q 387.85 795.54 396.50 795.75
  Q 422.25 796.39 446.46 802.62"
/>
<path stroke="#808080" vector-effect="non-scaling-stroke" d="
  M 506.83 845.09
  Q 504.96 847.13 503.42 849.45
  Q 502.19 851.30 502.82 853.46
  Q 503.41 855.50 504.46 853.65
  Q 509.23 845.21 517.43 836.30
  A 0.65 0.64 -52.4 0 0 517.31 835.32
  Q 516.82 835.02 516.03 835.76
  Q 511.25 840.25 506.83 845.09"
/>
<path stroke="#808080" vector-effect="non-scaling-stroke" d="
  M 138.45 891.69
  Q 137.29 897.34 137.70 904.24
  Q 137.85 906.92 139.20 908.74
  Q 140.47 910.46 142.48 909.76
  Q 150.12 907.10 154.51 900.37
  Q 154.76 899.99 154.91 899.59
  Q 155.77 897.20 153.89 898.99
  Q 153.59 899.27 153.33 899.70
  Q 150.73 903.92 146.51 905.33
  Q 144.31 906.07 144.00 903.77
  Q 143.51 900.09 143.98 896.48
  Q 144.29 894.17 145.47 889.41
  Q 148.95 875.48 157.76 863.99
  Q 158.40 863.15 157.35 863.22
  Q 153.86 863.48 151.39 865.43
  A 0.76 0.72 -48.5 0 1 150.57 865.50
  Q 147.47 863.73 145.50 863.50
  Q 130.95 861.81 120.81 872.31
  Q 110.05 883.46 110.16 898.58
  Q 110.18 901.31 110.79 903.36
  Q 111.60 906.11 113.06 907.69
  Q 115.99 910.83 119.69 909.19
  Q 124.40 907.10 128.63 902.39
  Q 133.40 897.09 137.57 891.30
  Q 138.92 889.43 138.45 891.69"
/>
<path stroke="#808080" vector-effect="non-scaling-stroke" d="
  M 281.92 870.48
  Q 273.99 882.93 271.59 897.52
  Q 270.80 902.31 272.07 906.98
  Q 273.01 910.45 276.00 909.75
  Q 284.93 907.66 291.91 899.65
  Q 297.46 893.27 302.28 886.33
  Q 303.16 885.05 303.42 885.86
  Q 303.53 886.18 303.35 886.63
  Q 299.03 897.99 294.88 909.42
  Q 290.71 920.88 284.73 931.52
  Q 281.66 936.96 278.56 940.56
  Q 270.24 950.22 257.97 951.07
  Q 251.01 951.54 246.66 949.94
  Q 240.82 947.79 238.07 941.36
  Q 234.76 933.63 239.14 926.61
  Q 241.03 923.57 238.41 925.14
  Q 237.95 925.41 237.54 925.83
  Q 228.86 934.38 233.50 944.54
  Q 235.35 948.59 238.73 950.96
  Q 242.33 953.48 246.75 954.00
  Q 264.71 956.11 278.08 943.81
  Q 286.51 936.06 292.05 926.03
  Q 297.92 915.42 302.09 904.03
  Q 309.36 884.16 316.43 864.45
  Q 317.07 862.66 315.26 863.25
  Q 311.47 864.47 309.97 868.13
  Q 301.93 887.76 286.43 902.19
  Q 284.64 903.86 282.20 904.00
  Q 278.02 904.25 277.82 900.00
  Q 277.56 894.28 279.05 888.76
  Q 282.55 875.81 289.91 864.61
  Q 290.24 864.11 290.20 863.69
  Q 290.10 862.71 289.00 863.25
  Q 281.19 867.06 273.56 874.31
  Q 272.41 875.41 273.45 875.46
  A 1.48 0.95 -54.4 0 0 274.33 875.11
  Q 277.77 872.27 281.74 870.28
  Q 282.19 870.06 281.92 870.48"
/>
<path stroke="#808080" vector-effect="non-scaling-stroke" d="
  M 458.12 890.80
  Q 457.60 894.91 457.12 899.01
  Q 456.57 903.61 458.07 907.95
  Q 458.62 909.55 460.31 909.69
  Q 462.61 909.88 464.55 908.95
  Q 465.58 908.46 468.06 906.66
  Q 472.20 903.66 474.70 899.13
  A 0.48 0.37 -68.7 0 0 474.51 898.46
  Q 473.99 898.38 473.44 899.19
  Q 470.86 902.95 466.93 905.19
  Q 464.46 906.60 463.65 903.88
  Q 463.06 901.90 463.33 899.26
  Q 465.36 879.74 477.25 864.11
  Q 477.93 863.21 476.80 863.26
  Q 473.73 863.40 470.97 865.38
  A 0.92 0.89 -50.4 0 1 470.07 865.48
  Q 459.19 860.73 448.94 865.94
  Q 439.28 870.84 433.78 881.10
  Q 428.98 890.04 429.83 900.24
  Q 430.23 905.04 432.75 907.75
  Q 435.33 910.53 438.50 909.50
  Q 442.67 908.14 447.06 903.56
  Q 451.07 899.39 457.87 890.71
  Q 458.19 890.31 458.12 890.80"
/>
<path stroke="#808080" vector-effect="non-scaling-stroke" d="
  M 495.93 869.49
  Q 487.65 883.56 484.21 899.52
  Q 484.01 900.42 483.99 901.51
  Q 483.97 902.50 483.91 903.49
  Q 483.54 909.39 487.90 909.73
  Q 490.48 909.93 493.52 907.78
  Q 498.02 904.60 502.06 899.56
  Q 503.06 898.32 501.93 898.37
  A 1.28 0.97 -65.6 0 0 501.12 898.81
  Q 498.81 901.47 495.95 903.46
  Q 494.14 904.71 492.66 904.47
  Q 490.30 904.07 490.27 901.00
  Q 490.24 897.06 491.23 893.24
  Q 495.02 878.71 502.39 865.64
  Q 502.82 864.88 502.85 864.27
  Q 502.95 862.55 501.19 863.44
  Q 493.46 867.34 486.20 874.70
  Q 485.40 875.52 485.93 875.66
  A 1.13 0.71 -51.5 0 0 486.81 875.35
  Q 490.87 871.70 495.74 869.28
  Q 496.19 869.06 495.93 869.49"
/>
<path stroke="#808080" vector-effect="non-scaling-stroke" d="
  M 541.9647 908.8076
  A 25.25 13.75 116.7 0 0 565.5939 892.4281
  A 25.25 13.75 116.7 0 0 564.6553 863.6924
  A 25.25 13.75 116.7 0 0 541.0261 880.0719
  A 25.25 13.75 116.7 0 0 541.9647 908.8076"
/>
<path stroke="#808080" vector-effect="non-scaling-stroke" d="
  M 593.34 879.72
  Q 593.91 875.32 594.15 870.90
  Q 594.37 866.98 594.31 866.60
  Q 593.89 863.82 590.48 863.49
  Q 587.24 863.18 584.19 865.69
  Q 580.09 869.05 578.03 871.77
  Q 577.80 872.07 577.70 872.41
  Q 577.09 874.43 578.78 872.54
  Q 580.86 870.23 583.46 868.60
  Q 585.05 867.60 586.36 867.79
  Q 588.62 868.12 588.25 871.00
  Q 585.82 889.92 579.62 908.38
  A 1.03 1.03 9.5 0 0 580.59 909.73
  Q 585.33 909.80 586.17 906.48
  Q 589.25 894.18 594.39 882.60
  Q 594.88 881.50 597.19 877.69
  Q 600.12 872.85 604.97 871.28
  Q 607.16 870.57 608.70 871.01
  Q 610.83 871.61 611.52 874.03
  Q 611.91 875.40 612.68 874.20
  Q 614.27 871.72 615.00 868.89
  Q 615.95 865.15 612.52 863.79
  Q 609.89 862.74 607.27 863.79
  Q 601.81 865.98 598.61 870.94
  Q 595.87 875.18 593.74 879.78
  Q 593.65 879.96 593.53 879.99
  A 0.23 0.17 -89.5 0 1 593.34 879.72"
/>
<path stroke="#808080" vector-effect="non-scaling-stroke" d="
  M 250.70 169.31
  L 377.19 169.19
  A 0.51 0.50 -90.0 0 0 377.69 168.68
  Q 377.87 120.01 377.75 111.25
  Q 377.51 94.06 368.89 79.51
  Q 363.87 71.06 355.79 64.59
  Q 340.13 52.07 319.57 48.91
  Q 314.54 48.14 309.51 48.82
  Q 285.06 52.11 267.24 68.99
  Q 262.74 73.25 259.94 77.94
  Q 252.25 90.81 250.64 105.52
  Q 250.25 109.12 250.25 125.50
  Q 250.25 147.14 250.25 168.86
  A 0.45 0.45 45.0 0 0 250.70 169.31"
/>
<path stroke="#ececec" vector-effect="non-scaling-stroke" d="
  M 274.80 480.69
  Q 274.47 478.17 274.44 480.75
  Q 274.43 481.71 274.76 480.93
  Q 274.81 480.82 274.80 480.69"
/>
<path stroke="#bababb" vector-effect="non-scaling-stroke" d="
  M 257.7386 568.3890
  A 0.82 0.82 0.0 0 0 257.4758 567.2596
  L 249.7331 562.4402
  A 0.82 0.82 0.0 0 0 248.6037 562.7030
  L 248.5614 562.7710
  A 0.82 0.82 0.0 0 0 248.8242 563.9004
  L 256.5669 568.7198
  A 0.82 0.82 0.0 0 0 257.6963 568.4570
  L 257.7386 568.3890"
/>
<path stroke="#bababb" vector-effect="non-scaling-stroke" d="
  M 269.34 618.93
  Q 270.36 618.04 270.56 616.48
  Q 271.62 608.13 270.51 599.81
  A 1.63 1.23 -78.4 0 0 270.10 598.95
  Q 268.77 597.66 268.07 599.57
  Q 267.18 601.99 267.53 604.53
  Q 268.44 611.23 268.24 618.41
  Q 268.20 619.92 269.34 618.93"
/>
<path stroke="#808080" vector-effect="non-scaling-stroke" d="
  M 176.63 903.40
  Q 179.48 903.04 181.94 900.44
  Q 193.61 888.05 197.89 870.94
  Q 198.51 868.46 196.37 867.06
  Q 192.64 864.63 187.94 865.69
  Q 182.53 866.90 178.21 872.68
  Q 170.23 883.35 170.69 896.81
  Q 170.79 899.84 172.32 901.73
  Q 173.95 903.74 176.63 903.40"
/>
<path stroke="#808080" vector-effect="non-scaling-stroke" d="
  M 228.66 903.58
  Q 231.25 903.79 233.19 901.94
  Q 245.08 890.53 250.00 873.75
  Q 250.67 871.47 250.59 869.75
  Q 250.50 867.83 248.59 866.65
  Q 244.60 864.19 240.25 865.75
  Q 231.38 868.94 227.25 878.50
  Q 223.23 887.81 223.50 896.75
  Q 223.58 899.56 224.87 901.43
  Q 226.20 903.38 228.66 903.58"
/>
<path stroke="#808080" vector-effect="non-scaling-stroke" d="
  M 120.40 903.12
  Q 123.16 903.87 125.62 901.88
  Q 130.34 898.08 134.04 893.27
  Q 141.29 883.84 146.84 871.93
  Q 147.60 870.29 146.36 868.97
  Q 142.14 864.46 135.44 865.68
  Q 129.83 866.69 126.19 870.44
  Q 117.79 879.06 116.44 891.49
  Q 115.87 896.80 118.32 901.45
  A 3.36 3.33 83.6 0 0 120.40 903.12"
/>
<path stroke="#808080" vector-effect="non-scaling-stroke" d="
  M 440.77 903.30
  Q 444.03 903.19 446.62 900.62
  Q 459.36 888.01 466.71 871.23
  A 1.35 1.34 -52.6 0 0 466.53 869.86
  Q 461.72 863.79 453.69 865.93
  Q 448.16 867.40 444.31 872.06
  Q 437.09 880.80 435.91 891.74
  Q 435.31 897.33 438.40 902.07
  A 2.73 2.73 72.4 0 0 440.77 903.30"
/>
<path stroke="#808080" vector-effect="non-scaling-stroke" d="
  M 547.6639 904.6755
  A 18.96 10.67 106.0 0 0 563.1467 889.3911
  A 18.96 10.67 106.0 0 0 558.1161 868.2245
  A 18.96 10.67 106.0 0 0 542.6333 883.5089
  A 18.96 10.67 106.0 0 0 547.6639 904.6755"
/>
</g>
<path fill="#ffffff" d="
  M 0.00 0.00
  L 628.00 0.00
  L 628.00 297.06
  L 627.62 295.48
  Q 627.50 294.98 627.49 295.50
  Q 627.09 315.87 627.01 336.25
  Q 626.99 339.91 628.00 337.31
  L 628.00 962.81
  Q 315.38 963.14 2.75 963.00
  Q 0.72 963.00 0.00 962.44
  L 0.00 0.00
  Z
  M 298.00 721.71
  Q 302.34 725.38 306.11 729.65
  Q 307.09 730.76 307.79 729.75
  Q 309.91 736.99 311.25 739.75
  Q 312.71 742.77 315.99 741.17
  A 1.25 1.22 87.2 0 0 316.61 740.47
  L 320.21 730.00
  Q 321.24 730.03 321.98 729.23
  Q 325.63 725.33 329.75 721.96
  Q 341.70 709.59 351.26 695.31
  Q 353.59 691.82 357.94 686.19
  Q 366.38 675.24 374.23 662.13
  Q 378.37 655.21 383.39 647.76
  Q 392.95 633.60 400.45 618.22
  Q 402.23 614.56 404.94 610.85
  Q 411.73 601.57 417.31 590.06
  Q 419.41 585.74 423.26 579.48
  Q 424.59 577.32 425.75 574.71
  Q 426.85 572.23 428.08 569.82
  Q 429.11 567.80 431.58 562.51
  Q 434.22 556.84 438.12 551.88
  Q 440.72 548.57 441.06 547.31
  Q 441.43 545.97 443.50 542.00
  Q 447.63 534.08 452.03 526.29
  Q 459.40 513.22 464.09 498.98
  A 0.80 0.78 -83.9 0 1 464.74 498.44
  Q 469.19 497.98 474.92 498.67
  A 0.52 0.51 12.0 0 1 475.35 499.32
  Q 472.67 508.48 469.11 516.80
  Q 466.74 522.35 460.70 533.28
  Q 452.41 548.29 444.36 563.43
  Q 443.76 564.54 441.00 570.32
  Q 439.25 573.98 437.25 577.00
  Q 433.35 582.89 431.20 587.13
  Q 417.74 613.63 400.53 637.85
  Q 399.45 639.38 398.69 641.58
  Q 397.92 643.83 396.94 645.44
  Q 390.39 656.21 381.72 667.11
  Q 378.00 671.77 375.05 676.05
  Q 371.88 680.64 368.58 685.16
  Q 368.48 685.29 365.15 690.03
  Q 362.36 694.00 359.08 697.56
  Q 351.32 705.96 350.92 706.43
  Q 346.01 712.29 341.15 718.18
  Q 335.91 724.53 328.31 731.81
  Q 324.37 735.59 321.02 740.82
  Q 320.75 741.25 321.25 741.24
  Q 346.88 740.79 372.51 741.10
  Q 383.70 741.24 392.49 741.16
  Q 436.09 740.78 479.70 740.69
  A 0.59 0.57 -85.3 0 0 480.27 740.19
  Q 487.23 698.24 495.92 656.62
  Q 495.93 656.59 497.96 646.35
  Q 500.00 636.03 504.25 618.75
  Q 516.03 570.87 522.19 548.94
  Q 526.14 534.85 529.61 524.38
  Q 532.33 516.14 534.67 507.82
  Q 536.90 499.90 539.75 491.25
  Q 551.69 455.02 564.49 421.96
  Q 565.17 420.21 565.86 418.00
  Q 566.86 414.82 567.31 414.06
  Q 571.29 407.35 573.95 400.06
  Q 578.08 388.74 578.09 388.71
  Q 588.73 362.81 601.37 337.82
  Q 605.20 330.23 611.02 320.33
  Q 616.67 310.71 622.37 300.78
  A 1.76 1.75 36.1 0 0 622.03 298.61
  Q 615.38 292.54 608.46 287.80
  Q 606.45 286.42 604.25 284.00
  Q 601.21 280.64 596.69 277.55
  Q 584.90 269.48 573.89 260.37
  Q 571.64 258.51 568.97 257.32
  Q 563.77 254.98 559.23 251.53
  Q 552.92 246.73 545.57 243.81
  Q 545.49 243.78 544.27 243.52
  Q 543.35 243.33 543.21 242.32
  A 1.39 0.98 -82.1 0 0 542.79 241.50
  Q 535.20 235.55 530.75 233.75
  Q 524.67 231.29 511.50 224.50
  Q 502.78 220.00 483.75 212.50
  Q 481.71 211.70 471.30 208.58
  Q 470.82 208.44 471.26 208.65
  Q 482.39 214.00 491.79 222.00
  Q 491.41 222.87 492.19 223.81
  Q 495.64 228.01 498.77 230.00
  Q 503.68 233.11 507.59 237.40
  Q 509.97 240.02 512.65 242.35
  Q 522.67 251.05 531.51 260.95
  Q 531.59 261.04 534.45 264.09
  Q 537.02 266.82 539.00 270.02
  Q 539.33 270.56 539.23 271.09
  A 1.24 0.66 -70.0 0 0 539.35 271.96
  L 561.71 301.27
  Q 563.36 303.43 560.69 303.69
  Q 550.23 304.67 540.56 306.31
  Q 539.42 306.51 536.73 308.39
  Q 536.29 308.70 536.81 308.72
  L 538.75 308.79
  Q 528.76 310.21 518.94 312.51
  Q 510.97 314.39 503.00 316.30
  Q 501.42 316.68 490.89 318.64
  Q 481.86 320.32 473.39 324.09
  Q 468.09 326.45 461.92 328.16
  Q 460.88 328.45 461.70 329.15
  Q 470.77 336.89 479.79 343.67
  Q 504.17 362.01 526.53 382.76
  Q 527.80 383.94 529.83 385.31
  Q 531.58 386.49 533.18 387.86
  A 0.79 0.78 28.0 0 1 533.44 388.68
  Q 532.94 390.49 531.31 393.81
  Q 528.47 399.60 525.53 405.34
  Q 522.49 411.26 520.17 417.05
  Q 514.74 430.61 509.12 444.10
  Q 509.09 444.19 508.47 445.92
  Q 507.85 447.66 506.61 449.01
  Q 506.01 449.66 506.90 449.59
  Q 510.57 449.32 513.75 448.52
  Q 522.15 446.40 530.65 444.73
  Q 535.28 443.82 539.92 444.56
  A 0.59 0.59 14.2 0 1 540.39 445.34
  L 523.75 493.25
  Q 522.88 495.75 522.00 495.75
  Q 491.26 495.79 460.53 495.46
  Q 458.19 495.43 456.97 494.30
  Q 455.61 493.04 454.68 491.00
  A 1.03 1.03 48.6 0 1 454.72 490.08
  Q 464.82 471.88 480.95 459.50
  Q 485.34 456.13 489.56 452.56
  Q 491.55 450.88 495.70 451.37
  A 0.70 0.68 15.9 0 0 496.41 450.99
  Q 496.94 449.88 497.23 448.68
  Q 497.75 446.60 498.02 445.88
  Q 507.89 420.09 519.45 394.36
  A 1.51 1.50 -59.6 0 0 518.98 392.54
  Q 508.98 384.94 499.69 377.06
  Q 488.40 367.50 467.99 352.17
  Q 467.93 352.12 452.90 340.38
  Q 444.89 334.12 436.04 328.40
  Q 435.62 328.12 436.09 327.92
  Q 456.10 319.61 476.00 312.25
  Q 482.47 309.86 490.93 307.87
  Q 499.87 305.77 505.91 304.04
  Q 516.14 301.11 521.00 300.50
  Q 533.30 298.96 545.51 296.83
  Q 546.00 296.75 545.64 296.39
  Q 539.70 290.45 535.13 283.40
  Q 534.13 281.85 531.44 279.06
  Q 525.61 273.01 519.75 267.00
  Q 518.32 265.54 517.83 264.05
  A 1.66 1.35 -86.6 0 0 517.28 263.28
  Q 515.70 262.12 514.54 260.59
  Q 513.17 258.79 511.99 257.84
  Q 508.60 255.13 504.44 250.81
  Q 495.74 241.79 484.28 232.37
  Q 482.11 230.58 475.98 225.91
  Q 471.80 222.71 467.72 219.38
  Q 461.06 213.93 455.14 209.90
  Q 444.58 202.71 434.23 195.24
  A 1.02 0.90 20.4 0 1 433.81 194.45
  L 434.56 169.97
  A 1.51 1.48 0.5 0 0 433.03 168.44
  L 423.18 168.58
  A 0.54 0.50 88.3 0 1 422.67 168.06
  Q 422.29 152.87 422.50 143.00
  Q 422.80 128.48 422.69 116.50
  Q 422.57 104.73 421.12 96.61
  Q 419.14 85.52 415.28 74.86
  Q 413.69 70.50 409.31 63.69
  Q 403.17 54.14 396.64 44.85
  Q 395.63 43.42 394.31 42.31
  Q 392.81 41.06 391.94 39.93
  Q 389.00 36.11 384.99 33.49
  Q 381.91 31.48 380.10 29.77
  Q 372.64 22.72 365.25 19.25
  Q 356.47 15.13 342.84 10.73
  Q 336.18 8.58 329.91 7.95
  Q 313.03 6.24 296.14 8.07
  Q 291.06 8.63 285.61 10.51
  Q 269.44 16.11 263.06 19.06
  Q 255.31 22.66 247.54 30.10
  Q 245.81 31.76 242.86 33.64
  Q 239.08 36.05 236.30 39.60
  Q 235.06 41.19 233.42 42.65
  Q 231.74 44.15 230.56 45.81
  Q 228.47 48.77 217.61 65.13
  Q 215.07 68.94 212.44 76.44
  Q 206.17 94.25 205.30 111.50
  Q 205.25 112.49 205.25 131.50
  Q 205.25 149.59 205.25 167.99
  A 0.51 0.51 -0.0 0 1 204.74 168.50
  L 194.39 168.50
  A 0.94 0.94 88.8 0 0 193.45 169.48
  L 194.29 193.38
  Q 194.35 195.05 192.96 196.00
  Q 181.82 203.59 170.96 211.22
  Q 166.19 214.58 159.04 220.38
  Q 153.19 225.13 147.10 229.56
  Q 144.95 231.11 140.56 235.06
  Q 126.63 247.59 118.44 255.92
  Q 118.06 256.29 116.23 257.69
  Q 115.23 258.45 114.19 259.69
  Q 107.54 267.59 97.02 278.87
  Q 94.48 281.60 90.71 286.73
  Q 86.80 292.07 82.02 296.61
  Q 81.77 296.85 82.12 296.90
  Q 91.03 298.30 99.69 299.53
  Q 109.13 300.87 117.14 302.86
  Q 129.10 305.82 140.99 309.02
  Q 149.70 311.36 164.31 316.94
  Q 178.06 322.18 191.73 327.63
  Q 192.19 327.81 191.79 328.10
  Q 173.51 341.46 155.68 355.43
  Q 132.01 373.97 108.47 393.11
  A 0.50 0.49 -31.8 0 0 108.33 393.69
  Q 117.07 414.05 125.85 434.60
  Q 126.16 435.34 126.46 436.86
  Q 126.73 438.27 127.44 439.06
  Q 129.50 441.36 130.45 443.71
  Q 131.44 446.11 132.34 447.32
  Q 135.40 451.40 137.06 455.44
  Q 138.81 459.69 140.37 462.90
  Q 141.56 465.33 144.79 469.69
  Q 148.73 475.02 151.43 481.14
  Q 153.95 486.87 159.06 491.69
  Q 160.34 492.89 160.94 494.96
  Q 161.08 495.44 161.41 495.81
  Q 164.35 499.12 165.89 504.66
  Q 166.09 505.39 166.37 506.09
  Q 172.11 520.45 179.99 533.93
  Q 182.48 538.19 184.81 542.55
  Q 184.84 542.60 186.63 546.41
  Q 188.34 550.04 191.81 554.44
  Q 194.48 557.81 197.53 564.73
  Q 201.19 573.02 205.72 580.85
  Q 208.18 585.09 212.50 594.00
  Q 216.62 602.49 224.93 613.32
  Q 225.67 614.28 227.81 618.94
  Q 232.18 628.43 240.40 641.15
  Q 240.82 641.79 243.48 646.36
  Q 245.01 649.00 246.96 651.36
  Q 249.46 654.37 250.74 656.73
  Q 257.60 669.35 266.17 680.85
  Q 271.16 687.56 275.66 694.17
  Q 285.65 708.86 298.00 721.71
  Z
  M 92.25 309.29
  Q 95.97 309.04 92.28 308.71
  Q 92.07 308.69 91.89 308.57
  Q 89.28 306.82 86.24 306.35
  Q 83.06 305.86 82.92 305.83
  Q 76.42 304.47 69.79 304.09
  Q 67.57 303.96 66.40 303.19
  Q 64.87 302.18 63.92 300.50
  Q 63.70 300.11 63.26 299.80
  Q 62.23 299.05 61.96 297.75
  Q 66.77 291.59 71.38 285.28
  Q 76.08 278.85 81.04 273.03
  Q 84.69 268.76 88.27 264.42
  Q 92.40 259.39 95.79 256.09
  Q 100.17 251.82 104.80 247.80
  Q 108.29 244.75 111.34 241.29
  Q 114.73 237.43 116.72 235.78
  Q 119.70 233.31 122.91 231.14
  Q 132.92 224.36 142.61 217.13
  Q 149.23 212.18 156.76 208.77
  A 0.70 0.62 -0.1 0 0 157.05 208.51
  Q 157.30 208.04 156.64 208.42
  Q 156.49 208.50 156.35 208.55
  Q 146.63 211.48 130.00 218.50
  Q 121.58 222.06 116.09 224.85
  Q 108.13 228.90 106.88 229.47
  Q 102.20 231.62 97.50 233.75
  Q 91.98 236.25 85.46 241.26
  A 1.70 0.98 -88.0 0 0 84.96 242.06
  Q 84.57 243.32 82.94 243.69
  Q 80.63 244.20 75.89 246.86
  Q 73.93 247.97 69.44 251.10
  Q 65.67 253.74 61.63 255.96
  Q 56.57 258.75 53.84 260.76
  Q 48.72 264.54 43.77 268.55
  Q 40.72 271.03 35.17 274.72
  Q 28.96 278.85 23.66 284.11
  Q 20.94 286.80 17.92 288.87
  Q 11.48 293.29 5.99 298.64
  A 1.69 1.68 53.5 0 0 5.69 300.65
  Q 11.56 311.25 17.82 321.48
  Q 22.14 328.57 28.75 342.25
  Q 40.47 366.53 44.86 376.65
  Q 44.89 376.71 45.65 378.77
  Q 46.33 380.64 48.06 383.69
  Q 50.05 387.19 53.12 397.22
  Q 54.46 401.59 55.78 404.64
  Q 58.10 410.01 59.31 411.69
  Q 61.32 414.46 61.94 417.31
  Q 62.71 420.86 63.72 423.40
  Q 79.20 462.19 91.69 502.05
  Q 92.82 505.66 94.08 510.53
  Q 95.67 516.74 96.50 519.00
  Q 101.68 533.13 105.44 547.68
  Q 106.46 551.66 107.90 556.64
  Q 109.18 561.12 110.28 565.65
  Q 111.42 570.39 113.26 576.21
  Q 114.92 581.45 116.14 586.82
  Q 119.11 599.81 122.47 612.69
  Q 127.20 630.79 130.71 649.16
  Q 133.28 662.62 134.56 668.79
  Q 141.84 703.96 147.62 740.01
  A 0.90 0.89 -4.5 0 0 148.51 740.76
  Q 182.98 740.58 216.51 741.08
  Q 226.64 741.24 236.51 741.15
  Q 271.60 740.86 306.69 741.18
  Q 307.19 741.19 306.92 740.75
  Q 304.32 736.55 300.06 732.44
  Q 289.30 722.05 279.30 709.15
  Q 276.73 705.84 274.28 703.20
  Q 271.64 700.35 269.01 697.49
  Q 265.04 693.17 261.69 688.43
  Q 255.93 680.26 250.28 672.01
  Q 249.52 670.89 247.87 669.30
  Q 246.53 668.01 245.51 666.46
  Q 242.88 662.47 242.46 661.94
  Q 235.90 653.74 230.55 644.69
  Q 229.41 642.75 229.27 640.49
  A 1.74 1.59 -67.2 0 0 228.95 639.59
  Q 224.98 634.20 221.24 628.64
  Q 220.55 627.61 217.93 624.13
  Q 216.25 621.89 214.88 619.44
  Q 211.26 612.97 211.18 612.84
  Q 203.81 600.83 197.58 588.18
  Q 196.04 585.06 192.56 579.94
  Q 189.10 574.83 186.02 568.46
  Q 181.73 559.58 180.11 556.66
  Q 170.33 538.97 160.65 521.21
  Q 159.32 518.77 157.99 514.61
  Q 156.38 509.53 153.51 504.97
  Q 149.78 499.06 146.17 493.07
  Q 144.44 490.20 142.35 487.59
  Q 139.80 484.40 138.50 482.18
  Q 137.29 480.11 136.09 478.05
  Q 136.03 477.94 133.44 474.34
  Q 132.01 472.35 131.54 469.96
  Q 131.43 469.41 131.11 468.96
  Q 127.12 463.36 125.59 458.30
  Q 125.16 456.89 124.26 455.60
  Q 123.37 454.32 122.73 452.90
  Q 122.00 451.30 120.64 449.49
  Q 119.11 447.46 118.67 444.95
  Q 118.15 441.94 117.62 440.72
  Q 114.12 432.54 110.76 424.30
  Q 106.86 414.75 103.66 408.02
  Q 99.10 398.44 94.34 388.98
  A 0.73 0.72 -32.3 0 1 94.55 388.07
  Q 96.94 386.29 99.31 384.49
  Q 101.58 382.78 103.86 380.65
  Q 123.38 362.47 144.75 346.48
  Q 155.93 338.12 166.45 328.92
  A 0.43 0.43 -56.0 0 0 166.31 328.19
  Q 164.15 327.45 161.95 326.83
  Q 159.67 326.19 157.66 325.34
  Q 150.65 322.34 143.33 320.19
  Q 140.23 319.28 134.56 318.29
  Q 130.13 317.52 125.75 316.50
  Q 109.07 312.58 92.25 309.29
  Z
  M 233.4581 639.3682
  A 1.06 0.85 14.1 0 0 232.6371 638.2856
  A 1.06 0.85 14.1 0 0 231.4019 638.8518
  A 1.06 0.85 14.1 0 0 232.2229 639.9344
  A 1.06 0.85 14.1 0 0 233.4581 639.3682
  Z
  M 396.5090 639.0760
  A 0.97 0.81 -2.6 0 0 395.5033 638.3108
  A 0.97 0.81 -2.6 0 0 394.5710 639.1640
  A 0.97 0.81 -2.6 0 0 395.5767 639.9292
  A 0.97 0.81 -2.6 0 0 396.5090 639.0760
  Z
  M 192.91 890.23
  Q 193.33 890.19 193.18 890.69
  Q 191.33 896.79 191.56 903.09
  Q 191.69 906.51 192.82 908.18
  Q 194.85 911.18 199.06 909.06
  Q 205.09 906.04 209.39 898.91
  Q 210.01 897.89 209.41 897.57
  A 0.67 0.51 -58.3 0 0 208.66 897.86
  Q 207.00 900.38 204.79 902.37
  Q 202.94 904.04 201.19 904.19
  Q 198.02 904.48 198.06 900.19
  Q 198.14 892.07 200.52 882.19
  Q 205.39 861.96 212.75 842.50
  Q 221.85 818.43 234.10 799.88
  Q 239.73 791.37 247.26 784.51
  Q 251.90 780.30 257.69 777.94
  Q 263.60 775.53 268.50 776.75
  Q 272.30 777.70 272.71 782.01
  A 1.24 0.66 -87.1 0 0 273.10 782.85
  Q 273.61 783.16 274.00 782.25
  Q 274.80 780.39 275.07 776.74
  Q 275.54 770.32 269.25 770.00
  Q 263.95 769.73 258.31 773.06
  Q 250.88 777.43 244.90 783.66
  Q 238.04 790.80 232.59 799.08
  Q 212.73 829.26 200.78 863.90
  A 1.00 1.00 21.9 0 1 199.42 864.48
  Q 195.10 862.50 189.75 863.52
  Q 183.84 864.65 179.15 868.43
  Q 164.16 880.53 164.38 899.56
  Q 164.42 903.20 165.54 905.25
  Q 167.08 908.08 170.21 909.22
  Q 172.19 909.94 174.25 909.08
  Q 176.21 908.26 177.91 906.90
  Q 186.49 899.97 192.36 890.63
  A 0.89 0.57 -68.8 0 1 192.91 890.23
  Z
  M 245.73 890.34
  Q 245.98 890.67 245.80 891.27
  Q 243.98 897.37 244.45 903.61
  Q 244.71 907.01 246.05 908.57
  Q 248.28 911.14 252.31 908.81
  Q 258.33 905.35 262.24 898.97
  Q 262.90 897.89 262.27 897.49
  A 0.62 0.48 -56.6 0 0 261.53 897.74
  Q 258.58 902.17 256.44 903.44
  Q 253.53 905.16 251.94 903.39
  Q 250.95 902.28 250.92 899.86
  Q 250.85 894.98 252.19 888.69
  Q 256.82 866.97 263.42 848.31
  Q 267.15 837.78 270.66 829.67
  Q 278.27 812.10 289.38 796.40
  Q 294.66 788.93 302.69 782.44
  Q 309.70 776.76 318.16 776.48
  Q 321.14 776.38 322.70 777.23
  Q 324.98 778.48 325.41 781.48
  Q 325.78 784.02 326.71 782.29
  Q 327.36 781.09 327.58 779.74
  Q 328.35 775.17 326.98 772.65
  Q 325.75 770.38 322.03 770.05
  Q 318.83 769.77 316.06 770.81
  Q 307.81 773.92 300.64 780.89
  Q 296.19 785.23 292.19 789.97
  Q 288.66 794.16 284.85 799.96
  Q 265.03 830.13 253.44 864.42
  A 0.47 0.47 -69.9 0 1 252.82 864.71
  Q 245.61 861.88 238.81 864.64
  Q 227.58 869.21 221.87 879.90
  Q 216.41 890.11 217.49 901.73
  Q 218.08 908.06 224.49 909.64
  A 2.85 2.80 -51.6 0 0 226.47 909.39
  Q 232.68 906.11 236.57 901.82
  Q 241.34 896.55 245.05 890.49
  A 0.47 0.37 -50.6 0 1 245.73 890.34
  Z
  M 514.44 909.31
  Q 517.19 910.74 520.40 908.70
  Q 527.14 904.43 531.25 897.57
  Q 532.08 896.18 530.86 896.68
  Q 530.58 896.79 530.35 897.08
  Q 527.49 900.71 525.06 902.56
  Q 522.19 904.76 519.21 902.73
  A 1.49 1.42 -82.3 0 1 518.66 901.97
  Q 517.61 898.51 518.25 893.75
  Q 520.33 878.22 523.70 866.78
  Q 529.24 847.92 537.53 830.17
  Q 542.72 819.07 546.66 812.37
  Q 554.87 798.45 566.56 787.06
  Q 573.99 779.83 584.43 780.12
  Q 589.73 780.26 591.00 785.27
  Q 591.56 787.44 592.31 785.33
  Q 593.79 781.19 592.52 776.82
  Q 591.32 772.72 587.00 772.81
  Q 580.47 772.95 575.03 776.52
  Q 567.77 781.28 562.04 787.79
  Q 554.45 796.41 548.44 806.19
  Q 535.89 826.58 526.46 848.59
  Q 517.73 868.98 513.00 890.65
  Q 511.07 899.47 511.75 904.75
  Q 512.19 908.15 514.44 909.31
  Z
  M 39.29 905.12
  Q 48.60 909.37 60.00 909.75
  Q 75.37 910.27 89.93 905.02
  A 3.11 3.09 -86.1 0 0 91.63 903.53
  Q 98.12 891.03 100.85 877.88
  Q 100.95 877.39 100.93 876.98
  Q 100.82 875.16 99.82 876.66
  Q 99.58 877.01 99.44 877.52
  Q 96.41 888.32 89.56 896.31
  Q 83.03 903.93 73.85 906.12
  Q 65.64 908.09 56.11 906.27
  Q 47.74 904.68 40.89 899.64
  Q 34.93 895.25 30.72 888.36
  Q 26.58 881.59 25.00 874.00
  Q 21.23 855.92 26.08 838.27
  Q 28.81 828.32 34.12 820.04
  Q 51.39 793.08 86.50 793.85
  Q 98.87 794.12 109.01 800.99
  Q 112.28 803.21 112.74 806.71
  Q 112.97 808.47 112.09 811.19
  Q 111.38 813.37 110.50 815.50
  Q 110.17 816.29 110.70 816.43
  A 0.91 0.61 -61.7 0 0 111.48 816.02
  Q 116.51 808.87 117.92 800.24
  A 1.64 1.48 -55.2 0 0 117.80 799.29
  Q 116.14 795.69 111.94 794.31
  Q 103.47 791.55 95.04 790.99
  Q 86.85 790.46 77.97 791.43
  Q 62.90 793.09 49.62 801.07
  Q 33.39 810.83 24.06 827.31
  Q 13.70 845.61 14.33 866.75
  Q 14.78 882.05 23.62 893.03
  Q 29.93 900.86 39.29 905.12
  Z
  M 446.46 802.62
  Q 447.83 802.98 446.51 803.49
  Q 435.46 807.85 428.31 817.31
  Q 418.18 830.73 412.20 849.48
  Q 410.26 855.55 408.18 861.56
  Q 403.24 875.87 394.31 888.06
  Q 385.30 900.36 369.81 903.31
  Q 360.67 905.05 352.12 903.72
  Q 345.09 902.62 341.05 899.72
  Q 335.97 896.06 334.02 889.49
  Q 331.18 879.97 337.22 872.47
  Q 337.81 871.73 337.42 871.16
  A 0.59 0.49 -34.7 0 0 336.66 871.09
  Q 328.99 876.41 327.36 884.83
  Q 325.95 892.14 329.07 898.36
  Q 332.40 904.98 340.20 907.89
  Q 344.81 909.61 349.75 909.77
  Q 374.36 910.57 391.75 895.63
  Q 398.55 889.78 404.78 880.53
  Q 413.34 867.83 418.04 853.01
  Q 421.91 840.85 426.83 829.07
  Q 431.55 817.79 439.81 810.56
  Q 444.17 806.76 450.31 805.27
  Q 452.81 804.67 455.66 805.40
  Q 459.11 806.28 462.52 807.35
  A 1.08 1.00 35.1 0 0 463.41 807.23
  Q 466.10 805.38 467.19 802.40
  A 0.92 0.92 -71.9 0 0 466.58 801.19
  Q 453.75 797.61 440.74 794.78
  Q 425.14 791.37 409.21 791.03
  Q 400.72 790.84 397.79 790.95
  Q 392.07 791.17 386.44 792.45
  Q 355.16 799.56 352.50 831.75
  Q 352.39 833.14 352.94 837.75
  A 1.41 0.97 -81.5 0 0 353.36 838.61
  Q 353.93 839.07 354.25 838.51
  Q 354.44 838.19 354.39 837.57
  Q 352.77 818.48 365.37 806.85
  Q 371.38 801.31 379.71 798.39
  Q 387.85 795.54 396.50 795.75
  Q 422.25 796.39 446.46 802.62
  Z
  M 506.83 845.09
  Q 504.96 847.13 503.42 849.45
  Q 502.19 851.30 502.82 853.46
  Q 503.41 855.50 504.46 853.65
  Q 509.23 845.21 517.43 836.30
  A 0.65 0.64 -52.4 0 0 517.31 835.32
  Q 516.82 835.02 516.03 835.76
  Q 511.25 840.25 506.83 845.09
  Z
  M 138.45 891.69
  Q 137.29 897.34 137.70 904.24
  Q 137.85 906.92 139.20 908.74
  Q 140.47 910.46 142.48 909.76
  Q 150.12 907.10 154.51 900.37
  Q 154.76 899.99 154.91 899.59
  Q 155.77 897.20 153.89 898.99
  Q 153.59 899.27 153.33 899.70
  Q 150.73 903.92 146.51 905.33
  Q 144.31 906.07 144.00 903.77
  Q 143.51 900.09 143.98 896.48
  Q 144.29 894.17 145.47 889.41
  Q 148.95 875.48 157.76 863.99
  Q 158.40 863.15 157.35 863.22
  Q 153.86 863.48 151.39 865.43
  A 0.76 0.72 -48.5 0 1 150.57 865.50
  Q 147.47 863.73 145.50 863.50
  Q 130.95 861.81 120.81 872.31
  Q 110.05 883.46 110.16 898.58
  Q 110.18 901.31 110.79 903.36
  Q 111.60 906.11 113.06 907.69
  Q 115.99 910.83 119.69 909.19
  Q 124.40 907.10 128.63 902.39
  Q 133.40 897.09 137.57 891.30
  Q 138.92 889.43 138.45 891.69
  Z
  M 281.92 870.48
  Q 273.99 882.93 271.59 897.52
  Q 270.80 902.31 272.07 906.98
  Q 273.01 910.45 276.00 909.75
  Q 284.93 907.66 291.91 899.65
  Q 297.46 893.27 302.28 886.33
  Q 303.16 885.05 303.42 885.86
  Q 303.53 886.18 303.35 886.63
  Q 299.03 897.99 294.88 909.42
  Q 290.71 920.88 284.73 931.52
  Q 281.66 936.96 278.56 940.56
  Q 270.24 950.22 257.97 951.07
  Q 251.01 951.54 246.66 949.94
  Q 240.82 947.79 238.07 941.36
  Q 234.76 933.63 239.14 926.61
  Q 241.03 923.57 238.41 925.14
  Q 237.95 925.41 237.54 925.83
  Q 228.86 934.38 233.50 944.54
  Q 235.35 948.59 238.73 950.96
  Q 242.33 953.48 246.75 954.00
  Q 264.71 956.11 278.08 943.81
  Q 286.51 936.06 292.05 926.03
  Q 297.92 915.42 302.09 904.03
  Q 309.36 884.16 316.43 864.45
  Q 317.07 862.66 315.26 863.25
  Q 311.47 864.47 309.97 868.13
  Q 301.93 887.76 286.43 902.19
  Q 284.64 903.86 282.20 904.00
  Q 278.02 904.25 277.82 900.00
  Q 277.56 894.28 279.05 888.76
  Q 282.55 875.81 289.91 864.61
  Q 290.24 864.11 290.20 863.69
  Q 290.10 862.71 289.00 863.25
  Q 281.19 867.06 273.56 874.31
  Q 272.41 875.41 273.45 875.46
  A 1.48 0.95 -54.4 0 0 274.33 875.11
  Q 277.77 872.27 281.74 870.28
  Q 282.19 870.06 281.92 870.48
  Z
  M 458.12 890.80
  Q 457.60 894.91 457.12 899.01
  Q 456.57 903.61 458.07 907.95
  Q 458.62 909.55 460.31 909.69
  Q 462.61 909.88 464.55 908.95
  Q 465.58 908.46 468.06 906.66
  Q 472.20 903.66 474.70 899.13
  A 0.48 0.37 -68.7 0 0 474.51 898.46
  Q 473.99 898.38 473.44 899.19
  Q 470.86 902.95 466.93 905.19
  Q 464.46 906.60 463.65 903.88
  Q 463.06 901.90 463.33 899.26
  Q 465.36 879.74 477.25 864.11
  Q 477.93 863.21 476.80 863.26
  Q 473.73 863.40 470.97 865.38
  A 0.92 0.89 -50.4 0 1 470.07 865.48
  Q 459.19 860.73 448.94 865.94
  Q 439.28 870.84 433.78 881.10
  Q 428.98 890.04 429.83 900.24
  Q 430.23 905.04 432.75 907.75
  Q 435.33 910.53 438.50 909.50
  Q 442.67 908.14 447.06 903.56
  Q 451.07 899.39 457.87 890.71
  Q 458.19 890.31 458.12 890.80
  Z
  M 495.93 869.49
  Q 487.65 883.56 484.21 899.52
  Q 484.01 900.42 483.99 901.51
  Q 483.97 902.50 483.91 903.49
  Q 483.54 909.39 487.90 909.73
  Q 490.48 909.93 493.52 907.78
  Q 498.02 904.60 502.06 899.56
  Q 503.06 898.32 501.93 898.37
  A 1.28 0.97 -65.6 0 0 501.12 898.81
  Q 498.81 901.47 495.95 903.46
  Q 494.14 904.71 492.66 904.47
  Q 490.30 904.07 490.27 901.00
  Q 490.24 897.06 491.23 893.24
  Q 495.02 878.71 502.39 865.64
  Q 502.82 864.88 502.85 864.27
  Q 502.95 862.55 501.19 863.44
  Q 493.46 867.34 486.20 874.70
  Q 485.40 875.52 485.93 875.66
  A 1.13 0.71 -51.5 0 0 486.81 875.35
  Q 490.87 871.70 495.74 869.28
  Q 496.19 869.06 495.93 869.49
  Z
  M 541.9647 908.8076
  A 25.25 13.75 116.7 0 0 565.5939 892.4281
  A 25.25 13.75 116.7 0 0 564.6553 863.6924
  A 25.25 13.75 116.7 0 0 541.0261 880.0719
  A 25.25 13.75 116.7 0 0 541.9647 908.8076
  Z
  M 593.34 879.72
  Q 593.91 875.32 594.15 870.90
  Q 594.37 866.98 594.31 866.60
  Q 593.89 863.82 590.48 863.49
  Q 587.24 863.18 584.19 865.69
  Q 580.09 869.05 578.03 871.77
  Q 577.80 872.07 577.70 872.41
  Q 577.09 874.43 578.78 872.54
  Q 580.86 870.23 583.46 868.60
  Q 585.05 867.60 586.36 867.79
  Q 588.62 868.12 588.25 871.00
  Q 585.82 889.92 579.62 908.38
  A 1.03 1.03 9.5 0 0 580.59 909.73
  Q 585.33 909.80 586.17 906.48
  Q 589.25 894.18 594.39 882.60
  Q 594.88 881.50 597.19 877.69
  Q 600.12 872.85 604.97 871.28
  Q 607.16 870.57 608.70 871.01
  Q 610.83 871.61 611.52 874.03
  Q 611.91 875.40 612.68 874.20
  Q 614.27 871.72 615.00 868.89
  Q 615.95 865.15 612.52 863.79
  Q 609.89 862.74 607.27 863.79
  Q 601.81 865.98 598.61 870.94
  Q 595.87 875.18 593.74 879.78
  Q 593.65 879.96 593.53 879.99
  A 0.23 0.17 -89.5 0 1 593.34 879.72
  Z"
/>
<path fill="#010101" d="
  M 538.75 308.79
  Q 554.41 306.81 570.16 306.19
  A 0.49 0.49 75.8 0 0 570.58 305.48
  Q 568.58 301.30 565.77 297.69
  Q 561.11 291.67 556.71 285.45
  Q 552.41 279.35 547.74 273.96
  Q 543.40 268.96 539.23 263.83
  Q 535.12 258.78 530.71 254.70
  Q 525.82 250.20 520.98 245.66
  Q 520.91 245.59 514.99 239.41
  Q 511.58 235.85 506.81 232.44
  Q 499.38 227.11 491.79 222.00
  Q 482.39 214.00 471.26 208.65
  Q 470.82 208.44 471.30 208.58
  Q 481.71 211.70 483.75 212.50
  Q 502.78 220.00 511.50 224.50
  Q 524.67 231.29 530.75 233.75
  Q 535.20 235.55 542.79 241.50
  A 1.39 0.98 -82.1 0 1 543.21 242.32
  Q 543.35 243.33 544.27 243.52
  Q 545.49 243.78 545.57 243.81
  Q 552.92 246.73 559.23 251.53
  Q 563.77 254.98 568.97 257.32
  Q 571.64 258.51 573.89 260.37
  Q 584.90 269.48 596.69 277.55
  Q 601.21 280.64 604.25 284.00
  Q 606.45 286.42 608.46 287.80
  Q 615.38 292.54 622.03 298.61
  A 1.76 1.75 36.1 0 1 622.37 300.78
  Q 616.67 310.71 611.02 320.33
  Q 605.20 330.23 601.37 337.82
  Q 588.73 362.81 578.09 388.71
  Q 578.08 388.74 573.95 400.06
  Q 571.29 407.35 567.31 414.06
  Q 566.86 414.82 565.86 418.00
  Q 565.17 420.21 564.49 421.96
  Q 551.69 455.02 539.75 491.25
  Q 536.90 499.90 534.67 507.82
  Q 532.33 516.14 529.61 524.38
  Q 526.14 534.85 522.19 548.94
  Q 516.03 570.87 504.25 618.75
  Q 500.00 636.03 497.96 646.35
  Q 495.93 656.59 495.92 656.62
  Q 487.23 698.24 480.27 740.19
  A 0.59 0.57 -85.3 0 1 479.70 740.69
  Q 436.09 740.78 392.49 741.16
  Q 383.70 741.24 372.51 741.10
  Q 346.88 740.79 321.25 741.24
  Q 320.75 741.25 321.02 740.82
  Q 324.37 735.59 328.31 731.81
  Q 335.91 724.53 341.15 718.18
  Q 346.01 712.29 350.92 706.43
  Q 351.32 705.96 359.08 697.56
  Q 362.36 694.00 365.15 690.03
  Q 368.48 685.29 368.58 685.16
  Q 371.88 680.64 375.05 676.05
  Q 378.00 671.77 381.72 667.11
  Q 390.39 656.21 396.94 645.44
  Q 397.92 643.83 398.69 641.58
  Q 399.45 639.38 400.53 637.85
  Q 417.74 613.63 431.20 587.13
  Q 433.35 582.89 437.25 577.00
  Q 439.25 573.98 441.00 570.32
  Q 443.76 564.54 444.36 563.43
  Q 452.41 548.29 460.70 533.28
  Q 466.74 522.35 469.11 516.80
  Q 472.67 508.48 475.35 499.32
  A 0.52 0.51 12.0 0 0 474.92 498.67
  Q 469.19 497.98 464.74 498.44
  A 0.80 0.78 -83.9 0 0 464.09 498.98
  Q 459.40 513.22 452.03 526.29
  Q 447.63 534.08 443.50 542.00
  Q 441.43 545.97 441.06 547.31
  Q 440.72 548.57 438.12 551.88
  Q 434.22 556.84 431.58 562.51
  Q 429.11 567.80 428.08 569.82
  Q 426.85 572.23 425.75 574.71
  Q 424.59 577.32 423.26 579.48
  Q 419.41 585.74 417.31 590.06
  Q 411.73 601.57 404.94 610.85
  Q 402.23 614.56 400.45 618.22
  Q 392.95 633.60 383.39 647.76
  Q 378.37 655.21 374.23 662.13
  Q 366.38 675.24 357.94 686.19
  Q 353.59 691.82 351.26 695.31
  Q 341.70 709.59 329.75 721.96
  Q 331.78 718.04 333.68 714.07
  Q 334.40 712.56 337.70 706.21
  Q 340.38 701.07 343.31 693.81
  Q 352.64 670.77 354.54 665.14
  Q 355.51 662.25 357.44 659.19
  Q 360.43 654.43 362.01 648.79
  Q 363.68 642.85 363.70 642.77
  Q 372.37 615.61 378.19 592.69
  Q 380.02 585.49 381.55 580.15
  Q 383.94 571.82 384.94 567.62
  Q 388.79 551.32 392.53 535.00
  Q 394.63 525.82 396.33 515.38
  Q 401.00 486.76 406.56 458.30
  Q 408.85 446.58 410.08 438.63
  Q 415.71 402.22 417.75 370.75
  Q 421.57 311.89 422.00 301.00
  Q 422.88 278.55 423.71 189.50
  L 424.51 181.32
  A 0.55 0.52 2.4 0 0 423.96 180.75
  L 204.07 180.81
  A 0.47 0.45 -2.2 0 0 203.60 181.30
  L 204.54 192.75
  Q 204.20 197.73 204.25 200.25
  Q 205.07 240.50 205.61 280.75
  Q 205.94 306.03 207.69 331.25
  Q 208.96 349.62 210.19 367.99
  Q 212.45 401.96 217.47 435.61
  Q 218.66 443.62 220.92 455.31
  Q 226.67 485.15 231.64 515.13
  Q 233.45 526.05 235.39 534.77
  Q 240.10 555.86 245.48 576.78
  Q 245.98 578.72 247.27 582.64
  Q 248.22 585.56 248.93 588.55
  Q 250.95 597.17 250.98 597.26
  Q 257.69 622.02 265.44 646.48
  Q 265.56 646.86 266.41 650.46
  Q 266.91 652.58 267.94 654.31
  Q 272.01 661.22 274.52 668.30
  Q 276.58 674.10 276.60 674.16
  Q 285.95 698.54 298.00 721.71
  Q 285.65 708.86 275.66 694.17
  Q 271.16 687.56 266.17 680.85
  Q 257.60 669.35 250.74 656.73
  Q 249.46 654.37 246.96 651.36
  Q 245.01 649.00 243.48 646.36
  Q 240.82 641.79 240.40 641.15
  Q 232.18 628.43 227.81 618.94
  Q 225.67 614.28 224.93 613.32
  Q 216.62 602.49 212.50 594.00
  Q 208.18 585.09 205.72 580.85
  Q 201.19 573.02 197.53 564.73
  Q 194.48 557.81 191.81 554.44
  Q 188.34 550.04 186.63 546.41
  Q 184.84 542.60 184.81 542.55
  Q 182.48 538.19 179.99 533.93
  Q 172.11 520.45 166.37 506.09
  Q 166.09 505.39 165.89 504.66
  Q 164.35 499.12 161.41 495.81
  Q 161.08 495.44 160.94 494.96
  Q 160.34 492.89 159.06 491.69
  Q 153.95 486.87 151.43 481.14
  Q 148.73 475.02 144.79 469.69
  Q 141.56 465.33 140.37 462.90
  Q 138.81 459.69 137.06 455.44
  Q 135.40 451.40 132.34 447.32
  Q 131.44 446.11 130.45 443.71
  Q 129.50 441.36 127.44 439.06
  Q 126.73 438.27 126.46 436.86
  Q 126.16 435.34 125.85 434.60
  Q 117.07 414.05 108.33 393.69
  A 0.50 0.49 -31.8 0 1 108.47 393.11
  Q 132.01 373.97 155.68 355.43
  Q 173.51 341.46 191.79 328.10
  Q 192.19 327.81 191.73 327.63
  Q 178.06 322.18 164.31 316.94
  Q 149.70 311.36 140.99 309.02
  Q 129.10 305.82 117.14 302.86
  Q 109.13 300.87 99.69 299.53
  Q 91.03 298.30 82.12 296.90
  Q 81.77 296.85 82.02 296.61
  Q 86.80 292.07 90.71 286.73
  Q 94.48 281.60 97.02 278.87
  Q 107.54 267.59 114.19 259.69
  Q 115.23 258.45 116.23 257.69
  Q 118.06 256.29 118.44 255.92
  Q 126.63 247.59 140.56 235.06
  Q 144.95 231.11 147.10 229.56
  Q 153.19 225.13 159.04 220.38
  Q 166.19 214.58 170.96 211.22
  Q 181.82 203.59 192.96 196.00
  Q 194.35 195.05 194.29 193.38
  L 193.45 169.48
  A 0.94 0.94 88.8 0 1 194.39 168.50
  L 204.74 168.50
  A 0.51 0.51 0.0 0 0 205.25 167.99
  Q 205.25 149.59 205.25 131.50
  Q 205.25 112.49 205.30 111.50
  Q 206.17 94.25 212.44 76.44
  Q 215.07 68.94 217.61 65.13
  Q 228.47 48.77 230.56 45.81
  Q 231.74 44.15 233.42 42.65
  Q 235.06 41.19 236.30 39.60
  Q 239.08 36.05 242.86 33.64
  Q 245.81 31.76 247.54 30.10
  Q 255.31 22.66 263.06 19.06
  Q 269.44 16.11 285.61 10.51
  Q 291.06 8.63 296.14 8.07
  Q 313.03 6.24 329.91 7.95
  Q 336.18 8.58 342.84 10.73
  Q 356.47 15.13 365.25 19.25
  Q 372.64 22.72 380.10 29.77
  Q 381.91 31.48 384.99 33.49
  Q 389.00 36.11 391.94 39.93
  Q 392.81 41.06 394.31 42.31
  Q 395.63 43.42 396.64 44.85
  Q 403.17 54.14 409.31 63.69
  Q 413.69 70.50 415.28 74.86
  Q 419.14 85.52 421.12 96.61
  Q 422.57 104.73 422.69 116.50
  Q 422.80 128.48 422.50 143.00
  Q 422.29 152.87 422.67 168.06
  A 0.54 0.50 88.3 0 0 423.18 168.58
  L 433.03 168.44
  A 1.51 1.48 0.5 0 1 434.56 169.97
  L 433.81 194.45
  A 1.02 0.90 20.4 0 0 434.23 195.24
  Q 444.58 202.71 455.14 209.90
  Q 461.06 213.93 467.72 219.38
  Q 471.80 222.71 475.98 225.91
  Q 482.11 230.58 484.28 232.37
  Q 495.74 241.79 504.44 250.81
  Q 508.60 255.13 511.99 257.84
  Q 513.17 258.79 514.54 260.59
  Q 515.70 262.12 517.28 263.28
  A 1.66 1.35 -86.6 0 1 517.83 264.05
  Q 518.32 265.54 519.75 267.00
  Q 525.61 273.01 531.44 279.06
  Q 534.13 281.85 535.13 283.40
  Q 539.70 290.45 545.64 296.39
  Q 546.00 296.75 545.51 296.83
  Q 533.30 298.96 521.00 300.50
  Q 516.14 301.11 505.91 304.04
  Q 499.87 305.77 490.93 307.87
  Q 482.47 309.86 476.00 312.25
  Q 456.10 319.61 436.09 327.92
  Q 435.62 328.12 436.04 328.40
  Q 444.89 334.12 452.90 340.38
  Q 467.93 352.12 467.99 352.17
  Q 488.40 367.50 499.69 377.06
  Q 508.98 384.94 518.98 392.54
  A 1.51 1.50 -59.6 0 1 519.45 394.36
  Q 507.89 420.09 498.02 445.88
  Q 497.75 446.60 497.23 448.68
  Q 496.94 449.88 496.41 450.99
  A 0.70 0.68 15.9 0 1 495.70 451.37
  Q 491.55 450.88 489.56 452.56
  Q 485.34 456.13 480.95 459.50
  Q 464.82 471.88 454.72 490.08
  A 1.03 1.03 47.4 0 0 454.68 491.00
  Q 455.61 493.04 456.97 494.30
  Q 458.19 495.43 460.53 495.46
  Q 491.26 495.79 522.00 495.75
  Q 522.88 495.75 523.75 493.25
  L 540.39 445.34
  A 0.59 0.59 14.2 0 0 539.92 444.56
  Q 535.28 443.82 530.65 444.73
  Q 522.15 446.40 513.75 448.52
  Q 510.57 449.32 506.90 449.59
  Q 506.01 449.66 506.61 449.01
  Q 507.85 447.66 508.47 445.92
  Q 509.09 444.19 509.12 444.10
  Q 514.74 430.61 520.17 417.05
  Q 522.49 411.26 525.53 405.34
  Q 528.47 399.60 531.31 393.81
  Q 532.94 390.49 533.44 388.68
  A 0.79 0.78 28.0 0 0 533.18 387.86
  Q 531.58 386.49 529.83 385.31
  Q 527.80 383.94 526.53 382.76
  Q 504.17 362.01 479.79 343.67
  Q 470.77 336.89 461.70 329.15
  Q 460.88 328.45 461.92 328.16
  Q 468.09 326.45 473.39 324.09
  Q 481.86 320.32 490.89 318.64
  Q 501.42 316.68 503.00 316.30
  Q 510.97 314.39 518.94 312.51
  Q 528.76 310.21 538.75 308.79
  Z
  M 250.70 169.31
  L 377.19 169.19
  A 0.51 0.50 -90.0 0 0 377.69 168.68
  Q 377.87 120.01 377.75 111.25
  Q 377.51 94.06 368.89 79.51
  Q 363.87 71.06 355.79 64.59
  Q 340.13 52.07 319.57 48.91
  Q 314.54 48.14 309.51 48.82
  Q 285.06 52.11 267.24 68.99
  Q 262.74 73.25 259.94 77.94
  Q 252.25 90.81 250.64 105.52
  Q 250.25 109.12 250.25 125.50
  Q 250.25 147.14 250.25 168.86
  A 0.45 0.45 45.0 0 0 250.70 169.31
  Z"
/>
<path fill="#fefefe" d="
  M 250.70 169.31
  A 0.45 0.45 45.0 0 1 250.25 168.86
  Q 250.25 147.14 250.25 125.50
  Q 250.25 109.12 250.64 105.52
  Q 252.25 90.81 259.94 77.94
  Q 262.74 73.25 267.24 68.99
  Q 285.06 52.11 309.51 48.82
  Q 314.54 48.14 319.57 48.91
  Q 340.13 52.07 355.79 64.59
  Q 363.87 71.06 368.89 79.51
  Q 377.51 94.06 377.75 111.25
  Q 377.87 120.01 377.69 168.68
  A 0.51 0.50 -90.0 0 1 377.19 169.19
  L 250.70 169.31
  Z"
/>
<path fill="#fefefe" d="
  M 423.71 189.50
  Q 423.31 191.81 422.69 193.19
  Q 418.97 201.44 417.76 210.32
  Q 416.30 220.94 416.27 221.12
  Q 415.51 226.00 414.50 234.00
  Q 408.64 280.63 396.25 362.75
  Q 393.69 379.72 386.68 404.73
  Q 386.64 404.85 385.91 407.79
  Q 385.21 410.56 384.19 412.19
  Q 382.81 414.37 382.53 416.49
  Q 382.04 420.04 381.93 420.43
  Q 379.65 428.19 377.73 436.05
  Q 377.03 438.89 376.21 441.53
  Q 375.36 444.25 374.54 446.96
  Q 374.39 447.46 371.75 455.03
  Q 369.97 460.10 369.25 465.50
  Q 369.11 466.58 367.71 467.75
  Q 367.30 468.09 367.13 468.54
  Q 365.04 474.16 363.00 482.75
  Q 357.63 505.41 352.26 528.07
  Q 352.07 528.89 351.31 530.71
  Q 350.76 532.03 350.58 533.45
  Q 350.14 536.95 350.12 537.01
  Q 344.64 562.68 340.20 588.55
  Q 338.93 595.95 334.94 602.94
  Q 334.50 603.70 333.79 603.75
  Q 333.59 584.34 332.25 560.25
  Q 330.34 526.00 329.18 485.01
  Q 329.18 484.92 329.06 476.12
  Q 328.85 460.22 325.51 444.65
  Q 322.68 431.44 319.82 418.23
  Q 318.92 414.03 318.51 409.83
  A 0.35 0.34 87.0 0 1 318.85 409.44
  L 355.72 409.26
  A 1.06 1.05 -4.7 0 0 356.76 408.05
  Q 353.05 383.95 347.66 360.55
  Q 345.13 349.60 343.63 342.39
  Q 340.52 327.46 339.50 324.25
  Q 338.38 320.73 338.31 318.30
  A 1.54 1.28 -31.1 0 1 338.62 317.41
  Q 341.03 314.24 341.44 313.44
  Q 343.04 310.33 344.88 308.21
  Q 347.80 304.85 348.19 303.96
  Q 349.26 301.53 349.50 298.25
  Q 350.04 290.94 349.77 285.53
  Q 349.57 281.48 347.83 277.92
  Q 344.89 271.93 340.39 266.87
  Q 334.77 260.54 326.06 258.19
  Q 320.60 256.71 315.35 256.67
  Q 309.71 256.62 304.66 257.50
  Q 296.09 259.00 289.65 264.91
  Q 287.56 266.83 284.84 270.54
  Q 282.65 273.54 280.56 276.60
  Q 278.52 279.60 278.51 283.25
  Q 278.50 285.70 278.16 288.11
  Q 277.82 290.60 278.03 292.92
  Q 278.25 295.33 278.50 299.50
  Q 278.66 302.20 280.18 304.82
  Q 280.33 305.07 283.22 308.31
  Q 285.00 310.30 286.53 313.67
  Q 287.18 315.10 288.52 315.92
  Q 289.86 316.74 289.66 318.64
  Q 289.49 320.17 289.48 320.37
  Q 289.37 322.32 288.66 324.11
  Q 287.65 326.61 287.44 327.67
  Q 282.94 350.24 281.25 357.00
  Q 274.85 382.57 271.38 408.70
  A 0.44 0.43 3.9 0 0 271.82 409.19
  L 308.95 409.51
  A 0.55 0.54 3.4 0 1 309.49 410.11
  Q 309.04 414.37 308.10 418.67
  Q 304.94 433.08 302.07 447.55
  Q 300.27 456.69 299.76 463.18
  Q 299.20 470.16 299.00 479.00
  Q 298.76 489.59 297.06 535.57
  Q 297.02 536.73 296.70 538.90
  Q 296.45 540.56 296.44 542.25
  Q 296.40 546.16 296.40 546.25
  Q 294.92 575.11 293.96 604.00
  Q 292.57 602.60 292.06 601.44
  Q 287.77 591.58 286.18 581.02
  Q 284.40 569.15 284.38 569.04
  Q 278.28 537.05 273.50 518.25
  Q 268.91 500.23 264.94 482.06
  Q 263.31 474.58 261.19 469.31
  Q 260.70 468.11 259.35 466.62
  A 1.76 1.58 21.6 0 1 258.92 465.76
  Q 257.89 459.61 254.50 450.25
  Q 251.24 441.25 246.39 421.12
  Q 245.35 416.81 242.90 409.59
  Q 241.13 404.35 239.50 398.00
  Q 233.98 376.43 231.24 358.21
  Q 224.41 312.76 217.94 267.26
  Q 214.96 246.30 212.54 225.28
  Q 212.33 223.49 211.60 220.29
  Q 211.03 217.80 210.80 215.25
  Q 209.79 204.26 205.70 194.03
  Q 205.66 193.94 205.53 193.33
  Q 205.38 192.65 204.54 192.75
  L 203.60 181.30
  A 0.47 0.45 -2.2 0 1 204.07 180.81
  L 423.96 180.75
  A 0.55 0.52 2.4 0 1 424.51 181.32
  L 423.71 189.50
  Z
  M 274.80 480.69
  Q 274.47 478.17 274.44 480.75
  Q 274.43 481.71 274.76 480.93
  Q 274.81 480.82 274.80 480.69
  Z"
/>
<path fill="#bababb" d="
  M 423.71 189.50
  Q 422.88 278.55 422.00 301.00
  Q 421.57 311.89 417.75 370.75
  Q 415.71 402.22 410.08 438.63
  Q 408.85 446.58 406.56 458.30
  Q 401.00 486.76 396.33 515.38
  Q 394.63 525.82 392.53 535.00
  Q 388.79 551.32 384.94 567.62
  Q 383.94 571.82 381.55 580.15
  Q 380.02 585.49 378.19 592.69
  Q 372.37 615.61 363.70 642.77
  Q 363.68 642.85 362.01 648.79
  Q 360.43 654.43 357.44 659.19
  Q 355.51 662.25 354.54 665.14
  Q 352.64 670.77 343.31 693.81
  Q 340.38 701.07 337.70 706.21
  Q 334.40 712.56 333.68 714.07
  Q 331.78 718.04 329.75 721.96
  Q 325.63 725.33 321.98 729.23
  Q 321.24 730.03 320.21 730.00
  Q 321.98 722.09 324.71 714.44
  Q 325.00 713.61 327.44 709.44
  Q 330.97 703.38 332.94 694.49
  Q 333.53 691.82 334.42 689.22
  Q 338.80 676.41 336.61 662.08
  Q 336.23 659.59 336.32 657.07
  Q 337.29 631.27 333.79 603.75
  Q 334.50 603.70 334.94 602.94
  Q 338.93 595.95 340.20 588.55
  Q 344.64 562.68 350.12 537.01
  Q 350.14 536.95 350.58 533.45
  Q 350.76 532.03 351.31 530.71
  Q 352.07 528.89 352.26 528.07
  Q 357.63 505.41 363.00 482.75
  Q 365.04 474.16 367.13 468.54
  Q 367.30 468.09 367.71 467.75
  Q 369.11 466.58 369.25 465.50
  Q 369.97 460.10 371.75 455.03
  Q 374.39 447.46 374.54 446.96
  Q 375.36 444.25 376.21 441.53
  Q 377.03 438.89 377.73 436.05
  Q 379.65 428.19 381.93 420.43
  Q 382.04 420.04 382.53 416.49
  Q 382.81 414.37 384.19 412.19
  Q 385.21 410.56 385.91 407.79
  Q 386.64 404.85 386.68 404.73
  Q 393.69 379.72 396.25 362.75
  Q 408.64 280.63 414.50 234.00
  Q 415.51 226.00 416.27 221.12
  Q 416.30 220.94 417.76 210.32
  Q 418.97 201.44 422.69 193.19
  Q 423.31 191.81 423.71 189.50
  Z"
/>
<path fill="#bababb" d="
  M 204.54 192.75
  Q 205.38 192.65 205.53 193.33
  Q 205.66 193.94 205.70 194.03
  Q 209.79 204.26 210.80 215.25
  Q 211.03 217.80 211.60 220.29
  Q 212.33 223.49 212.54 225.28
  Q 214.96 246.30 217.94 267.26
  Q 224.41 312.76 231.24 358.21
  Q 233.98 376.43 239.50 398.00
  Q 241.13 404.35 242.90 409.59
  Q 245.35 416.81 246.39 421.12
  Q 251.24 441.25 254.50 450.25
  Q 257.89 459.61 258.92 465.76
  A 1.76 1.58 21.6 0 0 259.35 466.62
  Q 260.70 468.11 261.19 469.31
  Q 263.31 474.58 264.94 482.06
  Q 268.91 500.23 273.50 518.25
  Q 278.28 537.05 284.38 569.04
  Q 284.40 569.15 286.18 581.02
  Q 287.77 591.58 292.06 601.44
  Q 292.57 602.60 293.96 604.00
  L 291.71 628.00
  Q 291.52 633.73 290.61 639.37
  Q 289.75 644.78 289.74 648.71
  Q 289.74 657.84 289.75 666.97
  Q 289.75 668.63 290.11 670.48
  Q 290.46 672.23 290.71 674.00
  Q 291.15 681.61 292.06 684.44
  Q 294.08 690.69 295.75 697.04
  Q 297.42 703.38 300.19 708.56
  Q 305.66 718.81 307.79 729.75
  Q 307.09 730.76 306.11 729.65
  Q 302.34 725.38 298.00 721.71
  Q 285.95 698.54 276.60 674.16
  Q 276.58 674.10 274.52 668.30
  Q 272.01 661.22 267.94 654.31
  Q 266.91 652.58 266.41 650.46
  Q 265.56 646.86 265.44 646.48
  Q 257.69 622.02 250.98 597.26
  Q 250.95 597.17 248.93 588.55
  Q 248.22 585.56 247.27 582.64
  Q 245.98 578.72 245.48 576.78
  Q 240.10 555.86 235.39 534.77
  Q 233.45 526.05 231.64 515.13
  Q 226.67 485.15 220.92 455.31
  Q 218.66 443.62 217.47 435.61
  Q 212.45 401.96 210.19 367.99
  Q 208.96 349.62 207.69 331.25
  Q 205.94 306.03 205.61 280.75
  Q 205.07 240.50 204.25 200.25
  Q 204.20 197.73 204.54 192.75
  Z
  M 257.7386 568.3890
  A 0.82 0.82 0.0 0 0 257.4758 567.2596
  L 249.7331 562.4402
  A 0.82 0.82 0.0 0 0 248.6037 562.7030
  L 248.5614 562.7710
  A 0.82 0.82 0.0 0 0 248.8242 563.9004
  L 256.5669 568.7198
  A 0.82 0.82 0.0 0 0 257.6963 568.4570
  L 257.7386 568.3890
  Z
  M 269.34 618.93
  Q 270.36 618.04 270.56 616.48
  Q 271.62 608.13 270.51 599.81
  A 1.63 1.23 -78.4 0 0 270.10 598.95
  Q 268.77 597.66 268.07 599.57
  Q 267.18 601.99 267.53 604.53
  Q 268.44 611.23 268.24 618.41
  Q 268.20 619.92 269.34 618.93
  Z"
/>
<path fill="#010101" d="
  M 61.96 297.75
  Q 59.21 301.43 57.46 305.62
  A 0.44 0.44 -78.2 0 0 57.85 306.22
  Q 75.45 306.98 92.25 309.29
  Q 109.07 312.58 125.75 316.50
  Q 130.13 317.52 134.56 318.29
  Q 140.23 319.28 143.33 320.19
  Q 150.65 322.34 157.66 325.34
  Q 159.67 326.19 161.95 326.83
  Q 164.15 327.45 166.31 328.19
  A 0.43 0.43 -56.0 0 1 166.45 328.92
  Q 155.93 338.12 144.75 346.48
  Q 123.38 362.47 103.86 380.65
  Q 101.58 382.78 99.31 384.49
  Q 96.94 386.29 94.55 388.07
  A 0.73 0.72 -32.3 0 0 94.34 388.98
  Q 99.10 398.44 103.66 408.02
  Q 106.86 414.75 110.76 424.30
  Q 114.12 432.54 117.62 440.72
  Q 118.15 441.94 118.67 444.95
  Q 119.11 447.46 120.64 449.49
  Q 122.00 451.30 122.73 452.90
  Q 123.37 454.32 124.26 455.60
  Q 125.16 456.89 125.59 458.30
  Q 127.12 463.36 131.11 468.96
  Q 131.43 469.41 131.54 469.96
  Q 132.01 472.35 133.44 474.34
  Q 136.03 477.94 136.09 478.05
  Q 137.29 480.11 138.50 482.18
  Q 139.80 484.40 142.35 487.59
  Q 144.44 490.20 146.17 493.07
  Q 149.78 499.06 153.51 504.97
  Q 156.38 509.53 157.99 514.61
  Q 159.32 518.77 160.65 521.21
  Q 170.33 538.97 180.11 556.66
  Q 181.73 559.58 186.02 568.46
  Q 189.10 574.83 192.56 579.94
  Q 196.04 585.06 197.58 588.18
  Q 203.81 600.83 211.18 612.84
  Q 211.26 612.97 214.88 619.44
  Q 216.25 621.89 217.93 624.13
  Q 220.55 627.61 221.24 628.64
  Q 224.98 634.20 228.95 639.59
  A 1.74 1.59 -67.2 0 1 229.27 640.49
  Q 229.41 642.75 230.55 644.69
  Q 235.90 653.74 242.46 661.94
  Q 242.88 662.47 245.51 666.46
  Q 246.53 668.01 247.87 669.30
  Q 249.52 670.89 250.28 672.01
  Q 255.93 680.26 261.69 688.43
  Q 265.04 693.17 269.01 697.49
  Q 271.64 700.35 274.28 703.20
  Q 276.73 705.84 279.30 709.15
  Q 289.30 722.05 300.06 732.44
  Q 304.32 736.55 306.92 740.75
  Q 307.19 741.19 306.69 741.18
  Q 271.60 740.86 236.51 741.15
  Q 226.64 741.24 216.51 741.08
  Q 182.98 740.58 148.51 740.76
  A 0.90 0.89 -4.5 0 1 147.62 740.01
  Q 141.84 703.96 134.56 668.79
  Q 133.28 662.62 130.71 649.16
  Q 127.20 630.79 122.47 612.69
  Q 119.11 599.81 116.14 586.82
  Q 114.92 581.45 113.26 576.21
  Q 111.42 570.39 110.28 565.65
  Q 109.18 561.12 107.90 556.64
  Q 106.46 551.66 105.44 547.68
  Q 101.68 533.13 96.50 519.00
  Q 95.67 516.74 94.08 510.53
  Q 92.82 505.66 91.69 502.05
  Q 79.20 462.19 63.72 423.40
  Q 62.71 420.86 61.94 417.31
  Q 61.32 414.46 59.31 411.69
  Q 58.10 410.01 55.78 404.64
  Q 54.46 401.59 53.12 397.22
  Q 50.05 387.19 48.06 383.69
  Q 46.33 380.64 45.65 378.77
  Q 44.89 376.71 44.86 376.65
  Q 40.47 366.53 28.75 342.25
  Q 22.14 328.57 17.82 321.48
  Q 11.56 311.25 5.69 300.65
  A 1.69 1.68 53.5 0 1 5.99 298.64
  Q 11.48 293.29 17.92 288.87
  Q 20.94 286.80 23.66 284.11
  Q 28.96 278.85 35.17 274.72
  Q 40.72 271.03 43.77 268.55
  Q 48.72 264.54 53.84 260.76
  Q 56.57 258.75 61.63 255.96
  Q 65.67 253.74 69.44 251.10
  Q 73.93 247.97 75.89 246.86
  Q 80.63 244.20 82.94 243.69
  Q 84.57 243.32 84.96 242.06
  A 1.70 0.98 -88.0 0 1 85.46 241.26
  Q 91.98 236.25 97.50 233.75
  Q 102.20 231.62 106.88 229.47
  Q 108.13 228.90 116.09 224.85
  Q 121.58 222.06 130.00 218.50
  Q 146.63 211.48 156.35 208.55
  Q 156.49 208.50 156.64 208.42
  Q 157.30 208.04 157.05 208.51
  A 0.70 0.62 -0.1 0 1 156.76 208.77
  Q 149.23 212.18 142.61 217.13
  Q 132.92 224.36 122.91 231.14
  Q 119.70 233.31 116.72 235.78
  Q 114.73 237.43 111.34 241.29
  Q 108.29 244.75 104.80 247.80
  Q 100.17 251.82 95.79 256.09
  Q 92.40 259.39 88.27 264.42
  Q 84.69 268.76 81.04 273.03
  Q 76.08 278.85 71.38 285.28
  Q 66.77 291.59 61.96 297.75
  Z"
/>
<path fill="#d9dada" d="
  M 491.79 222.00
  Q 499.38 227.11 506.81 232.44
  Q 511.58 235.85 514.99 239.41
  Q 520.91 245.59 520.98 245.66
  Q 525.82 250.20 530.71 254.70
  Q 535.12 258.78 539.23 263.83
  Q 543.40 268.96 547.74 273.96
  Q 552.41 279.35 556.71 285.45
  Q 561.11 291.67 565.77 297.69
  Q 568.58 301.30 570.58 305.48
  A 0.49 0.49 75.8 0 1 570.16 306.19
  Q 554.41 306.81 538.75 308.79
  L 536.81 308.72
  Q 536.29 308.70 536.73 308.39
  Q 539.42 306.51 540.56 306.31
  Q 550.23 304.67 560.69 303.69
  Q 563.36 303.43 561.71 301.27
  L 539.35 271.96
  A 1.24 0.66 -70.0 0 1 539.23 271.09
  Q 539.33 270.56 539.00 270.02
  Q 537.02 266.82 534.45 264.09
  Q 531.59 261.04 531.51 260.95
  Q 522.67 251.05 512.65 242.35
  Q 509.97 240.02 507.59 237.40
  Q 503.68 233.11 498.77 230.00
  Q 495.64 228.01 492.19 223.81
  Q 491.41 222.87 491.79 222.00
  Z"
/>
<path fill="#010101" d="
  M 333.79 603.75
  Q 337.29 631.27 336.32 657.07
  Q 336.23 659.59 336.61 662.08
  Q 338.80 676.41 334.42 689.22
  Q 333.53 691.82 332.94 694.49
  Q 330.97 703.38 327.44 709.44
  Q 325.00 713.61 324.71 714.44
  Q 321.98 722.09 320.21 730.00
  L 316.61 740.47
  A 1.25 1.22 87.2 0 1 315.99 741.17
  Q 312.71 742.77 311.25 739.75
  Q 309.91 736.99 307.79 729.75
  Q 305.66 718.81 300.19 708.56
  Q 297.42 703.38 295.75 697.04
  Q 294.08 690.69 292.06 684.44
  Q 291.15 681.61 290.71 674.00
  Q 290.53 669.94 291.05 665.95
  Q 291.77 660.51 291.76 657.99
  Q 291.75 653.83 291.64 649.67
  Q 291.54 646.20 291.82 641.35
  Q 292.20 634.68 291.71 628.00
  L 293.96 604.00
  Q 294.92 575.11 296.40 546.25
  Q 296.40 546.16 296.44 542.25
  Q 296.45 540.56 296.70 538.90
  Q 297.02 536.73 297.06 535.57
  Q 298.76 489.59 299.00 479.00
  Q 299.20 470.16 299.76 463.18
  Q 300.27 456.69 302.07 447.55
  Q 304.94 433.08 308.10 418.67
  Q 309.04 414.37 309.49 410.11
  A 0.55 0.54 3.4 0 0 308.95 409.51
  L 271.82 409.19
  A 0.44 0.43 3.9 0 1 271.38 408.70
  Q 274.85 382.57 281.25 357.00
  Q 282.94 350.24 287.44 327.67
  Q 287.65 326.61 288.66 324.11
  Q 289.37 322.32 289.48 320.37
  Q 289.49 320.17 289.66 318.64
  Q 289.86 316.74 288.52 315.92
  Q 287.18 315.10 286.53 313.67
  Q 285.00 310.30 283.22 308.31
  Q 280.33 305.07 280.18 304.82
  Q 278.66 302.20 278.50 299.50
  Q 278.25 295.33 278.03 292.92
  Q 277.82 290.60 278.16 288.11
  Q 278.50 285.70 278.51 283.25
  Q 278.52 279.60 280.56 276.60
  Q 282.65 273.54 284.84 270.54
  Q 287.56 266.83 289.65 264.91
  Q 296.09 259.00 304.66 257.50
  Q 309.71 256.62 315.35 256.67
  Q 320.60 256.71 326.06 258.19
  Q 334.77 260.54 340.39 266.87
  Q 344.89 271.93 347.83 277.92
  Q 349.57 281.48 349.77 285.53
  Q 350.04 290.94 349.50 298.25
  Q 349.26 301.53 348.19 303.96
  Q 347.80 304.85 344.88 308.21
  Q 343.04 310.33 341.44 313.44
  Q 341.03 314.24 338.62 317.41
  A 1.54 1.28 -31.1 0 0 338.31 318.30
  Q 338.38 320.73 339.50 324.25
  Q 340.52 327.46 343.63 342.39
  Q 345.13 349.60 347.66 360.55
  Q 353.05 383.95 356.76 408.05
  A 1.06 1.05 -4.7 0 1 355.72 409.26
  L 318.85 409.44
  A 0.35 0.34 87.0 0 0 318.51 409.83
  Q 318.92 414.03 319.82 418.23
  Q 322.68 431.44 325.51 444.65
  Q 328.85 460.22 329.06 476.12
  Q 329.18 484.92 329.18 485.01
  Q 330.34 526.00 332.25 560.25
  Q 333.59 584.34 333.79 603.75
  Z"
/>
<path fill="#ffffff" d="
  M 628.00 297.06
  L 628.00 337.31
  Q 626.99 339.91 627.01 336.25
  Q 627.09 315.87 627.49 295.50
  Q 627.50 294.98 627.62 295.48
  L 628.00 297.06
  Z"
/>
<path fill="#d9dada" d="
  M 61.96 297.75
  Q 62.23 299.05 63.26 299.80
  Q 63.70 300.11 63.92 300.50
  Q 64.87 302.18 66.40 303.19
  Q 67.57 303.96 69.79 304.09
  Q 76.42 304.47 82.92 305.83
  Q 83.06 305.86 86.24 306.35
  Q 89.28 306.82 91.89 308.57
  Q 92.07 308.69 92.28 308.71
  Q 95.97 309.04 92.25 309.29
  Q 75.45 306.98 57.85 306.22
  A 0.44 0.44 -78.2 0 1 57.46 305.62
  Q 59.21 301.43 61.96 297.75
  Z"
/>
<path fill="#d9dada" d="
  M 274.76 480.93
  Q 274.43 481.71 274.44 480.75
  Q 274.47 478.17 274.80 480.69
  Q 274.81 480.82 274.76 480.93
  Z"
/>
<path fill="#bababb" d="
  M 257.6963 568.4570
  A 0.82 0.82 0.0 0 1 256.5669 568.7198
  L 248.8242 563.9004
  A 0.82 0.82 0.0 0 1 248.5614 562.7710
  L 248.6037 562.7030
  A 0.82 0.82 0.0 0 1 249.7331 562.4402
  L 257.4758 567.2596
  A 0.82 0.82 0.0 0 1 257.7386 568.3890
  L 257.6963 568.4570
  Z"
/>
<path fill="#bababb" d="
  M 269.34 618.93
  Q 268.20 619.92 268.24 618.41
  Q 268.44 611.23 267.53 604.53
  Q 267.18 601.99 268.07 599.57
  Q 268.77 597.66 270.10 598.95
  A 1.63 1.23 -78.4 0 1 270.51 599.81
  Q 271.62 608.13 270.56 616.48
  Q 270.36 618.04 269.34 618.93
  Z"
/>
<path fill="#646563" d="
  M 291.71 628.00
  Q 292.20 634.68 291.82 641.35
  Q 291.54 646.20 291.64 649.67
  Q 291.75 653.83 291.76 657.99
  Q 291.77 660.51 291.05 665.95
  Q 290.53 669.94 290.71 674.00
  Q 290.46 672.23 290.11 670.48
  Q 289.75 668.63 289.75 666.97
  Q 289.74 657.84 289.74 648.71
  Q 289.75 644.78 290.61 639.37
  Q 291.52 633.73 291.71 628.00
  Z"
/>
<path fill="#646563" d="
  M 233.4581 639.3682
  A 1.06 0.85 14.1 0 1 232.2229 639.9344
  A 1.06 0.85 14.1 0 1 231.4019 638.8518
  A 1.06 0.85 14.1 0 1 232.6371 638.2856
  A 1.06 0.85 14.1 0 1 233.4581 639.3682
  Z"
/>
<path fill="#646563" d="
  M 396.5090 639.0760
  A 0.97 0.81 -2.6 0 1 395.5767 639.9292
  A 0.97 0.81 -2.6 0 1 394.5710 639.1640
  A 0.97 0.81 -2.6 0 1 395.5033 638.3108
  A 0.97 0.81 -2.6 0 1 396.5090 639.0760
  Z"
/>
<path fill="#010101" d="
  M 192.36 890.63
  Q 186.49 899.97 177.91 906.90
  Q 176.21 908.26 174.25 909.08
  Q 172.19 909.94 170.21 909.22
  Q 167.08 908.08 165.54 905.25
  Q 164.42 903.20 164.38 899.56
  Q 164.16 880.53 179.15 868.43
  Q 183.84 864.65 189.75 863.52
  Q 195.10 862.50 199.42 864.48
  A 1.00 1.00 21.9 0 0 200.78 863.90
  Q 212.73 829.26 232.59 799.08
  Q 238.04 790.80 244.90 783.66
  Q 250.88 777.43 258.31 773.06
  Q 263.95 769.73 269.25 770.00
  Q 275.54 770.32 275.07 776.74
  Q 274.80 780.39 274.00 782.25
  Q 273.61 783.16 273.10 782.85
  A 1.24 0.66 -87.1 0 1 272.71 782.01
  Q 272.30 777.70 268.50 776.75
  Q 263.60 775.53 257.69 777.94
  Q 251.90 780.30 247.26 784.51
  Q 239.73 791.37 234.10 799.88
  Q 221.85 818.43 212.75 842.50
  Q 205.39 861.96 200.52 882.19
  Q 198.14 892.07 198.06 900.19
  Q 198.02 904.48 201.19 904.19
  Q 202.94 904.04 204.79 902.37
  Q 207.00 900.38 208.66 897.86
  A 0.67 0.51 -58.3 0 1 209.41 897.57
  Q 210.01 897.89 209.39 898.91
  Q 205.09 906.04 199.06 909.06
  Q 194.85 911.18 192.82 908.18
  Q 191.69 906.51 191.56 903.09
  Q 191.33 896.79 193.18 890.69
  Q 193.33 890.19 192.91 890.23
  A 0.89 0.57 -68.8 0 0 192.36 890.63
  Z
  M 176.63 903.40
  Q 179.48 903.04 181.94 900.44
  Q 193.61 888.05 197.89 870.94
  Q 198.51 868.46 196.37 867.06
  Q 192.64 864.63 187.94 865.69
  Q 182.53 866.90 178.21 872.68
  Q 170.23 883.35 170.69 896.81
  Q 170.79 899.84 172.32 901.73
  Q 173.95 903.74 176.63 903.40
  Z"
/>
<path fill="#010101" d="
  M 245.05 890.49
  Q 241.34 896.55 236.57 901.82
  Q 232.68 906.11 226.47 909.39
  A 2.85 2.80 -51.6 0 1 224.49 909.64
  Q 218.08 908.06 217.49 901.73
  Q 216.41 890.11 221.87 879.90
  Q 227.58 869.21 238.81 864.64
  Q 245.61 861.88 252.82 864.71
  A 0.47 0.47 -69.9 0 0 253.44 864.42
  Q 265.03 830.13 284.85 799.96
  Q 288.66 794.16 292.19 789.97
  Q 296.19 785.23 300.64 780.89
  Q 307.81 773.92 316.06 770.81
  Q 318.83 769.77 322.03 770.05
  Q 325.75 770.38 326.98 772.65
  Q 328.35 775.17 327.58 779.74
  Q 327.36 781.09 326.71 782.29
  Q 325.78 784.02 325.41 781.48
  Q 324.98 778.48 322.70 777.23
  Q 321.14 776.38 318.16 776.48
  Q 309.70 776.76 302.69 782.44
  Q 294.66 788.93 289.38 796.40
  Q 278.27 812.10 270.66 829.67
  Q 267.15 837.78 263.42 848.31
  Q 256.82 866.97 252.19 888.69
  Q 250.85 894.98 250.92 899.86
  Q 250.95 902.28 251.94 903.39
  Q 253.53 905.16 256.44 903.44
  Q 258.58 902.17 261.53 897.74
  A 0.62 0.48 -56.6 0 1 262.27 897.49
  Q 262.90 897.89 262.24 898.97
  Q 258.33 905.35 252.31 908.81
  Q 248.28 911.14 246.05 908.57
  Q 244.71 907.01 244.45 903.61
  Q 243.98 897.37 245.80 891.27
  Q 245.98 890.67 245.73 890.34
  A 0.47 0.37 -50.6 0 0 245.05 890.49
  Z
  M 228.66 903.58
  Q 231.25 903.79 233.19 901.94
  Q 245.08 890.53 250.00 873.75
  Q 250.67 871.47 250.59 869.75
  Q 250.50 867.83 248.59 866.65
  Q 244.60 864.19 240.25 865.75
  Q 231.38 868.94 227.25 878.50
  Q 223.23 887.81 223.50 896.75
  Q 223.58 899.56 224.87 901.43
  Q 226.20 903.38 228.66 903.58
  Z"
/>
<path fill="#010101" d="
  M 514.44 909.31
  Q 512.19 908.15 511.75 904.75
  Q 511.07 899.47 513.00 890.65
  Q 517.73 868.98 526.46 848.59
  Q 535.89 826.58 548.44 806.19
  Q 554.45 796.41 562.04 787.79
  Q 567.77 781.28 575.03 776.52
  Q 580.47 772.95 587.00 772.81
  Q 591.32 772.72 592.52 776.82
  Q 593.79 781.19 592.31 785.33
  Q 591.56 787.44 591.00 785.27
  Q 589.73 780.26 584.43 780.12
  Q 573.99 779.83 566.56 787.06
  Q 554.87 798.45 546.66 812.37
  Q 542.72 819.07 537.53 830.17
  Q 529.24 847.92 523.70 866.78
  Q 520.33 878.22 518.25 893.75
  Q 517.61 898.51 518.66 901.97
  A 1.49 1.42 -82.3 0 0 519.21 902.73
  Q 522.19 904.76 525.06 902.56
  Q 527.49 900.71 530.35 897.08
  Q 530.58 896.79 530.86 896.68
  Q 532.08 896.18 531.25 897.57
  Q 527.14 904.43 520.40 908.70
  Q 517.19 910.74 514.44 909.31
  Z"
/>
<path fill="#010101" d="
  M 23.62 893.03
  Q 14.78 882.05 14.33 866.75
  Q 13.70 845.61 24.06 827.31
  Q 33.39 810.83 49.62 801.07
  Q 62.90 793.09 77.97 791.43
  Q 86.85 790.46 95.04 790.99
  Q 103.47 791.55 111.94 794.31
  Q 116.14 795.69 117.80 799.29
  A 1.64 1.48 -55.2 0 1 117.92 800.24
  Q 116.51 808.87 111.48 816.02
  A 0.91 0.61 -61.7 0 1 110.70 816.43
  Q 110.17 816.29 110.50 815.50
  Q 111.38 813.37 112.09 811.19
  Q 112.97 808.47 112.74 806.71
  Q 112.28 803.21 109.01 800.99
  Q 98.87 794.12 86.50 793.85
  Q 51.39 793.08 34.12 820.04
  Q 28.81 828.32 26.08 838.27
  Q 21.23 855.92 25.00 874.00
  Q 26.58 881.59 30.72 888.36
  Q 34.93 895.25 40.89 899.64
  Q 47.74 904.68 56.11 906.27
  Q 65.64 908.09 73.85 906.12
  Q 83.03 903.93 89.56 896.31
  Q 96.41 888.32 99.44 877.52
  Q 99.58 877.01 99.82 876.66
  Q 100.82 875.16 100.93 876.98
  Q 100.95 877.39 100.85 877.88
  Q 98.12 891.03 91.63 903.53
  A 3.11 3.09 -86.1 0 1 89.93 905.02
  Q 75.37 910.27 60.00 909.75
  Q 48.60 909.37 39.29 905.12
  Q 29.93 900.86 23.62 893.03
  Z"
/>
<path fill="#010101" d="
  M 446.46 802.62
  Q 422.25 796.39 396.50 795.75
  Q 387.85 795.54 379.71 798.39
  Q 371.38 801.31 365.37 806.85
  Q 352.77 818.48 354.39 837.57
  Q 354.44 838.19 354.25 838.51
  Q 353.93 839.07 353.36 838.61
  A 1.41 0.97 -81.5 0 1 352.94 837.75
  Q 352.39 833.14 352.50 831.75
  Q 355.16 799.56 386.44 792.45
  Q 392.07 791.17 397.79 790.95
  Q 400.72 790.84 409.21 791.03
  Q 425.14 791.37 440.74 794.78
  Q 453.75 797.61 466.58 801.19
  A 0.92 0.92 -71.9 0 1 467.19 802.40
  Q 466.10 805.38 463.41 807.23
  A 1.08 1.00 35.1 0 1 462.52 807.35
  Q 459.11 806.28 455.66 805.40
  Q 452.81 804.67 450.31 805.27
  Q 444.17 806.76 439.81 810.56
  Q 431.55 817.79 426.83 829.07
  Q 421.91 840.85 418.04 853.01
  Q 413.34 867.83 404.78 880.53
  Q 398.55 889.78 391.75 895.63
  Q 374.36 910.57 349.75 909.77
  Q 344.81 909.61 340.20 907.89
  Q 332.40 904.98 329.07 898.36
  Q 325.95 892.14 327.36 884.83
  Q 328.99 876.41 336.66 871.09
  A 0.59 0.49 -34.7 0 1 337.42 871.16
  Q 337.81 871.73 337.22 872.47
  Q 331.18 879.97 334.02 889.49
  Q 335.97 896.06 341.05 899.72
  Q 345.09 902.62 352.12 903.72
  Q 360.67 905.05 369.81 903.31
  Q 385.30 900.36 394.31 888.06
  Q 403.24 875.87 408.18 861.56
  Q 410.26 855.55 412.20 849.48
  Q 418.18 830.73 428.31 817.31
  Q 435.46 807.85 446.51 803.49
  Q 447.83 802.98 446.46 802.62
  Z"
/>
<path fill="#010101" d="
  M 506.83 845.09
  Q 511.25 840.25 516.03 835.76
  Q 516.82 835.02 517.31 835.32
  A 0.65 0.64 -52.4 0 1 517.43 836.30
  Q 509.23 845.21 504.46 853.65
  Q 503.41 855.50 502.82 853.46
  Q 502.19 851.30 503.42 849.45
  Q 504.96 847.13 506.83 845.09
  Z"
/>
<path fill="#010101" d="
  M 138.45 891.69
  Q 138.92 889.43 137.57 891.30
  Q 133.40 897.09 128.63 902.39
  Q 124.40 907.10 119.69 909.19
  Q 115.99 910.83 113.06 907.69
  Q 111.60 906.11 110.79 903.36
  Q 110.18 901.31 110.16 898.58
  Q 110.05 883.46 120.81 872.31
  Q 130.95 861.81 145.50 863.50
  Q 147.47 863.73 150.57 865.50
  A 0.76 0.72 -48.5 0 0 151.39 865.43
  Q 153.86 863.48 157.35 863.22
  Q 158.40 863.15 157.76 863.99
  Q 148.95 875.48 145.47 889.41
  Q 144.29 894.17 143.98 896.48
  Q 143.51 900.09 144.00 903.77
  Q 144.31 906.07 146.51 905.33
  Q 150.73 903.92 153.33 899.70
  Q 153.59 899.27 153.89 898.99
  Q 155.77 897.20 154.91 899.59
  Q 154.76 899.99 154.51 900.37
  Q 150.12 907.10 142.48 909.76
  Q 140.47 910.46 139.20 908.74
  Q 137.85 906.92 137.70 904.24
  Q 137.29 897.34 138.45 891.69
  Z
  M 120.40 903.12
  Q 123.16 903.87 125.62 901.88
  Q 130.34 898.08 134.04 893.27
  Q 141.29 883.84 146.84 871.93
  Q 147.60 870.29 146.36 868.97
  Q 142.14 864.46 135.44 865.68
  Q 129.83 866.69 126.19 870.44
  Q 117.79 879.06 116.44 891.49
  Q 115.87 896.80 118.32 901.45
  A 3.36 3.33 83.6 0 0 120.40 903.12
  Z"
/>
<path fill="#010101" d="
  M 281.74 870.28
  Q 277.77 872.27 274.33 875.11
  A 1.48 0.95 -54.4 0 1 273.45 875.46
  Q 272.41 875.41 273.56 874.31
  Q 281.19 867.06 289.00 863.25
  Q 290.10 862.71 290.20 863.69
  Q 290.24 864.11 289.91 864.61
  Q 282.55 875.81 279.05 888.76
  Q 277.56 894.28 277.82 900.00
  Q 278.02 904.25 282.20 904.00
  Q 284.64 903.86 286.43 902.19
  Q 301.93 887.76 309.97 868.13
  Q 311.47 864.47 315.26 863.25
  Q 317.07 862.66 316.43 864.45
  Q 309.36 884.16 302.09 904.03
  Q 297.92 915.42 292.05 926.03
  Q 286.51 936.06 278.08 943.81
  Q 264.71 956.11 246.75 954.00
  Q 242.33 953.48 238.73 950.96
  Q 235.35 948.59 233.50 944.54
  Q 228.86 934.38 237.54 925.83
  Q 237.95 925.41 238.41 925.14
  Q 241.03 923.57 239.14 926.61
  Q 234.76 933.63 238.07 941.36
  Q 240.82 947.79 246.66 949.94
  Q 251.01 951.54 257.97 951.07
  Q 270.24 950.22 278.56 940.56
  Q 281.66 936.96 284.73 931.52
  Q 290.71 920.88 294.88 909.42
  Q 299.03 897.99 303.35 886.63
  Q 303.53 886.18 303.42 885.86
  Q 303.16 885.05 302.28 886.33
  Q 297.46 893.27 291.91 899.65
  Q 284.93 907.66 276.00 909.75
  Q 273.01 910.45 272.07 906.98
  Q 270.80 902.31 271.59 897.52
  Q 273.99 882.93 281.92 870.48
  Q 282.19 870.06 281.74 870.28
  Z"
/>
<path fill="#010101" d="
  M 457.87 890.71
  Q 451.07 899.39 447.06 903.56
  Q 442.67 908.14 438.50 909.50
  Q 435.33 910.53 432.75 907.75
  Q 430.23 905.04 429.83 900.24
  Q 428.98 890.04 433.78 881.10
  Q 439.28 870.84 448.94 865.94
  Q 459.19 860.73 470.07 865.48
  A 0.92 0.89 -50.4 0 0 470.97 865.38
  Q 473.73 863.40 476.80 863.26
  Q 477.93 863.21 477.25 864.11
  Q 465.36 879.74 463.33 899.26
  Q 463.06 901.90 463.65 903.88
  Q 464.46 906.60 466.93 905.19
  Q 470.86 902.95 473.44 899.19
  Q 473.99 898.38 474.51 898.46
  A 0.48 0.37 -68.7 0 1 474.70 899.13
  Q 472.20 903.66 468.06 906.66
  Q 465.58 908.46 464.55 908.95
  Q 462.61 909.88 460.31 909.69
  Q 458.62 909.55 458.07 907.95
  Q 456.57 903.61 457.12 899.01
  Q 457.60 894.91 458.12 890.80
  Q 458.19 890.31 457.87 890.71
  Z
  M 440.77 903.30
  Q 444.03 903.19 446.62 900.62
  Q 459.36 888.01 466.71 871.23
  A 1.35 1.34 -52.6 0 0 466.53 869.86
  Q 461.72 863.79 453.69 865.93
  Q 448.16 867.40 444.31 872.06
  Q 437.09 880.80 435.91 891.74
  Q 435.31 897.33 438.40 902.07
  A 2.73 2.73 72.4 0 0 440.77 903.30
  Z"
/>
<path fill="#010101" d="
  M 495.74 869.28
  Q 490.87 871.70 486.81 875.35
  A 1.13 0.71 -51.5 0 1 485.93 875.66
  Q 485.40 875.52 486.20 874.70
  Q 493.46 867.34 501.19 863.44
  Q 502.95 862.55 502.85 864.27
  Q 502.82 864.88 502.39 865.64
  Q 495.02 878.71 491.23 893.24
  Q 490.24 897.06 490.27 901.00
  Q 490.30 904.07 492.66 904.47
  Q 494.14 904.71 495.95 903.46
  Q 498.81 901.47 501.12 898.81
  A 1.28 0.97 -65.6 0 1 501.93 898.37
  Q 503.06 898.32 502.06 899.56
  Q 498.02 904.60 493.52 907.78
  Q 490.48 909.93 487.90 909.73
  Q 483.54 909.39 483.91 903.49
  Q 483.97 902.50 483.99 901.51
  Q 484.01 900.42 484.21 899.52
  Q 487.65 883.56 495.93 869.49
  Q 496.19 869.06 495.74 869.28
  Z"
/>
<path fill="#010101" d="
  M 541.9647 908.8076
  A 25.25 13.75 116.7 0 1 541.0261 880.0719
  A 25.25 13.75 116.7 0 1 564.6553 863.6924
  A 25.25 13.75 116.7 0 1 565.5939 892.4281
  A 25.25 13.75 116.7 0 1 541.9647 908.8076
  Z
  M 547.6639 904.6755
  A 18.96 10.67 106.0 0 0 563.1467 889.3911
  A 18.96 10.67 106.0 0 0 558.1161 868.2245
  A 18.96 10.67 106.0 0 0 542.6333 883.5089
  A 18.96 10.67 106.0 0 0 547.6639 904.6755
  Z"
/>
<path fill="#010101" d="
  M 593.53 879.99
  Q 593.65 879.96 593.74 879.78
  Q 595.87 875.18 598.61 870.94
  Q 601.81 865.98 607.27 863.79
  Q 609.89 862.74 612.52 863.79
  Q 615.95 865.15 615.00 868.89
  Q 614.27 871.72 612.68 874.20
  Q 611.91 875.40 611.52 874.03
  Q 610.83 871.61 608.70 871.01
  Q 607.16 870.57 604.97 871.28
  Q 600.12 872.85 597.19 877.69
  Q 594.88 881.50 594.39 882.60
  Q 589.25 894.18 586.17 906.48
  Q 585.33 909.80 580.59 909.73
  A 1.03 1.03 9.5 0 1 579.62 908.38
  Q 585.82 889.92 588.25 871.00
  Q 588.62 868.12 586.36 867.79
  Q 585.05 867.60 583.46 868.60
  Q 580.86 870.23 578.78 872.54
  Q 577.09 874.43 577.70 872.41
  Q 577.80 872.07 578.03 871.77
  Q 580.09 869.05 584.19 865.69
  Q 587.24 863.18 590.48 863.49
  Q 593.89 863.82 594.31 866.60
  Q 594.37 866.98 594.15 870.90
  Q 593.91 875.32 593.34 879.72
  A 0.23 0.17 -89.5 0 0 593.53 879.99
  Z"
/>
<path fill="#ffffff" d="
  M 224.87 901.43
  Q 223.58 899.56 223.50 896.75
  Q 223.23 887.81 227.25 878.50
  Q 231.38 868.94 240.25 865.75
  Q 244.60 864.19 248.59 866.65
  Q 250.50 867.83 250.59 869.75
  Q 250.67 871.47 250.00 873.75
  Q 245.08 890.53 233.19 901.94
  Q 231.25 903.79 228.66 903.58
  Q 226.20 903.38 224.87 901.43
  Z"
/>
<path fill="#ffffff" d="
  M 120.40 903.12
  A 3.36 3.33 83.6 0 1 118.32 901.45
  Q 115.87 896.80 116.44 891.49
  Q 117.79 879.06 126.19 870.44
  Q 129.83 866.69 135.44 865.68
  Q 142.14 864.46 146.36 868.97
  Q 147.60 870.29 146.84 871.93
  Q 141.29 883.84 134.04 893.27
  Q 130.34 898.08 125.62 901.88
  Q 123.16 903.87 120.40 903.12
  Z"
/>
<path fill="#ffffff" d="
  M 172.32 901.73
  Q 170.79 899.84 170.69 896.81
  Q 170.23 883.35 178.21 872.68
  Q 182.53 866.90 187.94 865.69
  Q 192.64 864.63 196.37 867.06
  Q 198.51 868.46 197.89 870.94
  Q 193.61 888.05 181.94 900.44
  Q 179.48 903.04 176.63 903.40
  Q 173.95 903.74 172.32 901.73
  Z"
/>
<path fill="#ffffff" d="
  M 440.77 903.30
  A 2.73 2.73 72.4 0 1 438.40 902.07
  Q 435.31 897.33 435.91 891.74
  Q 437.09 880.80 444.31 872.06
  Q 448.16 867.40 453.69 865.93
  Q 461.72 863.79 466.53 869.86
  A 1.35 1.34 -52.6 0 1 466.71 871.23
  Q 459.36 888.01 446.62 900.62
  Q 444.03 903.19 440.77 903.30
  Z"
/>
<path fill="#ffffff" d="
  M 547.6639 904.6755
  A 18.96 10.67 106.0 0 1 542.6333 883.5089
  A 18.96 10.67 106.0 0 1 558.1161 868.2245
  A 18.96 10.67 106.0 0 1 563.1467 889.3911
  A 18.96 10.67 106.0 0 1 547.6639 904.6755
  Z"
/>
</svg>
